<?xml version="1.0" encoding="UTF-8" standalone="no"?>
<!-- Created with Inkscape (http://www.inkscape.org/) -->

<svg
   xmlns:dc="http://purl.org/dc/elements/1.1/"
   xmlns:cc="http://creativecommons.org/ns#"
   xmlns:rdf="http://www.w3.org/1999/02/22-rdf-syntax-ns#"
   xmlns:svg="http://www.w3.org/2000/svg"
   xmlns="http://www.w3.org/2000/svg"
   xmlns:sodipodi="http://sodipodi.sourceforge.net/DTD/sodipodi-0.dtd"
   xmlns:inkscape="http://www.inkscape.org/namespaces/inkscape"
   id="svg2"
   version="1.1"
   inkscape:version="0.47 r22583"
   width="345.37918"
   height="354.33072"
   sodipodi:docname="amanda_small.png">
  <metadata
     id="metadata8">
    <rdf:RDF>
      <cc:Work
         rdf:about="">
        <dc:format>image/svg+xml</dc:format>
        <dc:type
           rdf:resource="http://purl.org/dc/dcmitype/StillImage" />
        <dc:title></dc:title>
      </cc:Work>
    </rdf:RDF>
  </metadata>
  <defs
     id="defs6">
    <inkscape:perspective
       sodipodi:type="inkscape:persp3d"
       inkscape:vp_x="0 : 0.5 : 1"
       inkscape:vp_y="0 : 1000 : 0"
       inkscape:vp_z="1 : 0.5 : 1"
       inkscape:persp3d-origin="0.5 : 0.33333333 : 1"
       id="perspective10" />
  </defs>
  <sodipodi:namedview
     pagecolor="#ffffff"
     bordercolor="#666666"
     borderopacity="1"
     objecttolerance="10"
     gridtolerance="10"
     guidetolerance="10"
     inkscape:pageopacity="0"
     inkscape:pageshadow="2"
     inkscape:window-width="1104"
     inkscape:window-height="789"
     id="namedview4"
     showgrid="false"
     inkscape:zoom="0.63451407"
     inkscape:cx="188.18064"
     inkscape:cy="247.94936"
     inkscape:window-x="0"
     inkscape:window-y="0"
     inkscape:window-maximized="0"
     inkscape:current-layer="svg2" />
  <path
     style="fill:#000000"
     d="m 39.796528,353.73714 c -1.59368,-0.47435 -3.68013,-1.70163 -4.63655,-2.72729 -1.52834,-1.63897 -1.7214,-2.33897 -1.59407,-5.77961 0.18127,-4.8981 1.84688,-8.21189 6.87987,-13.68771 l 3.88117,-4.22266 -1.87807,-1.7702 -1.87805,-1.7702 -3.30464,2.65812 c -1.81755,1.46197 -3.5573,3.12072 -3.86612,3.68612 -0.30882,0.5654 -1.19613,1.68516 -1.97179,2.48837 -0.77568,0.8032 -1.86615,2.47166 -2.42329,3.70769 -1.51964,3.37141 -5.28126,3.13432 -10.62204,-0.66949 -2.15398,-1.5341 -2.60239,-2.22333 -2.43335,-3.74021 0.11398,-1.02275 0.23907,-3.1685 0.27798,-4.76834 0.0809,-3.32625 1.91585,-5.88044 5.86824,-8.16839 3.04415,-1.76218 5.40331,-3.98949 5.3492,-5.05021 -0.0221,-0.43387 -0.70933,-1.33385 -1.52709,-1.99997 -1.84068,-1.49935 -8.99362,-10.46664 -11.86067,-14.86914 -1.9114,-2.93504 -2.15453,-3.8551 -2.37803,-8.99906 -0.21715,-4.99805 -0.0301,-6.15764 1.46478,-9.08033 1.97737,-3.86604 7.43072,-9.83871 12.2649,-13.4329 3.0125,-2.23979 3.6527,-2.45662 6.4328,-2.17869 2.9396,0.29387 5.0619,1.4746 12.73473,7.08484 l 2.20428,1.61174 1.59079,-2.26817 c 0.87492,-1.2475 3.28913,-4.22255 5.3649,-6.61121 3.18214,-3.6618 4.05761,-4.30369 5.58135,-4.09221 3.76806,0.52298 2.67567,-1.64943 -4.76324,-9.47251 -23.72677,-24.95212 -30.51431,-35.7411 -31.23112,-49.64276 -0.25171,-4.88061 -0.1217,-5.57253 1.37398,-7.31502 1.30197,-1.51683 1.75552,-3.07875 2.14093,-7.37279 1.05639,-11.76991 5.73487,-23.37611 12.2833,-30.47194 4.58044,-4.96331 8.89899,-8.45801 10.55642,-8.54257 0.63359,-0.0323 1.46717,-0.49647 1.8524,-1.03143 2.02248,-2.80852 18.92566,-7.57011 28.2817,-7.9669 14.197406,-0.60212 35.046012,3.36255 52.120442,9.91146 3.88302,1.48934 6.74206,2.43406 6.35341,2.09936 -3.21003,-2.76435 -38.451937,-26.62434 -53.531192,-36.24247 -14.90782,-9.50877 -37.66459,-22.941612 -45.1737,-26.665052 -7.24678,-3.59338 -21.16112,-9.50553 -28.75984,-12.21996 -7.2331501,-2.58383 -13.0342901,-6.77325 -9.99533007,-7.21835 1.17391997,-0.17193 1.35352997,-0.15091 2.79697997,0.32724 1.09951,0.36423 1.20147,0.19794 0.71664,-1.16877 -0.31089,-0.87638 -1.06677,-1.94785 -1.67973,-2.38105 -0.96518,-0.68211 -0.86651,-0.80027 0.73648,-0.88205 l 1.85094,-0.0944 -1.97547,-1.56683 -1.97547,-1.56682 3.11711,-0.18038 c 1.99828,-0.11564 3.41482,-0.5788 3.94658,-1.2904 0.48376,-0.64738 1.48478,-1.01907 2.4017601,-0.8918 2.005,0.27827 1.96605,-0.52596 -0.0963,-1.99369 -1.5276301,-1.08703 -3.0576801,-3.43985 -2.2633301,-3.48038 0.20263,-0.0103 2.5959601,0.90653 5.3185201,2.03749 2.72256,1.13097 9.52772,3.9524 15.12257,6.26985 15.81124,6.5492 31.87648,15.40489 59.615247,32.8619 8.189218,5.15377 27.877145,18.382642 31.130665,20.917582 2.6477,2.06292 12.8807,8.60007 13.41921,8.5726 0.22022,-0.0113 -0.11535,-0.535 -0.7457,-1.16393 -0.75659,-0.75487 -1.08628,-1.94078 -0.97004,-3.4894 0.33497,-4.46312 0.84105,-4.88713 18.44703,-15.45586 6.22625,-3.737582 14.13061,-9.731232 17.22374,-13.060282 2.33737,-2.51565 2.91061,-3.59493 2.67086,-5.02858 -0.29633,-1.77197 -0.44378,-1.82409 -5.03199,-1.77882 -2.59969,0.0256 -6.81721,0.59767 -9.37227,1.27113 -2.55507,0.67347 -4.88991,1.09019 -5.18853,0.92604 -0.29864,-0.16415 -0.52748,0.005 -0.50854,0.37645 0.0189,0.3712 -0.58615,0.58791 -1.34464,0.48158 -0.75849,-0.10633 -1.20807,0.0542 -0.99905,0.35676 0.20901,0.30255 -0.0885,0.75785 -0.66118,1.0118 -1.56312,0.69314 -2.07007,0.57879 -0.96535,-0.21776 1.19113,-0.85885 0.12723,-0.80457 -1.68458,0.0859 -0.88664,0.43578 -0.98632,0.64937 -0.3045,0.65247 0.55749,0.003 -2.62935,1.85856 -7.08186,4.1245 -8.16575,4.15566 -11.12587,5.34399 -6.59109,2.64597 1.35234,-0.80459 2.45182,-1.59975 2.44329,-1.76703 -0.0198,-0.3877 -2.45796,0.6852 -6.80502,2.99448 -4.14338,2.20108 -7.8687,2.80861 -9.30421,1.51734 -0.5718,-0.51434 -2.2329,-1.87807 -3.69133,-3.03049 -6.36344,-5.02829 -3.7679,-9.19832 13.99955,-22.4919 4.66594,-3.49106 8.2103,-6.87776 9.07013,-8.66668 1.60122,-3.33143 -6.0298,-4.05918 -13.54738,-1.29197 -7.81931,2.87827 -19.65952,13.01446 -25.292598,21.65253 -3.294851,5.05252 -4.202008,5.9128 -3.703321,3.51197 0.239415,-1.15258 0.127178,-1.25325 -0.625403,-0.56096 -0.504449,0.46404 -0.897676,1.22606 -0.873836,1.69336 0.05971,1.17045 -2.414213,1.84845 -4.402244,1.20648 -0.95372,-0.30797 -1.63067,-0.27849 -1.61288,0.0703 0.0169,0.33053 -1.11397,-0.4025 -2.51297,-1.62898 -1.72823,-1.5151 -2.45617,-2.65105 -2.27078,-3.54354 0.15006,-0.72247 -0.002,-1.29956 -0.3379,-1.28242 -0.99563,0.0508 -0.84634,-2.91212 0.23351,-4.63437 0.55047,-0.87793 0.88875,-1.69599 0.75174,-1.81791 -0.13702,-0.12191 -1.74544,0.24365 -3.57428,0.81238 -1.82884,0.56872 -3.78451,0.96889 -4.34593,0.88926 -0.56142,-0.0796 -1.43333,-0.14698 -1.93758,-0.14968 -0.50426,-0.003 -2.45011,-1.47971 -4.32413,-3.28222 -4.32099,-4.15614 -5.04114,-6.96952 -3.40523,-13.30326 0.62659,-2.42599 1.1328,-4.61441 1.1249,-4.86315 -0.0288,-0.90658 -15.87984,-11.11262 -20.24836,-13.03734 -6.58764,-2.90243 -15.33091,-8.03729 -14.92932,-8.76788 0.19144,-0.34827 -0.1467,-0.79468 -0.75142,-0.99201 -0.60472,-0.19734 -1.62911,-1.26641 -2.27642,-2.37572 l -1.17695,-2.01692 -2.19467,2.65456 c -1.80657,2.18511 -6.88336,5.50416 -8.54912,5.58914 -0.22727,0.0116 0.50996,-1.03405 1.6383,-2.32365 1.95769,-2.23747 2.09899,-4.13262 0.17624,-2.3639 -0.70933,0.65251 -1.24505,0.66328 -2.35334,0.0473 -1.24213,-0.69035 -1.372,-0.65557 -0.96652,0.25886 0.69036,1.55683 -0.37063,1.33339 -2.25097,-0.47405 -1.2995301,-1.24915 -1.4924501,-1.79446 -0.9104,-2.57337 0.58654,-0.7849 0.46634,-1.04489 -0.5838801,-1.26304 -0.72736,-0.15108 -1.6117,0.0456 -1.96523,0.43719 -1.19238,1.3206 0.28841,-5.1572 1.6609,-7.26571 0.72371,-1.11178 0.9803001,-1.78962 0.57022,-1.50633 -0.41008,0.2833 -0.94715,0.0605 -1.1935,-0.49498 -0.47625,-1.07402 2.8383801,-5.05725 8.0295401,-9.64916 7.0064,-6.1976199 15.32911,-9.81984986 23.12311,-10.06369986 11.05414,-0.34585 25.48835,4.33255996 33.40967,10.82872986 6.68446,5.48184 15.082781,16.80468 13.35142,18.00076 -0.54257,0.37483 -0.4942,1.65557 0.18111,4.79585 1.301413,6.05161 1.560913,13.66039 0.63828,18.71506 -0.73347,4.01837 -0.74101,7.85897 -0.0178,9.09362 0.1686,0.28786 1.623571,-0.67303 3.233267,-2.13531 4.261754,-3.87145 12.578125,-9.00635 14.767375,-9.11804 1.03984,-0.053 3.59546,-0.75566 5.67917,-1.56135 7.45249,-2.8816 10.76459,-3.52396 18.13845,-3.51782 12.73432,0.0106 23.96894,4.96047 24.26122,10.68928 0.0504,0.98772 0.39082,2.0694 0.75652,2.40374 0.36569,0.33433 0.83087,1.51145 1.03374,2.61582 l 0.36884,2.00793 5.67958,-0.1386 c 7.01483,-0.17118 11.3188,0.56978 16.50326,2.84116 3.23314,1.41648 4.5491,2.50884 6.82585,5.66604 2.75298,3.81761 4.50687,8.5147 4.71695,12.63245 0.14545,2.85088 -3.10503,12.05648 -5.37283,15.21625 -2.07677,2.893622 -1.80115,3.122012 1.72756,1.431562 1.30259,-0.624012 3.50571,-1.370862 4.89581,-1.659662 1.39011,-0.2888 6.39676,-1.4561 11.12588,-2.594 13.29055,-3.19791 25.62695,-3.30737 27.47325,-0.24376 0.40692,0.6752 1.22425,1.20293 1.81631,1.17273 0.59205,-0.0302 1.67597,0.56904 2.40871,1.33165 1.85814,1.933892 2.28172,10.467122 0.71671,14.438892 -1.49527,3.79484 -7.41926,10.60755 -15.62656,17.97086 -3.79323,3.40315 -6.77645,6.60965 -6.76361,7.2698 0.0127,0.6496 0.2138,1.17137 0.44702,1.15946 0.23323,-0.0119 3.08629,-2.18892 6.34013,-4.83782 9.52576,-7.75478 20.44469,-13.70061 28.40214,-15.46621 3.75014,-0.83207 6.73539,0.64458 8.60985,4.25889 2.20675,4.25499 1.96009,8.31417 -0.60845,10.01341 -0.48668,0.32198 -0.8516,1.25263 -0.81093,2.06812 0.041,0.81549 -0.91728,5.10545 -2.12878,9.53322 -1.2115,4.42777 -2.07143,8.04379 -1.91095,8.0356 0.16048,-0.008 4.36138,-2.76978 9.33532,-6.13686 9.96293,-6.74436 14.2529,-8.51734 18.0728,-7.4692 3.36506,0.92335 7.4984,6.79821 6.63801,9.4348 -0.16528,0.50649 0.25706,1.0846 0.93853,1.28469 0.68147,0.20009 1.70372,0.53361 2.27167,0.74115 0.59035,0.21573 0.34717,-0.29708 -0.56778,-1.19728 -1.47047,-1.44682 -2.17843,-3.14702 -1.32845,-3.19039 1.49454,-0.0763 10.14765,5.85236 14.29125,9.79153 8.59848,8.17426 11.94065,13.87408 14.12922,24.09634 1.28433,5.99887 0.78865,11.82668 -1.44466,16.98511 l -1.4517,3.35308 1.76211,-0.48406 c 6.51337,-1.78921 15.58,-3.28491 18.52053,-3.05528 1.86529,0.14567 4.20743,0.21649 5.20475,0.15739 2.23485,-0.13246 6.39982,3.20505 6.53375,5.23564 0.0638,0.96781 0.491,1.39178 1.29476,1.28507 1.04011,-0.13809 1.18313,0.29003 1.07633,3.22175 -0.0677,1.85955 -0.43967,3.73153 -0.82649,4.15995 -0.38683,0.42841 -0.67487,1.33683 -0.64009,2.01868 0.12547,2.45922 -2.44691,6.74216 -7.77566,12.94622 -5.01132,5.83451 -5.41777,6.53379 -5.28704,9.09619 0.0779,1.52668 -0.10988,2.78862 -0.41726,2.80431 -0.30738,0.0156 -0.52947,0.55903 -0.49354,1.20745 0.25293,4.56429 0.0207,5.57251 -1.29913,5.63984 -1.0823,0.0552 -1.32474,0.51798 -1.23127,2.35014 0.16352,3.20513 -1.0773,5.62479 -2.76504,5.39199 -0.74841,-0.10324 -2.24031,-1.09705 -3.31534,-2.20848 l -1.9546,-2.02077 -1.34424,1.75754 c -2.22337,2.90696 -5.45384,10.90564 -5.33615,13.21241 0.10536,2.06517 -0.64764,5.85656 -1.61017,8.10726 -0.24901,0.58225 -0.61896,2.05549 -0.82212,3.27386 -0.20316,1.21836 -1.01571,2.68745 -1.80567,3.26465 -1.44846,1.05835 -5.61542,1.17901 -6.42837,0.18615 -0.23444,-0.28633 -1.0497,-0.82265 -1.81168,-1.19181 -2.70348,-1.30982 -3.27507,-3.33055 -3.46646,-12.25514 -0.16506,-7.69672 -0.0141,-8.88789 1.72363,-13.59962 1.04749,-2.84023 3.04509,-7.33143 4.43909,-9.98046 l 2.53455,-4.81642 -2.15966,-1.62076 c -1.18782,-0.89142 -4.0328,-2.80225 -6.32219,-4.24629 l -4.16252,-2.62553 -4.56499,2.48128 c -2.51074,1.3647 -5.71695,3.28685 -7.12489,4.27145 -3.89843,2.72624 -5.36893,3.00911 -5.46878,1.05197 -0.0452,-0.88646 0.17473,-1.78926 0.48878,-2.00622 0.31406,-0.21696 0.55456,-0.71693 0.53445,-1.11104 -0.0216,-0.42393 -0.46988,-0.31796 -1.09759,0.25946 -0.94319,0.86763 -1.01633,0.80553 -0.65859,-0.55926 0.44882,-1.71224 0.13532,-1.845 -1.71857,-0.72774 -0.69728,0.42022 -1.26869,1.43742 -1.26981,2.26044 -0.001,1.19246 -0.0784,1.25357 -0.37822,0.30086 -0.20692,-0.65754 -0.0888,-1.58016 0.2625,-2.05026 0.9936,-1.32965 0.96033,-6.22434 -0.0421,-6.19017 -1.65924,0.0565 -0.21677,-3.89527 2.01775,-5.52798 2.61079,-1.90762 1.6846,-2.44389 -3.76207,-2.17824 -6.31529,0.30801 -14.1198,-0.83441 -16.50618,-2.41616 -0.96144,-0.63727 -2.15185,-2.17364 -2.64535,-3.41415 -0.7369,-1.85236 -0.97277,-2.03419 -1.31965,-1.0173 -0.28499,0.83546 0.10931,1.74923 1.2122,2.80939 2.6882,2.58399 -0.7486,1.60099 -4.1463,-1.18593 -1.35496,-1.11138 -2.10658,-1.2934 -3.24916,-0.78683 -0.81755,0.36246 -1.47057,0.97015 -1.45118,1.35041 0.0194,0.38026 3.54211,4.84654 7.82824,9.92504 13.4662,15.95572 21.68772,27.74263 29.63729,42.49003 5.85345,10.85883 7.45054,14.94978 7.03511,18.02046 -0.45015,3.32737 -3.69051,7.22727 -6.10747,7.35058 -1.05155,0.0536 -2.0918,0.42479 -2.31166,0.82476 -0.7212,1.31202 -4.49118,0.33105 -6.9307,-1.80342 -1.79118,-1.5672 -2.38825,-2.60872 -2.37664,-4.1458 0.0457,-6.05774 -21.81096,-40.75421 -31.9707,-50.75191 -0.89746,-0.88314 -4.30442,-4.50949 -7.57105,-8.05854 -8.58118,-9.32309 -16.73041,-17.61591 -17.33794,-17.64342 -0.28895,-0.0131 0.79156,2.11311 2.40113,4.72489 3.81553,6.19126 8.03909,15.72926 9.65278,21.79871 0.70708,2.65952 1.64328,8.32341 2.08043,12.58644 0.70657,6.89039 0.63399,8.73176 -0.65373,16.58516 -2.03969,12.43939 -6.44429,22.2242 -14.02714,31.16117 -0.75145,0.88563 -1.25439,1.71125 -1.11766,1.83471 0.13674,0.12346 -0.36452,0.30223 -1.1139,0.39729 -1.8971,0.2406 -10.428,6.84659 -9.87512,7.6469 0.27249,0.39443 0.0955,0.45808 -0.4461,0.16038 -0.57432,-0.31569 -1.34154,0.11182 -2.12922,1.18652 -0.67726,0.92402 -1.0549,1.29103 -0.8392,0.81556 0.44721,-0.98579 -0.46025,-1.11225 -1.37597,-0.19175 -2.4983,2.51132 -21.29547,4.81794 -28.50012,3.49728 -1.68786,-0.3094 -3.67934,-0.61115 -4.42551,-0.67056 -3.03247,-0.24147 -20.05185,-5.50494 -28.04548,-8.67345 -2.98005,-1.18123 -5.75448,-1.93213 -6.16539,-1.66867 -0.41091,0.26346 -0.5271,0.21069 -0.25819,-0.11727 0.2689,-0.32797 -3.473,-2.3294 -8.31534,-4.44763 -4.84235,-2.11823 -8.97534,-4.06129 -9.18444,-4.31791 -0.20909,-0.25663 -1.15757,-0.80705 -2.10773,-1.22315 -0.95016,-0.41611 -2.66696,-1.29289 -3.81511,-1.9484 l -2.08756,-1.19183 -5.076914,4.59936 c -5.929734,5.37194 -6.903411,4.44754 8.421814,7.99555 5.64019,1.30579 10.64897,2.6498 11.13062,2.98669 1.08608,0.75966 1.20124,1.84068 0.17737,1.66498 -0.41728,-0.0716 -0.83735,0.53889 -0.93349,1.35666 -0.11934,1.01507 0.24844,1.59778 1.15909,1.83649 1.0801,0.28312 1.27941,0.76299 1.0475,2.52213 -0.15751,1.19488 -0.97843,2.76518 -1.82428,3.48958 -1.9202,1.6445 -1.90513,2.34813 0.0615,2.87205 1.51175,0.40273 1.50635,0.42421 -0.28429,1.13111 -1.00392,0.39631 -1.63976,0.98916 -1.41298,1.31742 0.22677,0.32826 0.12254,0.61163 -0.23164,0.6297 -0.35418,0.0181 -2.89304,2.29528 -5.64192,5.06047 -2.74887,2.76519 -5.83535,5.51627 -6.85882,6.1135 -1.469501,0.8575 -10.985238,8.02315 -14.553582,10.95929 -0.7575,0.62329 -6.18278,3.90768 -10.83229,6.55768 -1.65518,0.94339 -4.36334,2.1524 -6.01813,2.68671 -4.46068,1.44028 -7.42847,-0.11272 -11.42543,-5.97877 -1.69243,-2.48384 -3.36646,-4.50132 -3.72008,-4.48328 -0.35362,0.018 -2.02422,1.92644 -3.71243,4.24089 -1.68822,2.31445 -3.40918,4.60813 -3.82436,5.09709 -0.41518,0.48896 -0.91592,1.50346 -1.11278,2.25444 -0.19686,0.75098 -0.6159,1.37859 -0.93123,1.39468 -0.31531,0.0161 -0.97063,0.17744 -1.45624,0.35856 -0.48561,0.18112 -2.18686,-0.0588 -3.78054,-0.53313 z m 29.02985,-22.01545 c 0.9285,0.4376 2.40927,-0.2875 6.37322,-3.12082 11.33858,-8.10449 17.211664,-12.51808 17.191206,-12.91907 -0.02371,-0.46476 -12.405556,-3.41273 -13.993566,-3.33171 -0.55025,0.0281 -0.82034,0.44293 -0.60482,0.92897 0.55121,1.24305 -4.49844,3.68997 -7.51364,3.6409 -1.34662,-0.0219 -2.95796,-0.45578 -3.58075,-0.96416 -0.6228,-0.50838 -1.44152,-0.90855 -1.81938,-0.88927 -0.37786,0.0193 -1.19987,-1.09732 -1.82669,-2.48131 -1.425,-3.14636 -0.71225,-7.60185 1.80357,-11.27424 0.9242,-1.34908 1.67,-2.6559 1.65734,-2.90407 -0.0525,-1.02924 9.36184,-10.5276 14.08114,-14.2068 6.82838,-5.32346 7.03432,-5.64433 4.61596,-7.19202 -1.07223,-0.6862 -4.64408,-3.41297 -7.93746,-6.05949 -3.29338,-2.64653 -6.29449,-4.80501 -6.66915,-4.79665 -0.37465,0.008 -1.0542,0.68635 -1.51009,1.50663 -0.72574,1.30578 -0.69743,1.4331 0.22747,1.02297 2.7765,-1.2312 0.49471,3.02399 -6.07994,11.33817 -3.12859,3.95635 -10.33812,16.45642 -10.26931,17.80518 0.0453,0.88855 -3.01938,3.58302 -3.95463,3.47687 -2.2094,-0.25075 -4.54189,-1.39669 -6.92641,-3.40291 -2.33468,-1.96426 -2.54574,-2.41656 -2.50537,-5.36884 0.0431,-3.15115 -0.0356,-3.28047 -3.48672,-5.73347 -1.94194,-1.38029 -3.77985,-2.4969 -4.08424,-2.48138 -0.88116,0.0449 -3.83611,4.24917 -3.77862,5.3761 0.0288,0.56292 0.6571,1.7996 1.39639,2.74816 0.73929,0.94857 1.9309,2.8285 2.64803,4.17762 0.71712,1.34913 4.05343,4.82707 7.41403,7.72876 10.76076,9.29135 17.66094,16.01352 22.66118,22.07657 2.68138,3.25132 4.9622,5.64549 5.06848,5.32038 0.10629,-0.32512 0.73753,-0.3346 1.40277,-0.0211 z M 188.49144,293.06405 c 10.46613,-4.49047 17.62963,-13.57668 20.7142,-26.27398 1.48951,-6.13143 0.77011,-17.24576 -1.61004,-24.87412 -2.09428,-6.71214 -6.44353,-15.54749 -7.62371,-15.48728 -0.4256,0.0217 -0.62679,0.41199 -0.4471,0.86729 0.1797,0.4553 -0.13459,1.24711 -0.69841,1.75957 -0.89452,0.81305 -0.83468,0.86876 0.4697,0.4372 3.41029,-1.12828 0.97129,1.18227 -9.34435,8.85225 -11.56551,8.5993 -13.98295,10.66394 -14.56131,12.43626 -0.47987,1.4705 -5.23259,3.36339 -5.66543,2.25639 -0.18847,-0.48202 -0.59554,-0.54063 -1.05359,-0.15168 -0.46646,0.39608 -1.78737,0.0981 -3.52164,-0.7944 -1.52636,-0.78554 -2.47247,-1.45333 -2.10246,-1.48401 0.37,-0.0307 0.23644,-0.30185 -0.29681,-0.60259 -0.53324,-0.30074 -1.41075,-1.64475 -1.95,-2.98669 -2.06742,-5.14475 1.79157,-11.25756 11.22536,-17.78152 5.20092,-3.5967 19.0148,-10.45942 21.28697,-10.57534 1.97207,-0.10061 1.91546,-0.51837 -0.50474,-3.72516 -9.48552,-12.56836 -24.34033,-26.49827 -38.07225,-35.70176 -10.0938,-6.76512 -27.71212,-15.2752 -28.53287,-13.78207 -0.25424,0.46252 -0.0974,0.94225 0.34863,1.06605 0.44599,0.12381 0.65365,0.51118 0.46145,0.86082 -0.19219,0.34963 0.12329,0.61158 0.70108,0.5821 2.7117,-0.13834 0.1241,3.56482 -11.25316,16.10487 -9.32907,10.2825 -10.58383,11.93995 -10.4863,13.85161 0.10324,2.0237 -0.11547,2.25144 -3.2133,3.34603 -3.004166,1.06149 -3.620848,1.08145 -6.40747,0.20735 -1.695865,-0.53195 -3.103738,-1.36613 -3.128614,-1.85373 -0.02488,-0.4876 -0.49962,-1.03484 -1.054988,-1.21607 -0.555368,-0.18123 -1.435735,-1.34283 -1.956372,-2.58133 -0.520637,-1.23848 -1.19325,-2.23922 -1.494688,-2.22384 -0.954643,0.0487 -0.06737,-4.20866 1.602069,-7.68722 1.99309,-4.15294 9.610181,-12.25626 15.551743,-16.54449 2.45623,-1.77275 5.02281,-4.01069 5.70351,-4.97322 0.68069,-0.96253 1.8438,-1.78097 2.58468,-1.81877 0.74087,-0.0378 1.48854,-0.50231 1.66148,-1.03225 0.57516,-1.76255 -17.151665,-5.7404 -27.297744,-6.12555 -2.561618,-0.0972 -5.459458,-0.23359 -6.439648,-0.30302 -0.9802,-0.0694 -3.2451,0.22839 -5.03312,0.66186 -1.78801,0.43344 -4.30537,0.97655 -5.59411,1.20689 -1.28875,0.23035 -3.47147,0.66424 -4.85049,0.9642 -1.97647,0.42991 -2.44141,0.34344 -2.19605,-0.40843 0.22904,-0.7019 -0.31237,-0.92199 -2.05001,-0.83334 -2.28818,0.11674 -2.32324,0.1592 -1.13268,1.37254 0.92008,0.93767 1.01716,1.33829 0.38661,1.59542 -0.46309,0.18884 -2.94505,2.53388 -5.51547,5.21118 -3.6827,3.83585 -5.19814,6.08434 -7.14829,10.60605 -2.76861,6.41945 -4.65153,12.64096 -5.67079,18.73736 -0.48937,2.92703 -0.72932,3.49 -0.84471,1.98186 -0.30859,-4.03301 4.92547,-21.99821 7.78011,-26.70418 0.79773,-1.31509 1.18216,-2.37739 0.85428,-2.36066 -0.64102,0.0327 -4.41657,5.57882 -5.69599,8.36716 -1.21617,2.65053 -4.47274,17.90613 -4.35279,20.39101 0.0654,1.34809 -0.17373,2.07537 -0.60384,1.83894 -1.35164,-0.74297 0.37405,5.30757 2.85158,9.99813 3.1334,5.93225 18.12871,24.03568 27.38225,33.0578 l 2.63383,2.56796 -2.11406,-2.59448 c -8.83416,-10.8417 -15.24909,-24.5356 -17.46366,-37.27953 -1.68493,-9.69608 -0.4061,-18.89564 2.64834,-19.05147 0.49211,-0.0251 1.1179,-0.43705 1.39064,-0.91543 0.27273,-0.47838 0.94774,-0.89283 1.50001,-0.921 0.58866,-0.03 1.10633,-0.89502 1.25114,-2.09059 0.22588,-1.86483 0.57481,-2.1225 2.60422,-1.92316 0.37345,0.0367 0.72351,0.93938 0.77793,2.006 0.0598,1.1714 0.64542,2.27844 1.47907,2.79578 1.23784,0.76816 1.32206,1.17287 0.81684,3.92533 -0.64797,3.53022 0.14813,9.87359 2.02193,16.11087 2.34921,7.8197 9.58857,20.67368 11.99933,21.3056 0.67748,0.17758 3.23801,1.26673 5.69007,2.42032 l 4.458291,2.09745 -2.840411,0.60408 c -1.56223,0.33224 -2.82917,0.82456 -2.81542,1.09403 0.0292,0.57183 5.764753,5.47681 11.30247,9.6657 7.780242,5.88522 21.183082,12.88421 25.258592,13.1901 1.15527,0.0867 2.21897,0.46065 2.36377,0.83099 0.1448,0.37034 0.55912,0.65826 0.92072,0.63981 0.3616,-0.0184 0.44612,-0.40278 0.18782,-0.85406 -0.25829,-0.45129 -0.008,-0.31207 0.55709,0.30936 0.56468,0.62144 1.22069,1.12 1.45778,1.10791 0.7846,-0.04 0.3846,-1.25773 -0.74952,-2.28174 -1.01688,-0.91816 -0.98204,-0.99477 0.38959,-0.85649 1.78203,0.17964 3.42815,2.00688 3.55731,3.9487 0.0862,1.29559 0.14682,1.30614 0.9272,0.16137 1.10791,-1.62524 2.35468,-1.62286 2.43771,0.005 0.0975,1.91033 1.32067,2.28074 1.57295,0.47634 0.18648,-1.3337 0.24054,-1.29236 0.40178,0.30727 0.20286,2.01265 1.52269,2.51985 1.55196,0.59641 0.0171,-1.12686 0.0355,-1.12779 0.38633,-0.0197 0.20257,0.63991 0.62707,1.15028 0.94333,1.13414 0.31625,-0.0161 0.68661,-0.56705 0.82301,-1.22426 0.18662,-0.8992 0.28649,-0.8207 0.40351,0.31721 0.1841,1.79006 1.29798,1.96095 1.65235,0.25349 0.17717,-0.85365 0.29362,-0.73948 0.40773,0.39971 0.1367,1.36445 0.3047,1.46128 1.16408,0.67074 0.81298,-0.74785 0.97342,-0.75713 0.84201,-0.0484 -0.39963,2.15424 17.07196,4.95641 29.95842,4.80485 5.98202,-0.0704 7.17313,0.11064 8.58049,1.3038 3.24866,2.75422 4.23583,9.7741 1.49648,10.64179 -0.73831,0.23385 -1.10474,0.7831 -0.87225,1.30741 0.23966,0.54044 -0.0638,0.9493 -0.75441,1.01641 -0.70129,0.0681 -0.81751,0.22896 -0.29572,0.40918 1.33093,0.45968 1.07439,1.52451 -0.38523,1.59898 -0.71935,0.0367 -1.47824,0.37661 -1.68642,0.75535 -0.4559,0.82937 -3.70207,0.97396 -13.14789,0.58563 -10.84993,-0.44608 -12.84645,-0.73066 -28.92265,-4.12252 -3.38053,-0.71325 -6.36669,-1.14522 -6.63591,-0.95994 -0.26923,0.18529 -0.50778,-0.0214 -0.53012,-0.45922 -0.0296,-0.58043 -0.31271,-0.54581 -1.04497,0.1278 -0.55241,0.50814 -0.96557,0.64245 -0.91815,0.29846 0.19824,-1.43815 -0.19369,-1.73757 -1.13772,-0.86916 -0.83044,0.76392 -0.97706,0.75648 -0.84667,-0.043 0.10604,-0.65027 -0.43284,-0.92927 -1.64563,-0.85203 -0.99183,0.0632 -1.76444,-0.18338 -1.71692,-0.54787 0.16159,-1.23939 -2.39394,-1.07763 -3.80238,0.24068 l -1.40282,1.31276 1.17046,-1.53772 1.17047,-1.53773 -4.76133,-2.10088 c -3.84904,-1.69833 -5.00719,-1.948 -6.04449,-1.30301 -1.1865,0.73779 -1.21181,0.70008 -0.33602,-0.5006 0.87833,-1.20415 0.83366,-1.26297 -0.61481,-0.80963 -0.85908,0.26888 -1.39484,0.30379 -1.1906,0.0776 0.64767,-0.71732 -2.67918,-2.85001 -3.86158,-2.47549 -0.80979,0.25651 -1.03327,0.053 -0.78324,-0.71313 0.26076,-0.79908 0.0596,-0.94334 -0.79013,-0.56655 -0.67836,0.3008 -0.98702,0.22726 -0.76226,-0.18162 0.20773,-0.37791 0.0745,-0.67165 -0.29614,-0.65273 -0.37061,0.0189 -0.874216,0.39892 -1.119136,0.84449 -0.573981,1.0442 1.586836,2.62281 12.352216,9.02407 18.33593,10.90282 39.25187,19.03819 54.45166,21.17927 2.05844,0.28995 4.356,0.6324 5.10571,0.761 2.95015,0.50604 13.51223,-1.14636 17.06166,-2.66924 z m -50.24909,-45.32071 c -3.59805,-1.33529 -11.37221,-4.09352 -17.27593,-6.12938 -12.8639,-4.43608 -13.07857,-4.53285 -16.27898,-7.33859 -2.43729,-2.13672 -3.35659,-4.11144 -4.51462,-9.69767 -0.454134,-2.19071 -0.243016,-2.88277 1.59663,-5.23386 1.16598,-1.49013 2.68765,-3.50018 3.38147,-4.46676 0.69383,-0.96658 1.50946,-1.62757 1.81251,-1.46885 0.30306,0.15871 1.0076,-0.13144 1.56565,-0.64479 3.33629,-3.06903 10.71636,-4.30081 12.82924,-2.14129 1.4544,1.4865 1.73911,2.32805 2.03835,6.02501 0.13118,1.62057 0.60887,2.97524 1.10648,3.13773 0.54815,0.17899 0.7545,0.89965 0.55171,1.92677 -0.3006,1.52249 0.0806,1.77213 5.28457,3.46095 3.0847,1.00105 6.02373,1.79892 6.53118,1.77303 0.52202,-0.0266 1.02164,-1.0055 1.15064,-2.25436 0.99753,-9.65742 1.36134,-12.33282 2.28385,-16.79556 0.57743,-2.79333 0.98317,-6.38618 0.90165,-7.98411 -0.13519,-2.6498 -7e-5,-2.91289 1.53635,-2.99127 0.92651,-0.0473 1.63706,-0.31153 1.57899,-0.58725 -0.5269,-2.50181 2.08833,-3.20465 3.45934,-0.9297 0.46385,0.76968 1.0245,1.12109 1.24589,0.78092 0.22138,-0.34017 0.85735,-0.6417 1.41326,-0.67006 0.70528,-0.036 1.02923,-0.90955 1.07191,-2.89047 0.045,-2.08744 0.3128,-2.75681 1.01176,-2.52871 0.63762,0.20807 1.19337,2.05864 1.68805,5.62089 0.40562,2.92089 1.00155,5.29723 1.32431,5.28076 0.32275,-0.0165 0.56052,-0.54542 0.52838,-1.17544 -0.0383,-0.75055 0.18161,-0.92876 0.6378,-0.51686 0.69532,0.62781 0.24088,6.93138 -1.36468,18.92983 -0.4005,2.993 -0.7741,8.56029 -0.83022,12.37176 -0.0561,3.81146 -0.29138,6.9396 -0.52281,6.95141 -0.23143,0.0118 -0.24323,1.22846 -0.0262,2.70367 0.21752,1.47868 0.0982,2.69733 -0.26582,2.7159 -0.36321,0.0186 -0.78853,0.87627 -0.94515,1.90608 -0.46688,3.06984 -1.71071,4.27643 -4.94838,4.80025 -2.48876,0.40265 -4.15748,0.064 -9.55715,-1.93998 z M 92.444703,230.57106 c -0.255557,-0.36992 0.0092,-0.49668 0.62055,-0.29717 1.190211,0.3884 1.428436,0.86048 0.459178,0.90993 -0.348734,0.0178 -0.834617,-0.25795 -1.079728,-0.61276 z m -27.661225,44.30307 c 1.27858,-2.60839 -1.27322,0.27566 -3.66871,4.1464 l -2.21891,3.5854 2.60416,-3.17299 c 1.4323,-1.74514 2.90985,-3.7966 3.28346,-4.55881 z m 34.178665,-11.24412 c 0.08704,-0.3528 -2.586454,-2.47733 -5.941107,-4.7212 -3.354646,-2.24387 -7.523628,-5.18142 -9.264388,-6.52789 -1.74077,-1.34648 0.63309,0.89522 5.275216,4.98155 7.823775,6.88704 9.514202,7.95395 9.930279,6.26754 z m 29.712327,-8.5778 c -0.23345,-0.73703 -0.75264,-1.52045 -1.15375,-1.74093 -0.4586,-0.25209 -0.53947,0.0272 -0.21786,0.75248 0.2813,0.63435 0.52565,1.43179 0.54301,1.77208 0.0174,0.3403 0.3064,0.6047 0.64231,0.58757 0.33592,-0.0171 0.41974,-0.63418 0.18629,-1.3712 z m 95.11825,-7.71345 c -0.21056,-0.45373 -0.34416,-0.0669 -0.29689,0.85962 0.0473,0.92652 0.21955,1.29775 0.38284,0.82495 0.16329,-0.47279 0.12462,-1.23085 -0.0859,-1.68457 z m 96.99985,-31.60404 c -0.51453,-0.46457 -2.38367,0.77243 -2.00199,1.32492 0.22198,0.32132 0.007,0.60911 -0.47794,0.63953 -1.49753,0.094 -2.70653,1.2862 -2.13833,2.10868 0.37593,0.54417 1.19782,0.0766 2.7004,-1.53612 1.18799,-1.27511 2.05103,-2.41677 1.91786,-2.53701 z M 87.285788,228.86094 c -0.57195,-0.28613 -1.80822,-0.68252 -2.74727,-0.88085 l -1.70736,-0.36059 1.73636,0.92904 c 0.955,0.51096 2.19127,0.90735 2.74728,0.88086 0.898572,-0.0431 0.895364,-0.10601 -0.029,-0.56846 z M 206.15526,206.38258 c -2.23065,-2.96827 -4.74603,-6.12167 -5.58972,-7.00755 l -1.53399,-1.6107 1.1485,1.63036 c 3.87439,5.4999 9.58404,12.87971 9.7891,12.65259 0.13301,-0.14731 -1.58324,-2.69643 -3.81389,-5.6647 z m 81.09071,-8.44509 c 6.90766,-2.17107 10.28897,-6.12364 9.993,-11.6813 -0.148,-2.78186 -2.95661,-9.2747 -4.34089,-10.03561 -0.33751,-0.18552 -2.33166,1.56239 -4.43146,3.88425 -3.54293,3.91763 -6.42624,6.42501 -17.92915,15.59155 -2.40877,1.91954 -4.16833,3.68082 -3.91012,3.91396 0.96792,0.87395 16.53365,-0.38894 20.61862,-1.67285 z m -55.65329,-0.81555 c 1.61414,-1.13565 5.59306,-3.59069 8.84205,-5.45563 5.9457,-3.41288 24.70476,-15.06128 29.35836,-18.23002 1.37639,-0.93721 4.08246,-3.33132 6.01348,-5.32024 l 3.51095,-3.61621 -2.20363,-2.13023 -2.20362,-2.13022 -2.75058,1.7291 c -4.60814,2.89682 -19.09416,13.54382 -25.17837,18.50572 -3.15782,2.57531 -6.79781,5.18842 -8.08888,5.80691 -2.75372,1.31919 -7.76409,1.73943 -7.81938,0.65585 -0.0209,-0.41026 -0.428,-0.57301 -0.90459,-0.36167 -1.31136,0.5815 -3.53175,-1.4048 -4.61121,-4.12506 -1.77253,-4.46682 -0.66454,-12.07608 4.02903,-27.66907 0.94464,-3.13828 1.59239,-5.81895 1.43945,-5.95705 -0.70684,-0.63821 -13.88953,11.47419 -20.17367,18.5358 -3.84905,4.32526 -7.24003,7.87644 -7.53551,7.89152 -0.29546,0.015 -0.50929,0.23715 -0.47517,0.49349 0.0802,0.60204 24.99155,23.60726 25.46132,23.51307 0.19535,-0.0391 1.67584,-1.0004 3.28997,-2.13606 z M 193.31255,165.344 c -0.41372,-2.21931 -0.14597,-3.1961 1.73733,-6.33779 1.22453,-2.04278 4.46114,-6.15839 7.19244,-9.14582 3.86207,-4.22421 4.71768,-5.51274 3.84891,-5.79625 -0.64614,-0.21085 -1.57829,0.16854 -2.21095,0.89984 -3.79772,4.38994 -7.9622,10.21604 -9.52763,13.32914 -1.00127,1.99118 -2.4784,4.32156 -3.28252,5.1786 l -1.46202,1.55825 1.83851,1.46067 c 1.01117,0.80337 1.95473,1.46435 2.09677,1.46884 0.14205,0.005 0.0382,-1.17248 -0.23084,-2.61548 z m -15.75412,-14.61952 c 1.13721,-3.54844 4.72863,-9.83704 7.92181,-13.8712 1.89648,-2.39595 1.93893,-2.58593 0.72014,-3.22297 -0.71233,-0.37231 -3.14984,-1.8803 -5.41671,-3.35108 -4.78863,-3.10692 -3.32887,-3.54915 -15.01482,4.54875 l -7.97911,5.52923 2.60186,1.92391 c 1.43102,1.05815 5.45695,4.1234 8.94651,6.81167 3.48956,2.68828 6.53143,4.88918 6.75972,4.89091 0.22829,0.002 0.88556,-1.46492 1.4606,-3.25922 z m -29.70988,-19.25847 c -0.0284,-0.55591 -0.36546,-0.99473 -0.7491,-0.97516 -0.47515,0.0242 -0.501,-0.38144 -0.0811,-1.27246 0.5042,-1.06982 0.34611,-1.36421 -0.86802,-1.6164 -0.81648,-0.1696 -1.84987,0.0277 -2.29644,0.43853 -0.44656,0.4108 -1.21443,0.56723 -1.70638,0.34763 -0.49194,-0.21961 0.37349,0.61759 1.92318,1.86042 3.10411,2.48946 3.85507,2.73146 3.77782,1.21744 z m 59.38253,-15.69678 c 2.81126,-2.46575 4.80567,-4.56864 4.43203,-4.6731 -0.76165,-0.21294 -8.08914,2.5389 -12.53842,4.7088 l -2.91248,1.42042 2.38637,1.50934 c 1.31251,0.83014 2.64169,1.51123 2.95375,1.51353 0.31205,0.002 2.86749,-2.01325 5.67875,-4.47899 z m -86.87545,-0.12798 c -0.7086,-0.70699 -1.61989,-1.25841 -2.02508,-1.22538 -0.40518,0.0331 0.01,0.6199 0.92167,1.30415 2.14522,1.6093 2.75192,1.56599 1.10341,-0.0788 z M 139.1703,89.321688 c 1.86904,-0.96758 2.94371,-1.73026 2.38816,-1.69487 -0.55556,0.0354 -2.78428,1.04237 -4.95272,2.2377 -4.55741,2.51222 -2.49258,2.07517 2.56456,-0.54283 z M 86.294768,63.838928 c -0.0122,-0.27806 -0.48478,-0.48195 -1.04986,-0.45312 -0.97829,0.0499 -2.23885,2.67469 -2.1004,4.37353 0.0683,0.83785 3.18907,-3.04589 3.15026,-3.92041 z m -57.13422,-0.23115 c 0.19053,-0.34663 -0.25233,-0.44059 -0.98416,-0.20878 -1.55239,0.49172 -1.72792,0.95973 -0.33326,0.88858 0.53404,-0.0273 1.12687,-0.33316 1.31742,-0.6798 z m 37.99484,-32.24702 c -2.39984,-4.16512 -5.05438,-6.58864 -9.24942,-8.44447 -4.8362,-2.13948 -11.12229,-3.67061 -13.4157,-3.26772 -1.39521,0.24509 0.25092,1.33777 8.6946,5.77134 5.7286,3.00796 11.46047,6.25802 12.73748,7.22237 1.277,0.96435 2.41406,1.65577 2.52679,1.53649 0.11273,-0.11929 -0.46946,-1.38739 -1.29375,-2.81801 z M 200.31128,305.67032 c 0.35236,-0.37655 2.25085,-1.89751 4.21886,-3.37991 2.5864,-1.94822 3.012,-2.14353 1.53547,-0.70466 -1.90664,1.85799 -7.16065,5.58742 -5.75433,4.08457 z m 73.09975,-70.15227 c -0.0189,-0.37061 0.26885,-0.6893 0.63946,-0.70821 0.37061,-0.0189 0.6893,0.26885 0.7082,0.63946 0.0189,0.3706 -0.26884,0.6893 -0.63945,0.7082 -0.3706,0.0189 -0.6893,-0.26884 -0.70821,-0.63945 z M 88.514172,35.906988 c -0.229964,-0.5186 -0.341081,-1.65298 -0.24693,-2.52084 0.125941,-1.16083 0.29534,-0.9146 0.640878,0.93155 0.486279,2.59811 0.331068,3.22428 -0.393948,1.58929 z"
     id="path2818" />
</svg>
