<?xml version="1.0" encoding="UTF-8" standalone="no"?>
<!-- Created with Inkscape (http://www.inkscape.org/) -->

<svg
   xmlns:dc="http://purl.org/dc/elements/1.1/"
   xmlns:cc="http://creativecommons.org/ns#"
   xmlns:rdf="http://www.w3.org/1999/02/22-rdf-syntax-ns#"
   xmlns:svg="http://www.w3.org/2000/svg"
   xmlns="http://www.w3.org/2000/svg"
   xmlns:sodipodi="http://sodipodi.sourceforge.net/DTD/sodipodi-0.dtd"
   xmlns:inkscape="http://www.inkscape.org/namespaces/inkscape"
   id="svg2"
   version="1.1"
   inkscape:version="0.47 r22583"
   width="354.33072"
   height="86.108345"
   sodipodi:docname="beef.png">
  <metadata
     id="metadata8">
    <rdf:RDF>
      <cc:Work
         rdf:about="">
        <dc:format>image/svg+xml</dc:format>
        <dc:type
           rdf:resource="http://purl.org/dc/dcmitype/StillImage" />
        <dc:title></dc:title>
      </cc:Work>
    </rdf:RDF>
  </metadata>
  <defs
     id="defs6">
    <inkscape:perspective
       sodipodi:type="inkscape:persp3d"
       inkscape:vp_x="0 : 0.5 : 1"
       inkscape:vp_y="0 : 1000 : 0"
       inkscape:vp_z="1 : 0.5 : 1"
       inkscape:persp3d-origin="0.5 : 0.33333333 : 1"
       id="perspective10" />
  </defs>
  <sodipodi:namedview
     pagecolor="#ffffff"
     bordercolor="#666666"
     borderopacity="1"
     objecttolerance="10"
     gridtolerance="10"
     guidetolerance="10"
     inkscape:pageopacity="0"
     inkscape:pageshadow="2"
     inkscape:window-width="1187"
     inkscape:window-height="808"
     id="namedview4"
     showgrid="false"
     inkscape:zoom="0.94594595"
     inkscape:cx="148.7098"
     inkscape:cy="33.494304"
     inkscape:window-x="0"
     inkscape:window-y="0"
     inkscape:window-maximized="0"
     inkscape:current-layer="svg2" />
  <path
     style="fill:#545454"
     d="m 56.521616,85.215436 c -1.016406,-0.775476 -1.05186,-0.977104 -0.266437,-1.515304 0.498289,-0.341439 1.585463,-0.765075 2.415944,-0.941408 0.83048,-0.176334 2.325345,-0.771937 3.321922,-1.323563 0.996577,-0.551626 5.060629,-2.686119 9.03122,-4.743325 l 7.219268,-3.740363 -5.407311,-5.368499 C 61.349776,56.178964 50.522943,46.246871 49.578049,46.246871 c -0.543106,0 -1.481231,0.545607 -2.084725,1.21246 -1.338372,1.478884 -3.932751,2.843194 -7.545762,3.968099 -4.487395,1.397143 -5.475495,1.108485 -2.707146,-0.790849 1.322834,-0.907581 2.676947,-1.667368 3.009139,-1.688415 0.332193,-0.02105 0.541991,-0.347795 0.466218,-0.726108 -0.07577,-0.378313 1.079351,-1.759193 2.56694,-3.068621 1.48759,-1.309429 2.704708,-2.715335 2.704708,-3.124236 0,-0.412707 0.403053,-0.588791 0.905979,-0.3958 0.551869,0.211772 0.905979,9.67e-4 0.905979,-0.539366 0,-1.076619 -0.2773,-1.101278 -1.786366,-0.15885 -0.938076,0.585838 -1.3792,0.549549 -2.256752,-0.185654 -1.377801,-1.154304 -9.373942,-4.981587 -12.566494,-6.014842 -1.328769,-0.43005 -4.615215,-0.801623 -7.303213,-0.825719 -4.525269,-0.04056 -5.230061,0.130177 -9.515207,2.305126 -2.545366,1.291915 -5.2706228,2.944556 -6.0561258,3.672536 -1.896767,1.757864 -6.581502,4.045702 -6.995963,3.416549 -0.180832,-0.274503 -0.71836,-0.62441 -1.194507,-0.777571 -0.553905,-0.178172 0.751364,-1.561315 3.623915,-3.84012 2.469301,-1.958905 4.580452,-3.77755 4.691447,-4.041433 0.28452,-0.676425 6.4370048,-4.704804 7.1855788,-4.704804 0.340181,0 0.906492,-0.346996 1.258469,-0.771101 0.351976,-0.424106 1.316613,-0.827103 2.143638,-0.89555 0.827024,-0.06845 2.814621,-0.884675 4.416881,-1.81384 1.60226,-0.929169 5.087549,-2.767049 7.745087,-4.084186 2.657538,-1.317136 4.967784,-2.558206 5.13388,-2.757932 0.166096,-0.199732 1.049426,-0.54607 1.962954,-0.769641 0.987138,-0.241588 1.678183,-0.830626 1.703413,-1.451964 0.03716,-0.915274 0.09831,-0.90314 0.491028,0.09742 0.419948,1.069943 0.523245,1.046363 1.61851,-0.369452 1.837571,-2.375368 14.303314,-6.806589 18.685521,-6.642178 1.530422,0.05744 1.624269,-0.01437 0.603986,-0.462103 -0.975503,-0.4280753 -0.743041,-0.5520253 1.207972,-0.6441029 1.328769,-0.062706 2.755686,-0.069893 3.170926,-0.015945 0.41524,0.053936 0.754982,-0.2154055 0.754982,-0.5985016 0,-0.4376844 0.769865,-0.6066616 2.071581,-0.4546987 1.139371,0.1330158 1.938716,0.026877 1.776317,-0.2359109 -0.1624,-0.262764 1.309405,-0.4777588 3.27068,-0.4777588 2.687574,0 3.812171,0.2720714 4.565535,1.1045331 1.607134,1.7758638 1.227227,4.9303548 -1.049021,8.7104428 -1.126741,1.87113 -1.874174,3.576502 -1.660961,3.789709 0.213207,0.213213 0.07176,0.297058 -0.314326,0.186324 -0.386086,-0.110729 -2.560435,1.986545 -4.831887,4.660612 -2.271452,2.674066 -5.040782,5.749504 -6.154061,6.834307 -1.113285,1.084803 -1.894504,2.10202 -1.736042,2.260483 0.158461,0.158462 1.795728,-0.378625 3.638362,-1.193526 1.84264,-0.814901 3.480729,-1.351158 3.640205,-1.191682 0.159476,0.159477 1.471533,-0.244424 2.915688,-0.897557 1.444148,-0.653132 3.577003,-1.333015 4.739676,-1.510849 1.162673,-0.177834 2.793435,-0.488274 3.623915,-0.689865 0.830482,-0.201592 4.791802,-0.405333 8.802952,-0.452758 6.11917,-0.07235 7.99051,0.138057 11.626728,1.307257 2.59802,0.835375 4.33374,1.726006 4.33374,2.223723 0,0.456631 -0.24399,0.830239 -0.54219,0.830239 -0.2982,0 1.33121,1.949206 3.62091,4.331569 2.28971,2.382363 4.2324,4.21697 4.3171,4.076905 0.0847,-0.140066 0.66425,-1.205942 1.28789,-2.368615 0.62363,-1.162673 1.89275,-3.089982 2.82025,-4.282909 1.65446,-2.127909 7.57868,-13.962853 10.23399,-20.444642 1.39777,-3.412079 1.38075,-7.7406223 -0.0371,-9.4491051 -0.45061,-0.5429531 -0.45513,-1.1322802 -0.015,-1.9546734 0.73614,-1.3754812 5.31283,-3.91473448 6.13736,-3.40515158 0.31027,0.1917836 0.56416,1.80919738 0.56416,3.59426558 0,2.7151219 0.19743,3.308236 1.20797,3.6289706 0.66438,0.2108696 1.21701,0.8407182 1.22806,1.3996709 0.0248,1.2551249 1.55353,3.084357 3.77407,4.515978 0.92411,0.59579 1.54022,1.309749 1.36914,1.586574 -0.36149,0.5849 6.63286,5.253149 10.38934,6.934175 1.41181,0.631787 2.56694,1.531152 2.56694,1.998595 0,0.467443 0.22639,0.709979 0.50309,0.538967 0.51956,-0.321109 4.93278,2.417554 4.93278,3.061085 0,0.436242 -2.94608,3.218412 -3.40803,3.218412 -0.17922,0 -1.36444,-0.88333 -2.63382,-1.962954 -1.26939,-1.079625 -3.35104,-2.494836 -4.62591,-3.144913 -4.62788,-2.35984 -10.68815,-6.504143 -13.76143,-9.410722 l -3.14239,-2.971937 -1.01186,2.121911 c -0.55653,1.167052 -1.01187,2.399394 -1.01187,2.738538 0,0.339151 -0.51544,1.756844 -1.1454,3.150439 -0.62998,1.393589 -1.88143,4.300458 -2.781,6.459708 -0.89957,2.15925 -1.92174,4.277042 -2.27148,4.706204 -0.34974,0.429163 -1.22269,1.924028 -1.93989,3.321922 -0.71719,1.397895 -1.81962,3.492905 -2.44984,4.655578 -1.67423,3.088775 -2.71933,6.262223 -2.22503,6.756332 0.23701,0.236918 2.06169,-0.604306 4.05485,-1.869385 1.99315,-1.265078 4.30235,-2.514034 5.13156,-2.775456 0.8292,-0.261422 1.78048,-0.802474 2.11395,-1.202337 0.79758,-0.956387 7.22219,-2.889781 9.85054,-2.964378 2.83954,-0.08059 3.65597,1.268931 2.59739,4.293394 -0.83607,2.388719 -4.15028,8.048627 -5.10435,8.717044 -0.3026,0.212004 -0.36343,0.687643 -0.13517,1.056976 0.22826,0.369332 0.1455,0.671513 -0.18391,0.671513 -0.32941,0 -0.77146,0.543587 -0.98233,1.207972 -0.21087,0.664384 -0.76424,1.207972 -1.22971,1.207972 -0.46548,0 -0.70986,0.355616 -0.54307,0.790257 0.16679,0.434641 -0.24944,1.427506 -0.92494,2.206366 -0.6755,0.77886 -1.22818,1.675147 -1.22818,1.99175 0,0.316604 -0.66342,1.097485 -1.47427,1.7353 -0.81084,0.637809 -1.66208,1.75142 -1.89164,2.474699 -0.22956,0.723273 -0.78921,1.686872 -1.24367,2.141336 -0.8041,0.804092 -1.14985,2.551967 -0.50482,2.551967 0.17681,0 2.41911,-0.797388 4.98288,-1.771974 2.56378,-0.974586 5.88448,-2.074474 7.37935,-2.444192 1.49486,-0.369724 3.39742,-0.924195 4.2279,-1.232155 0.83048,-0.307967 2.18945,-0.687934 3.01993,-0.844373 0.83048,-0.156438 3.41252,-0.68887 5.73786,-1.183172 2.32535,-0.494308 6.742,-1.087965 9.81477,-1.319238 3.07278,-0.231272 5.58687,-0.644175 5.58687,-0.917559 0,-0.273386 -1.19178,-1.317035 -2.64841,-2.31922 -3.67456,-2.528165 -6.13147,-5.508551 -5.09061,-6.175229 0.99807,-0.63927 4.71909,-0.446056 4.71909,0.245038 0,0.820699 6.14488,6.486342 7.035,6.486342 0.44362,0 1.14606,0.543587 1.56097,1.207972 0.41492,0.664384 0.97496,1.207972 1.24453,1.207972 0.65864,0 10.24795,4.781526 10.94122,5.455629 0.67691,0.6582 -0.64331,2.352501 -2.33918,3.001955 -0.87682,0.335792 -1.77982,0.05684 -3.1516,-0.973541 -1.05745,-0.794302 -2.33243,-1.444185 -2.83328,-1.444185 -0.50085,0 -1.08135,-0.276227 -1.29001,-0.613837 -0.20865,-0.337609 -0.60044,-0.477209 -0.87063,-0.310225 -0.27019,0.16699 -1.17954,-0.237783 -2.02076,-0.899486 -1.12077,-0.881596 -1.61167,-1.000454 -1.83697,-0.444763 -0.24445,0.602923 -0.42,0.598816 -0.85655,-0.02005 -0.39643,-0.561991 -0.96895,-0.61876 -2.05935,-0.20419 -0.83065,0.315812 -1.81029,0.38878 -2.17698,0.162152 -0.80949,-0.500293 -2.6231,-0.384473 -12.21815,0.78029 -0.83048,0.100817 -1.91766,0.332893 -2.41595,0.515719 -0.49828,0.182833 -1.58546,0.474661 -2.41594,0.648512 -0.83048,0.173845 -3.27662,0.759669 -5.43587,1.301825 -2.15925,0.542162 -4.40155,1.023798 -4.98289,1.070299 -0.58133,0.04651 -1.05697,0.298103 -1.05697,0.559116 0,0.261006 -0.54913,0.474558 -1.22028,0.474558 -0.67116,0 -3.50086,1.07838 -6.28823,2.396404 -4.83318,2.285398 -5.15142,2.35476 -6.86997,1.497432 -3.44594,-1.719058 -3.49862,-2.210189 -0.77812,-7.253828 l 2.48086,-4.599346 -2.57092,0.426963 c -2.73575,0.454337 -3.74672,0.639495 -7.10082,1.300497 -1.16267,0.229134 -2.52164,0.436446 -3.01993,0.460702 -1.50659,0.07332 -8.12596,2.376751 -8.54584,2.973797 -0.21562,0.306601 -0.82715,0.390483 -1.35897,0.186408 -0.53181,-0.204063 -0.96693,-0.107769 -0.96693,0.213992 0,0.321768 -0.535218,0.585033 -1.189378,0.585033 -1.03133,0 -3.70855,1.108767 -7.40923,3.06852 -0.57683,0.305466 -2.00374,0.555395 -3.17092,0.555395 -2.68789,0 -2.68833,0.782971 -0.002,4.161904 1.15945,1.458566 2.10809,3.021379 2.10809,3.472919 0,0.952316 -2.13156,3.236923 -3.02008,3.236923 -0.33227,0 -2.05755,-1.465082 -3.83395,-3.255743 -2.67542,-2.696882 -3.504807,-3.203179 -4.831746,-2.949517 -0.880968,0.168421 -1.601831,0.546329 -1.601831,0.8398 0,0.293465 -0.423732,0.533573 -0.941626,0.533573 -0.565132,0 -0.767008,0.282533 -0.504902,0.706627 0.294824,0.477035 0.10571,0.579609 -0.582043,0.315692 -0.611173,-0.234528 -1.461241,0.05158 -2.124756,0.715065 -1.156832,1.156832 -4.692403,3.094503 -5.646386,3.094503 -0.30488,0 -0.962023,0.407691 -1.460311,0.905979 -0.807831,0.807831 -2.58146,1.223585 -4.064716,0.952806 -0.289902,-0.05291 -0.359559,0.340352 -0.154796,0.873949 0.294093,0.766392 0.103469,0.884852 -0.907519,0.563978 -0.860662,-0.273165 -1.144457,-0.187193 -0.866532,0.262498 0.62199,1.006404 -2.238312,0.827962 -3.619482,-0.225812 z M 87.795542,68.353564 c 7.74505,-3.518762 18.442998,-6.62456 28.254238,-8.202696 2.15925,-0.34731 4.79506,-0.773618 5.85735,-0.947344 l 1.93145,-0.315864 -2.03209,-2.092493 c -1.11765,-1.150872 -2.46244,-2.092493 -2.98842,-2.092493 -0.52598,0 -0.95633,-0.234034 -0.95633,-0.520074 0,-0.286041 -1.06019,-0.237095 -2.35596,0.108768 -1.95912,0.52292 -2.63248,0.447661 -3.99759,-0.4468 -1.45555,-0.953707 -1.60914,-1.363954 -1.35497,-3.619 0.22951,-2.036197 0.004,-2.897236 -1.13329,-4.318004 -0.78097,-0.976054 -1.4213,-2.250282 -1.42295,-2.831619 -0.002,-0.581336 -0.41069,-1.056975 -0.90898,-1.056975 -0.49829,0 -0.90598,-0.342725 -0.90598,-0.761612 0,-0.418887 -0.8438,-1.438113 -1.87511,-2.264947 -1.0313,-0.826834 -2.18642,-1.785441 -2.56694,-2.130236 -1.2421,-1.125521 -4.849388,-2.556569 -8.416658,-3.33898 -7.36451,-1.615262 -21.627242,1.240654 -31.812992,6.370113 -4.366244,2.198807 -5.035418,2.96207 -3.19418,3.64329 0.581337,0.215081 6.764642,6.185122 13.740679,13.266755 6.976037,7.081633 12.743593,12.903435 12.816793,12.937331 0.0732,0.03388 1.56808,-0.590306 3.32193,-1.38712 z m 41.698508,-15.59559 c 2.54194,-4.094221 4.72604,-9.176303 4.04923,-9.421972 -0.29233,-0.106113 -2.45451,0.981062 -4.80484,2.415943 -2.35033,1.434882 -4.8078,2.877172 -5.46106,3.205088 -0.65326,0.327917 -1.18774,0.995941 -1.18774,1.4845 0,0.930082 4.11654,5.469112 4.96004,5.469112 0.26785,0 1.36782,-1.418702 2.44437,-3.152671 z M 46.932008,39.031083 c 0.477054,0.395919 0.867371,0.512691 0.867371,0.259494 0,-0.253198 -0.475639,-0.85022 -1.056975,-1.326717 -0.581337,-0.476496 -0.717234,-0.694264 -0.301993,-0.483928 0.41524,0.210335 0.754982,0.06448 0.754982,-0.324116 0,-0.388598 0.49251,-0.09832 1.094467,0.645067 1.523888,1.881924 2.683723,1.352705 7.966896,-3.635214 2.462124,-2.324529 4.57959,-4.226416 4.705472,-4.226416 0.626032,0 4.352739,-3.992174 4.352739,-4.662796 0,-0.425194 0.407691,-0.773078 0.905979,-0.773078 0.498289,0 0.905979,-0.264642 0.905979,-0.588089 0,-0.323452 1.202693,-1.790788 2.672656,-3.260751 2.843813,-2.843813 4.345388,-6.493633 3.362884,-8.174042 -0.309615,-0.529551 -0.571201,-0.725689 -0.5813,-0.435867 -0.01009,0.289817 -0.427863,0.187091 -0.92835,-0.228276 -1.663788,-1.380827 -10.84049,0.586162 -22.645464,4.85395 -2.823634,1.020815 -5.758395,1.955284 -6.52169,2.076594 -0.763295,0.121317 -1.75373,0.52426 -2.200966,0.895434 -0.447236,0.371173 -2.404761,1.480236 -4.350056,2.464588 -1.945295,0.984352 -3.944591,2.043701 -4.442879,2.354108 -0.498288,0.310406 -2.672637,1.4005 -4.831887,2.422431 -2.159249,1.021931 -4.877186,2.663822 -6.039859,3.648648 l -2.11395,1.790593 3.472919,0.01625 c 2.307528,0.0108 3.472918,-0.226964 3.472918,-0.708535 0,-0.56372 0.161063,-0.56372 0.724783,0 0.398631,0.398631 1.553754,0.720621 2.56694,0.715534 1.247258,-0.0063 1.580412,-0.175144 1.031638,-0.522958 -0.591865,-0.375127 -0.388324,-0.594418 0.7545,-0.812882 1.105396,-0.21131 2.496412,0.30571 4.736427,1.760459 1.943455,1.262152 3.690517,1.96505 4.512099,1.815359 0.737379,-0.13435 1.207302,-0.02844 1.044272,0.235343 -0.16303,0.263788 0.09768,0.700164 0.579361,0.969726 0.481678,0.26956 0.895085,0.761904 0.918682,1.094096 0.0236,0.332192 0.382645,0.610542 0.797885,0.618556 0.415241,0.008 0.718441,0.476406 0.673779,1.040874 -0.06609,0.835286 0.137822,0.909085 1.095584,0.396506 0.843275,-0.451307 1.422607,-0.425785 2.044157,0.09006 z m 136.902482,41.20481 c -0.42223,-0.15122 -1.16308,-1.039539 -1.64633,-1.974038 -0.84919,-1.642165 -0.7784,-1.836576 2.11302,-5.802649 1.64541,-2.256962 3.4112,-4.338352 3.92398,-4.625318 0.51277,-0.286966 0.7705,-0.783575 0.57272,-1.103585 -0.19777,-0.320003 -0.13554,-0.507142 0.1383,-0.415868 0.77851,0.259502 6.23575,-5.925265 6.23575,-7.06706 0,-0.202282 0.27437,-0.696055 0.60971,-1.097275 0.33534,-0.401219 1.93433,-2.632046 3.5533,-4.957391 1.61898,-2.325346 3.61471,-4.907385 4.43496,-5.737866 2.81167,-2.84673 2.75495,-3.229243 -0.40852,-2.754852 -1.56986,0.235415 -3.98675,0.839166 -5.37088,1.341669 -1.38412,0.502502 -2.78837,0.965732 -3.12056,1.029399 -0.3322,0.06367 -0.91623,0.311001 -1.29784,0.54963 -0.38162,0.238628 -1.86033,0.580431 -3.28602,0.759561 -1.42569,0.17913 -2.97074,0.639879 -3.43344,1.023887 -0.4627,0.384009 -1.41633,0.740563 -2.11916,0.792342 -0.70284,0.05178 -1.3823,0.407372 -1.50991,0.790205 -0.12761,0.382833 -0.58283,0.69606 -1.0116,0.69606 -0.42876,0 -1.99412,0.678823 -3.47856,1.508495 -1.48445,0.829673 -3.92146,1.676055 -5.4156,1.880849 -2.39016,0.327607 -2.90709,0.181883 -4.30161,-1.212644 -1.02858,-1.028583 -1.45291,-1.953892 -1.20873,-2.635831 0.86272,-2.409398 4.76581,-6.92616 12.12944,-14.03653 10.58337,-10.219367 17.66958,-21.051252 16.79288,-25.6694 -0.7926,-4.1751855 -0.99394,-6.8489525 -0.5361,-7.1193932 0.26852,-0.1586066 1.31371,-0.4651295 2.32268,-0.6811631 1.68417,-0.3606098 1.89758,-0.2182624 2.60476,1.7374076 0.42365,1.1716118 0.62613,2.363445 0.44994,2.6485203 -0.48588,0.7861722 1.80333,6.6012994 3.69859,9.3953084 2.49012,3.670929 9.87286,10.850924 13.10495,12.745056 2.96181,1.735741 3.52456,3.46771 1.23385,3.797413 -1.41466,0.203612 -5.74109,-3.41719 -13.97245,-11.693586 l -5.54153,-5.571866 -4.54868,6.732932 c -2.50177,3.703114 -5.30805,7.555813 -6.23618,8.561555 -7.90706,8.568259 -17.20513,20.216863 -16.13736,20.216863 0.20661,0 2.04748,-0.904669 4.09082,-2.010377 6.68772,-3.618892 21.41242,-8.396928 30.16296,-9.787611 2.56934,-0.408335 4.05351,0.830543 4.05351,3.383588 0,1.751061 -1.289,3.488933 -6.77093,9.12875 -1.23256,1.268069 -2.04794,2.306878 -1.81195,2.308465 0.23599,0.0016 -0.59016,0.939008 -1.83588,2.083158 -1.24572,1.14415 -2.26495,2.35655 -2.26495,2.694227 0,0.337676 -0.81538,1.448074 -1.81195,2.46756 -0.99658,1.019486 -1.81196,2.039425 -1.81196,2.266541 0,0.227117 -0.73315,1.042909 -1.62921,1.812876 -1.48308,1.274368 -6.91345,8.718754 -6.59342,9.038782 0.0744,0.07443 2.5665,-0.782283 5.53794,-1.903812 2.97144,-1.121529 5.94621,-2.24417 6.6106,-2.494752 0.66438,-0.250587 1.38084,-0.422784 1.59212,-0.382667 0.21128,0.0401 2.19432,-0.444721 4.40675,-1.077414 6.21354,-1.776915 16.17996,-3.57585 24.61102,-4.442286 4.21213,-0.432865 8.01724,-1.081413 8.4558,-1.441219 1.22385,-1.004084 3.06571,-1.100837 4.62402,-0.242893 0.77588,0.427169 1.5504,0.636963 1.72115,0.466211 0.59156,-0.591556 -1.11967,-4.631258 -2.2087,-5.214089 -0.60172,-0.322036 -1.59919,-1.813796 -2.21657,-3.315022 -0.61739,-1.501226 -1.31405,-2.730521 -1.54815,-2.731766 -0.23408,-0.0013 -0.60075,-0.935775 -0.81479,-2.076733 -0.21404,-1.140957 -0.90584,-2.542051 -1.53733,-3.11354 -0.63149,-0.571489 -1.14816,-1.611051 -1.14816,-2.310138 0,-0.699087 -0.54359,-1.610544 -1.20797,-2.025458 -0.66439,-0.414915 -1.20798,-1.16518 -1.20798,-1.667255 0,-0.502074 -0.62716,-1.926687 -1.39369,-3.165807 -1.92032,-3.104274 -4.64617,-8.45613 -4.64617,-9.122188 0,-0.302295 0.67949,-0.720166 1.50997,-0.928603 0.83048,-0.208438 1.50996,-0.760636 1.50996,-1.227108 0,-1.297521 2.99251,-4.564729 4.18093,-4.564729 0.57949,0 1.23989,-0.186269 1.46755,-0.413935 0.99001,-0.990006 13.25895,-4.152675 16.699,-4.304638 0.49829,-0.02204 2.46879,-0.230433 4.3789,-0.46316 2.65774,-0.323815 3.47292,-0.239559 3.47292,0.358961 0,0.581052 0.2717,0.541183 1.05697,-0.155092 1.00022,-0.886863 2.48191,-1.113309 13.12942,-2.006532 2.32134,-0.194743 4.53944,-0.618668 4.92911,-0.942067 0.4083,-0.33886 0.85011,-0.358846 1.04274,-0.04717 0.18383,0.297451 1.60342,0.348216 3.15464,0.1128 1.77572,-0.269492 3.77259,-0.141459 5.39116,0.345656 2.49323,0.750355 2.6211,0.721159 4.23938,-0.967972 0.91775,-0.95791 1.86673,-1.61922 2.10887,-1.46957 0.24213,0.149643 0.45582,1.400896 0.47486,2.780557 0.0237,1.714499 -0.1615,2.312354 -0.58499,1.888857 -0.4235,-0.42349 -1.54272,-0.376102 -3.53603,0.149722 -1.60403,0.423135 -5.45354,0.953579 -8.55448,1.178769 -19.05783,1.383968 -34.87176,3.298343 -40.97123,4.959824 -3.55544,0.968497 -7.24783,3.89158 -7.24783,5.737754 0,0.58846 2.17038,3.257875 4.82306,5.932035 4.68407,4.722003 5.95608,6.864881 5.21749,8.78961 -0.21158,0.551376 -0.0533,0.88281 0.38785,0.812069 0.40994,-0.06574 1.23585,0.09403 1.83538,0.355037 0.66817,0.2909 1.83692,0.105108 3.01993,-0.480071 1.65544,-0.818872 5.08711,-1.240273 14.70641,-1.805913 1.04763,-0.0616 1.77902,-0.31585 1.62532,-0.564995 -0.15371,-0.249144 0.6199,-0.459473 1.71913,-0.467398 1.09923,-0.0079 3.08578,-0.270359 4.41455,-0.583187 1.32877,-0.312829 5.13388,-0.740065 8.4558,-0.949414 3.32192,-0.20935 7.12703,-0.449377 8.4558,-0.533394 1.32877,-0.08402 3.02748,0.07118 3.77491,0.344887 0.82052,0.300468 1.35897,0.264256 1.35897,-0.09139 0,-0.323967 0.40769,-0.589033 0.90598,-0.589033 0.58569,0 0.90598,0.587208 0.90598,1.660961 0,1.383107 -0.27785,1.679035 -1.66096,1.769006 -0.91353,0.05943 -3.29172,0.261105 -5.28488,0.44818 -1.99315,0.187075 -4.71109,0.38068 -6.03986,0.430234 -1.32876,0.04956 -2.61562,0.391459 -2.85968,0.759791 -0.31679,0.478101 -0.44639,0.465762 -0.45299,-0.04312 -0.007,-0.510232 -0.54354,-0.559587 -1.8892,-0.173659 -1.03397,0.296538 -2.05319,0.517173 -2.26494,0.4903 -0.21175,-0.02688 -0.5209,0.006 -0.687,0.07299 -0.16609,0.06702 -0.84558,0.198147 -1.50996,0.291391 -0.66438,0.09324 -2.43104,0.379345 -3.92591,0.635781 -1.49486,0.256436 -3.12562,0.517177 -3.62391,0.579425 -0.49829,0.06225 -1.44957,0.281246 -2.11395,0.486662 -0.66439,0.205416 -2.29515,0.521969 -3.62392,0.703452 -7.19537,0.98274 -10.00791,1.779561 -9.61578,2.724246 0.21507,0.518148 0.52781,1.417726 0.69496,1.999063 0.16715,0.581336 0.54401,1.056975 0.83745,1.056975 0.29345,0 0.53355,0.353505 0.53355,0.785565 0,1.147368 1.4285,4.036112 1.9986,4.04161 0.26875,0.0026 0.3133,0.288412 0.099,0.635156 -0.2143,0.346744 -0.10388,0.974761 0.24538,1.395594 0.76933,0.926986 4.87766,8.971226 4.89355,9.581735 0.006,0.238713 -0.3878,0.280883 -0.87558,0.0937 -0.48779,-0.187181 -0.82753,-0.532576 -0.75499,-0.767545 0.27848,-0.901974 -2.83289,-6.706031 -3.59488,-6.706031 -0.53815,0 -0.0761,1.441986 1.40307,4.378898 2.69282,5.346549 2.40232,5.014188 3.55002,4.061684 0.80492,-0.668021 1.16015,-0.581337 2.27955,0.556271 0.8991,0.913728 1.03434,1.286641 0.42005,1.158257 -0.70201,-0.146714 -0.87642,0.35457 -0.77469,2.2266 0.12324,2.26772 0.0757,2.342354 -0.77474,1.2165 -0.58926,-0.780078 -1.47986,-1.143242 -2.54724,-1.038704 -1.28195,0.125556 -1.94179,-0.285667 -3.01442,-1.878668 -2.27592,-3.380026 -4.71468,-5.848951 -5.77748,-5.848951 -0.55171,0 -1.0031,0.26797 -1.0031,0.595494 0,0.360694 -2.79829,0.573666 -7.09684,0.540132 -3.90326,-0.03044 -9.27118,0.233133 -11.92872,0.585746 -2.65754,0.352607 -6.73444,0.807897 -9.05979,1.011743 -2.32534,0.203851 -6.94583,0.929026 -10.26776,1.6115 -3.32192,0.68248 -6.82403,1.318574 -7.78248,1.413545 -0.95844,0.09497 -1.91244,0.447451 -2.12,0.783285 -0.20756,0.33584 -1.19004,0.784777 -2.18329,0.997646 -2.23907,0.479866 -10.15271,3.460621 -10.5637,3.978932 -0.6228,0.785441 -2.74586,1.596437 -3.48562,1.331493 z m 64.56314,-19.654426 c -0.5965,-0.592063 -0.66588,-0.522689 -0.33811,0.338112 0.22682,0.595663 0.56454,0.930875 0.7505,0.744914 0.18597,-0.185962 3.9e-4,-0.673318 -0.41239,-1.083026 z m 4.17598,-2.20976 c -0.69055,-1.353584 -1.53749,-2.461062 -1.8821,-2.461062 -0.3446,0 0.13656,1.357961 1.06925,3.017691 1.9813,3.525741 2.65882,3.061783 0.81285,-0.556629 z m -6.86993,-4.451836 c -0.53085,-1.118683 -1.11071,-3.192223 -1.28858,-4.607867 -0.28727,-2.286436 -1.46276,-5.425781 -1.50992,-4.032528 -0.0101,0.298413 -0.85709,-0.335077 -1.8822,-1.407756 -1.78259,-1.865307 -3.03995,-2.204253 -1.98081,-0.533965 0.27732,0.437341 0.5249,0.931062 0.55017,1.097159 0.15145,0.995429 2.06468,4.747108 2.5848,5.068559 0.34185,0.211276 0.94753,1.399579 1.34595,2.640673 0.73917,2.302505 2.34941,4.606052 2.86168,4.093792 0.15625,-0.156254 -0.15024,-1.199385 -0.68109,-2.318067 z m 4.03457,-0.300549 c -0.19166,-0.732926 -0.58275,-1.332592 -0.86907,-1.332592 -0.28633,0 -0.21048,0.680633 0.16855,1.512517 0.81689,1.792865 1.19127,1.696706 0.70052,-0.179925 z m 70.71384,-6.754972 c -0.32477,-0.324772 -1.53425,-0.71228 -2.68773,-0.86113 -1.15349,-0.148849 -2.85264,-0.558908 -3.77589,-0.911242 -0.92324,-0.352334 -2.28221,-0.645804 -3.01993,-0.652156 -6.9754,-0.06005 -11.81028,-0.512794 -12.90775,-1.208682 -1.37026,-0.868861 -1.27068,-2.420142 0.15535,-2.420142 0.46275,0 0.84136,-0.28967 0.84136,-0.64371 0,-0.904199 11.37354,-0.187317 12.58499,0.79324 0.74523,0.603187 0.84268,0.603484 0.481,0.0014 -0.57312,-0.953966 -0.13056,-0.940488 3.299,0.100467 3.94073,1.196127 9.00242,3.437399 9.00242,3.986212 0,0.255744 -0.42492,0.628045 -0.94426,0.827335 -0.51935,0.199292 -0.7751,0.636061 -0.56835,0.970599 0.48337,0.782101 -1.68025,0.797719 -2.46021,0.01776 z M 30.283788,21.850063 c 0,-0.130558 0.421807,-0.399235 0.937349,-0.59707 0.537502,-0.206255 0.77994,-0.104997 0.56834,0.237378 -0.354695,0.573908 -1.505689,0.848866 -1.505689,0.359692 z m 267.476732,-5.01301 c -1.27384,-0.320306 -1.94064,-2.601434 -0.76043,-2.601434 1.23712,0 1.04293,-1.195258 -0.20754,-1.27743 -0.58133,-0.03817 0.0302,-0.294328 1.35897,-0.569178 3.25741,-0.67377 11.71182,-0.700449 10.65956,-0.03364 -0.57995,0.367513 -0.23033,0.634179 1.20797,0.92135 2.8311,0.565264 3.50956,0.545429 6.25205,-0.18276 3.29013,-0.873599 11.17374,-0.869812 11.17374,0.0054 0,0.37162 0.93314,-0.03606 2.07365,-0.905979 1.87605,-1.430933 2.5811,-1.581217 7.39883,-1.577067 6.93593,0.006 14.87746,0.934934 16.46428,1.925911 0.77297,0.48273 1.11018,1.134255 0.87582,1.692175 -0.2096,0.498971 -0.39401,1.223199 -0.40981,1.609393 -0.0158,0.386195 -1.17196,0.793885 -2.56926,0.905979 -1.84557,0.148055 -2.46123,-0.0024 -2.25066,-0.551173 0.2163,-0.563356 -0.91461,-0.761023 -4.45563,-0.778786 -5.82711,-0.02923 -12.27222,-0.494604 -12.9895,-0.937911 -0.29343,-0.181353 -0.34624,-0.650686 -0.11735,-1.042975 0.22888,-0.392283 -0.34734,0.03418 -1.28049,0.947714 -1.76809,1.730909 -3.00828,2.088601 -3.64873,1.052343 -0.23319,-0.37731 -0.72222,-0.262541 -1.28676,0.301993 -0.50083,0.500831 -1.21493,0.910605 -1.58689,0.910605 -0.37195,0 -0.1808,-0.362301 0.42478,-0.805119 1.00124,-0.732116 0.91586,-0.813599 -0.94153,-0.898616 -1.12344,-0.0514 -2.92593,-0.212912 -4.00556,-0.358871 -1.07962,-0.145953 -1.96295,-0.01335 -1.96295,0.294631 0,0.308002 0.66344,0.560003 1.47431,0.560003 0.81088,0 1.6001,0.203845 1.75383,0.45299 0.34263,0.555292 -6.02512,0.575284 -6.57974,0.02066 -0.21809,-0.218087 -1.10232,-0.128184 -1.96494,0.199786 -1.61987,0.615873 -12.33763,1.163187 -14.10002,0.72003 z"
     id="path2818" />
</svg>
