<?xml version="1.0" encoding="UTF-8" standalone="no"?>
<!-- Created with Inkscape (http://www.inkscape.org/) -->

<svg
   xmlns:dc="http://purl.org/dc/elements/1.1/"
   xmlns:cc="http://creativecommons.org/ns#"
   xmlns:rdf="http://www.w3.org/1999/02/22-rdf-syntax-ns#"
   xmlns:svg="http://www.w3.org/2000/svg"
   xmlns="http://www.w3.org/2000/svg"
   xmlns:sodipodi="http://sodipodi.sourceforge.net/DTD/sodipodi-0.dtd"
   xmlns:inkscape="http://www.inkscape.org/namespaces/inkscape"
   id="svg2"
   version="1.1"
   inkscape:version="0.48.0 r9654"
   width="354.33084"
   height="175.09312"
   sodipodi:docname="bicycle.png">
  <metadata
     id="metadata8">
    <rdf:RDF>
      <cc:Work
         rdf:about="">
        <dc:format>image/svg+xml</dc:format>
        <dc:type
           rdf:resource="http://purl.org/dc/dcmitype/StillImage" />
        <dc:title></dc:title>
      </cc:Work>
    </rdf:RDF>
  </metadata>
  <defs
     id="defs6" />
  <sodipodi:namedview
     pagecolor="#ffffff"
     bordercolor="#666666"
     borderopacity="1"
     objecttolerance="10"
     gridtolerance="10"
     guidetolerance="10"
     inkscape:pageopacity="0"
     inkscape:pageshadow="2"
     inkscape:window-width="1057"
     inkscape:window-height="715"
     id="namedview4"
     showgrid="false"
     fit-margin-top="0"
     fit-margin-left="0"
     fit-margin-right="0"
     fit-margin-bottom="0"
     inkscape:zoom="0.73009646"
     inkscape:cx="163.78515"
     inkscape:cy="115.23141"
     inkscape:window-x="0"
     inkscape:window-y="0"
     inkscape:window-maximized="0"
     inkscape:current-layer="svg2" />
  <path
     style="fill:#545454"
     d="m 310.65698,174.97365 c -0.0806,-0.0806 -0.59795,-0.22531 -1.14966,-0.32156 -1.52919,-0.26677 -5.32848,-1.53812 -7.35409,-2.46087 -0.99638,-0.4539 -1.97846,-0.82527 -2.1824,-0.82527 -0.20394,0 -0.37081,-0.15713 -0.37081,-0.34918 0,-0.19205 -0.21248,-0.34919 -0.47219,-0.34919 -0.46418,0 -3.37021,-2.44662 -5.85461,-4.92907 -0.695,-0.69445 -1.75245,-1.55139 -2.34988,-1.9043 -0.75808,-0.44781 -0.95653,-0.72568 -0.65688,-0.91976 0.32996,-0.21372 0.31196,-0.35361 -0.0777,-0.60425 -0.2789,-0.17938 -0.63065,-0.24978 -0.78166,-0.15645 -0.15101,0.0933 -0.18098,-0.0742 -0.0666,-0.37222 0.12624,-0.32899 0.018,-0.54192 -0.27558,-0.54192 -0.54168,0 -1.83568,-1.36374 -1.55773,-1.64169 0.0982,-0.0982 -0.11942,-0.49842 -0.48363,-0.88935 -1.23331,-1.3238 -2.81592,-5.73812 -2.50397,-6.98423 0.0361,-0.14404 -0.081,-0.26188 -0.26021,-0.26188 -0.17918,0 -0.27822,-0.82495 -0.22008,-1.83322 0.0581,-1.00827 0.13675,-1.83322 0.17472,-1.83322 0.038,0 0.12595,-1.14908 0.19553,-2.55352 0.0696,-1.40444 0.30067,-2.76338 0.51354,-3.01987 0.21286,-0.25649 0.43882,-1.38583 0.50211,-2.50965 0.12285,-2.18111 0.62354,-3.77144 1.48816,-4.72684 0.29352,-0.32434 0.43045,-0.75674 0.30427,-0.96089 -0.12617,-0.20415 -0.063,-0.37119 0.14039,-0.37119 0.20338,0 0.35118,-0.11785 0.32844,-0.26189 -0.0227,-0.14403 -0.003,-0.37973 0.0436,-0.52377 0.0468,-0.14404 0.11781,-0.37974 0.1579,-0.52378 0.36364,-1.30619 1.05662,-2.28544 2.09204,-2.95624 0.67703,-0.43862 1.2329,-0.9939 1.23528,-1.23397 0.002,-0.24006 0.24002,-0.43648 0.5281,-0.43648 0.28808,0 0.48449,-0.12089 0.43648,-0.26865 -0.13017,-0.40059 1.34778,-2.17564 1.81148,-2.17564 0.22084,0 0.35536,-0.23099 0.29893,-0.51331 -0.16811,-0.84104 3.20302,-4.72445 4.10124,-4.72445 0.23949,0 0.5297,-0.24566 0.64491,-0.54591 0.11522,-0.30025 0.36773,-0.44811 0.56114,-0.32858 0.1934,0.11954 0.35165,-0.1062 0.35165,-0.50164 0,-0.39544 0.14918,-0.71898 0.33151,-0.71898 0.18232,0 1.08584,-0.71896 2.00781,-1.59768 0.92196,-0.87873 2.38339,-2.01331 3.24762,-2.52128 0.86424,-0.50798 1.96417,-1.294 2.44429,-1.74672 0.93267,-0.87943 2.21572,-1.52258 3.26204,-1.63518 0.35374,-0.0381 0.74657,-0.22044 0.87296,-0.40528 0.40472,-0.59187 2.90143,-1.59635 4.3822,-1.76306 0.78901,-0.0888 1.74882,-0.29202 2.13292,-0.45153 1.44324,-0.59937 3.90513,-1.09518 5.76154,-1.16034 1.96585,-0.069 2.76055,-0.55368 2.78237,-1.69694 0.006,-0.32008 0.15492,-0.63435 0.3307,-0.69837 0.17578,-0.064 0.40265,-1.1412 0.50417,-2.39374 0.10152,-1.25254 0.28827,-2.547563 0.415,-2.877823 0.41351,-1.07759 -0.74249,-1.03777 -3.21069,0.11059 -6.39264,2.974273 -7.63931,3.597603 -7.74704,3.873513 -0.064,0.16396 -0.40829,0.29811 -0.76505,0.29811 -0.35677,0 -0.74578,0.15713 -0.86447,0.34918 -0.1187,0.19205 -0.5208,0.34919 -0.89357,0.34919 -0.37277,0 -0.68021,0.11785 -0.68319,0.26189 -0.005,0.25039 -2.02743,1.27149 -4.44667,2.24527 -0.62417,0.25123 -1.13485,0.57556 -1.13485,0.72073 0,0.14517 -0.31426,0.26395 -0.69837,0.26395 -0.3841,0 -0.69836,0.15713 -0.69836,0.34918 0,0.19205 -0.29823,0.34919 -0.66273,0.34919 -0.3645,0 -1.33764,0.38335 -2.16252,0.8519 -0.82489,0.46854 -1.6266,0.77354 -1.78157,0.67776 -0.15497,-0.0958 -0.28176,-0.008 -0.28176,0.19565 0,0.20339 -0.32354,0.36979 -0.71898,0.36979 -0.39544,0 -0.62186,0.15714 -0.50317,0.34919 0.1187,0.19205 -0.0313,0.34918 -0.33331,0.34918 -0.30202,0 -0.82197,0.1388 -1.15546,0.30845 -0.33348,0.16964 -0.99917,0.46159 -1.47929,0.64878 -0.84488,0.32939 -2.9314,1.32548 -4.36481,2.08371 -0.3841,0.20318 -1.0912,0.52923 -1.57132,0.72455 -2.51564,1.02337 -4.15907,1.83775 -4.35793,2.15951 -0.12247,0.19817 -0.52768,0.36032 -0.90045,0.36032 -0.37276,0 -0.95448,0.27672 -1.2927,0.61494 -0.33822,0.33822 -1.3203,0.84489 -2.1824,1.12593 -0.8621,0.28104 -1.87207,0.78998 -2.24437,1.13098 -0.37231,0.34099 -0.94231,0.61999 -1.26669,0.61999 -0.32437,0 -0.77259,0.22028 -0.99603,0.48952 -0.22345,0.26923 -0.80604,0.58985 -1.29466,0.71248 -0.48862,0.12264 -1.2189,0.53089 -1.62285,0.90722 -0.40395,0.37634 -1.01909,0.68425 -1.36698,0.68425 -0.34788,0 -0.63252,0.15713 -0.63252,0.34919 0,0.19205 -0.21135,0.34918 -0.46966,0.34918 -0.25831,0 -0.75406,0.31427 -1.10167,0.69837 -0.34761,0.3841 -0.92193,0.69837 -1.27626,0.69837 -0.35434,0 -0.64425,0.15713 -0.64425,0.34918 0,0.19205 -0.32354,0.34918 -0.71898,0.34918 -0.39544,0 -0.64102,0.12615 -0.54573,0.28033 0.0953,0.15417 -0.4454,0.66266 -1.20154,1.12998 -0.75613,0.46731 -1.37478,0.9697 -1.37478,1.11642 0,0.14671 -0.28464,0.26675 -0.63253,0.26675 -0.34788,0 -0.96984,0.31426 -1.38213,0.69837 -0.41229,0.3841 -0.95719,0.69836 -1.2109,0.69836 -0.25371,0 -0.6878,0.31427 -0.96465,0.69837 -0.27685,0.38411 -0.90078,0.70942 -1.38653,0.72292 -0.80638,0.0224 -0.82245,0.0506 -0.1848,0.32464 0.61884,0.26592 0.58902,0.30289 -0.26189,0.32464 -0.52814,0.0135 -0.96025,0.18167 -0.96025,0.37372 0,0.19206 -0.16836,0.34919 -0.37413,0.34919 -0.20577,0 -0.58995,0.21582 -0.85373,0.4796 -0.37421,0.37422 -0.87855,0.40709 -2.29516,0.14961 -1.98713,-0.36117 -3.29859,-1.07065 -3.83632,-2.0754 -0.19101,-0.3569 -0.50816,-0.64892 -0.70479,-0.64892 -0.19663,0 -0.26531,0.14918 -0.15262,0.33152 0.26448,0.42794 -3.44519,4.20788 -4.12965,4.20788 -0.28582,0 -1.15068,0.64374 -1.92194,1.43053 -0.77125,0.78679 -1.56901,1.32749 -1.77279,1.20154 -0.20379,-0.12595 -0.37053,-0.005 -0.37053,0.26898 0,0.55126 -2.49629,2.33671 -3.26701,2.33671 -0.26867,0 -0.68285,0.23417 -0.92037,0.52037 -0.35311,0.42547 -0.2813,0.6791 0.39372,1.3907 0.45408,0.47869 1.01648,0.87305 1.24979,0.87637 0.23331,0.003 0.58669,0.30966 0.78529,0.68075 0.19861,0.3711 0.65864,0.76916 1.02229,0.88458 0.75367,0.2392 1.19348,1.27674 1.70728,4.02765 0.42595,2.28049 0.0334,3.42668 -1.41065,4.11879 -0.52639,0.25229 -0.95708,0.68883 -0.95708,0.97009 0,1.11411 -3.68408,-0.40333 -4.71369,-1.94153 -0.38393,-0.5736 -0.85533,-1.01054 -1.04755,-0.97099 -0.19221,0.0396 -0.78045,-0.21558 -1.30719,-0.56695 -0.54962,-0.36662 -1.29358,-0.56218 -1.74592,-0.45893 -0.43352,0.099 -1.10248,0.0606 -1.48658,-0.0853 -0.44252,-0.16805 -1.00646,-0.0639 -1.53934,0.28417 -0.82352,0.53797 -0.83726,0.52989 -0.66152,-0.38942 0.0987,-0.51634 0.0399,-0.85255 -0.13065,-0.74713 -0.17056,0.10541 -0.76967,0.32346 -1.33136,0.48455 -0.89888,0.25779 -0.9786,0.22311 -0.66537,-0.28953 0.28812,-0.47154 -0.0768,-1.03927 -1.91714,-2.98233 -1.25015,-1.31996 -2.3514,-2.81272 -2.44722,-3.31725 -0.51735,-2.72411 -0.5967,-3.8854 -0.26548,-3.8854 0.19617,0 0.4064,-0.41577 0.46717,-0.92393 0.0893,-0.74712 0.3871,-1.00518 1.55589,-1.34849 1.27015,-0.37308 1.7496,-0.32812 3.95415,0.37085 1.37981,0.43747 3.08638,1.1663 3.79236,1.61961 1.211,0.77758 3.0992,0.95967 2.66492,0.257 -0.1102,-0.17832 -0.0587,-0.32422 0.11443,-0.32422 0.17314,0 0.61453,-0.57272 0.98087,-1.2727 0.36633,-0.69998 1.181,-1.82641 1.81037,-2.50317 0.62938,-0.67676 1.09141,-1.38921 1.02674,-1.58321 -0.0647,-0.194 -0.81531,-0.59962 -1.66809,-0.90137 -0.85279,-0.30176 -1.6029,-0.66649 -1.66691,-0.81053 -0.064,-0.14404 -0.4279,-0.26189 -0.80862,-0.26189 -0.38073,0 -0.95688,-0.14161 -1.28035,-0.31469 -0.32346,-0.17308 -2.00231,-0.3884 -3.73077,-0.47848 -3.77611,-0.19679 -4.033,-0.28816 -6.39083,-2.27289 -1.78603,-1.50341 -1.91199,-1.55044 -3.56521,-1.33113 -2.36648,0.31393 -4.36054,1.46769 -5.68511,3.2894 -0.61583,0.84696 -1.45863,1.87929 -1.87288,2.29406 -0.41426,0.41478 -1.04057,1.41748 -1.39181,2.22823 -0.35125,0.81074 -0.75869,1.47408 -0.90544,1.47408 -0.14675,0 -0.26681,0.23848 -0.26681,0.52995 0,0.57026 -2.28869,2.96189 -2.83441,2.96189 -0.18159,0 -0.43429,0.27498 -0.56156,0.61107 -0.31235,0.82489 -1.01071,1.50036 -1.27645,1.23462 -0.11889,-0.11889 -0.21616,0.0457 -0.21616,0.36581 0,0.32009 -0.23449,0.58198 -0.52108,0.58198 -0.2866,0 -0.9411,0.47139 -1.45446,1.04755 -0.51335,0.57615 -1.12913,1.04755 -1.36839,1.04755 -0.23926,0 -0.84027,0.48162 -1.33559,1.07028 -0.49532,0.58865 -1.06036,0.97152 -1.25565,0.85082 -0.19529,-0.12069 -0.44934,0.0262 -0.56456,0.32647 -0.11522,0.30025 -0.55082,0.5459 -0.968,0.5459 -0.41719,0 -0.98503,0.31427 -1.26187,0.69837 -0.27685,0.3841 -0.68513,0.69837 -0.90729,0.69837 -0.22217,0 -0.59812,0.23397 -0.83544,0.51993 -0.23733,0.28596 -0.54491,0.44985 -0.68351,0.36419 -0.3645,-0.22528 -2.81153,0.57579 -2.81153,0.92039 0,0.15983 -0.79494,0.2906 -1.76653,0.2906 -0.97159,0 -1.68045,0.13926 -1.57525,0.30948 0.25065,0.40556 -0.91791,0.74781 -3.28736,0.96282 -1.05334,0.0956 -1.99613,0.30102 -2.09511,0.45653 -0.22485,0.35331 -7.31284,0.24887 -9.43332,-0.139 -0.86424,-0.15808 -1.76575,-0.4409 -2.00337,-0.62851 -0.23761,-0.1876 -0.65958,-0.25377 -0.93769,-0.14704 -0.27812,0.10672 -0.5551,0.085 -0.61552,-0.0482 -0.19029,-0.41965 -2.40636,-1.46441 -3.10622,-1.46441 -0.36854,0 -0.67007,-0.15414 -0.67007,-0.34254 0,-0.18839 -0.39283,-0.44112 -0.87296,-0.56163 -0.48013,-0.1205 -0.87296,-0.35919 -0.87296,-0.53042 0,-0.17123 -0.29849,-0.31133 -0.66331,-0.31133 -0.60155,0 -3.4847,-1.88889 -5.01094,-3.2829 -0.33609,-0.30697 -0.75797,-0.55813 -0.93752,-0.55813 -0.28227,0 -1.17865,-0.29594 -2.25298,-0.74383 -0.57515,-0.23978 -3.00751,-2.74436 -3.00751,-3.09681 0,-0.19226 -0.13243,-0.34957 -0.29429,-0.34957 -0.16186,0 -0.63326,-0.7071 -1.04755,-1.57133 -0.4143,-0.86423 -1.08519,-2.26473 -1.49088,-3.11222 -0.40569,-0.84749 -0.66262,-1.75101 -0.57096,-2.00781 0.0917,-0.2568 0.004,-0.78118 -0.19573,-1.16528 -0.19931,-0.38411 -0.54745,-1.58276 -0.77363,-2.66368 -0.50911,-2.43305 -0.63713,-13.2242 -0.15687,-13.2242 0.18683,0 0.33969,-0.24498 0.33969,-0.54439 0,-0.32257 -0.16425,-0.44287 -0.40313,-0.29523 -0.27009,0.16692 -0.30739,0.0942 -0.11303,-0.22026 0.15956,-0.25817 0.34155,-1.41274 0.40441,-2.56571 0.0629,-1.15297 0.27504,-2.19565 0.47149,-2.31706 0.19645,-0.12142 0.39229,-0.71927 0.4352,-1.32857 0.0429,-0.6093 0.19588,-1.10813 0.33991,-1.10851 0.14404,-3.5e-4 0.26189,-0.46282 0.26189,-1.02764 0,-0.56482 0.15713,-1.12406 0.34919,-1.24275 0.19205,-0.1187 0.34918,-0.52576 0.34918,-0.90458 0,-0.88116 1.28197,-4.7002 1.9065,-5.67957 0.2626,-0.411793 0.6736,-1.418403 0.91332,-2.236903 0.23973,-0.8185 0.64613,-1.66269 0.90313,-1.87597 0.25699,-0.21329 0.46726,-0.57474 0.46726,-0.80323 0,-0.38045 0.7692,-1.99164 1.88121,-3.94043 0.50658,-0.88777 1.92649,-2.79081 2.57089,-3.44562 0.24006,-0.24395 0.43648,-0.54296 0.43648,-0.66448 0,-0.2717 5.68603,-5.92712 7.28835,-7.24911 0.64013,-0.52814 1.35603,-0.96025 1.59088,-0.96025 0.23486,0 0.79102,-0.38748 1.23593,-0.86106 0.76942,-0.81902 3.84329,-2.26228 8.04242,-3.77613 3.3043,-1.19126 7.28036,-1.37697 11.52307,-0.53821 2.01654,0.39865 3.83714,0.85987 4.04577,1.02492 0.20863,0.16506 0.9943,0.5204 1.74592,0.78965 2.34448,0.83985 7.23182,3.23673 8.85842,4.3444 1.68554,1.14781 2.2045,1.09126 3.39869,-0.37029 0.80714,-0.98786 6.04576,-5.66497 8.14002,-7.26752 0.86423,-0.66132 1.69723,-1.35954 1.85112,-1.55159 0.15388,-0.19205 0.17498,-1.52768 0.0469,-2.96807 -0.1281,-1.44038 -0.23049,-2.77601 -0.22754,-2.96806 0.003,-0.19205 0.12156,-3.42287 0.26357,-7.17959 l 0.2582,-6.8304 -1.5326,-0.58458 c -0.84293,-0.32152 -2.4754,-0.76238 -3.62771,-0.9797 -1.1523,-0.21731 -2.73396,-0.69104 -3.51479,-1.05273 -0.78083,-0.36169 -1.6113,-0.65762 -1.8455,-0.65762 -0.6521,0 -2.22304,-1.10599 -3.19456,-2.24907 -0.48004,-0.5648 -1.20684,-1.35047 -1.61512,-1.74592 -0.40828,-0.39544 -0.84801,-1.16924 -0.97718,-1.71955 -0.21052,-0.89682 -0.34466,-0.97859 -1.29398,-0.78872 -0.5825,0.1165 -1.44922,0.51868 -1.92603,0.89374 -0.92266,0.72576 -1.46996,0.65572 -2.96593,-0.37956 -1.13314,-0.78419 -1.52271,-2.17472 -0.97783,-3.4902 0.36651,-0.88482 3.90746,-3.81576 5.74029,-4.75139 2.76781,-1.41291 7.47099,-2.50407 10.82471,-2.51138 5.19177,-0.0113 18.47507,2.58462 21.27632,4.15799 0.69702,0.39149 1.42278,0.7118 1.61281,0.7118 0.19002,0 1.00556,0.41668 1.8123,0.92595 1.3382,0.84477 1.83506,0.93653 5.6673,1.04666 2.31028,0.0664 4.5367,0.29551 4.9476,0.50915 0.84858,0.4412 1.5226,1.71488 1.5226,2.87719 0,0.43268 0.16972,0.95641 0.37716,1.16385 0.25874,0.25874 0.27073,0.76261 0.0382,1.60483 -0.38772,1.40419 -4.0458,5.14137 -5.03255,5.14137 -0.3413,0 -0.62055,0.11877 -0.62055,0.26394 0,0.93333 -7.28434,2.59145 -11.27889,2.56739 -1.69018,-0.0102 -3.20458,-0.0998 -3.36534,-0.19916 -0.16076,-0.0994 -0.30616,0.79981 -0.32311,1.99814 -0.0454,3.20885 -0.33079,6.21574 -0.71276,7.50923 -0.18519,0.62713 -0.24858,1.68337 -0.14086,2.34719 0.16457,1.01407 0.45388,1.3324 1.8104,1.99194 1.89717,0.9224 1.73418,0.87276 4.408,1.34272 1.1523,0.20254 2.34037,0.50095 2.64015,0.66313 0.29978,0.16219 1.9364,0.31444 3.63692,0.33835 1.70053,0.0239 3.26229,0.17846 3.47057,0.34344 0.20828,0.16498 5.95691,0.40154 12.77473,0.52569 6.81783,0.12414 13.33884,0.29004 14.49115,0.36866 2.81838,0.19229 15.10213,0.57757 21.9986,0.68998 3.07282,0.0501 5.90121,0.18822 6.28532,0.30697 0.3841,0.11875 2.03399,0.37918 3.66643,0.57874 3.06895,0.37517 8.80106,2.0274 13.96737,4.02598 5.61294,2.17136 7.87508,2.97077 8.40652,2.97077 0.29293,0 0.68187,0.13397 0.86432,0.2977 0.49668,0.44576 3.54556,1.20416 3.91728,0.97443 0.93941,-0.58059 0.23063,-8.09685 -0.87142,-9.24101 -0.24444,-0.25378 -0.44444,-0.75324 -0.44444,-1.10991 0,-0.35667 -0.20117,-0.85612 -0.44705,-1.1099 -0.68516,-0.7072 -1.40531,-3.2424 -1.14976,-4.04758 0.17985,-0.56665 -0.91303,-4.78729 -1.35781,-5.24382 -0.24294,-0.24935 -2.19706,0.87983 -3.03431,1.75337 -0.50917,0.53123 -1.09842,0.96588 -1.30944,0.96588 -0.21103,0 -0.38368,0.15713 -0.38368,0.34918 0,0.19206 -0.24692,0.34919 -0.54872,0.34919 -0.695,0 -1.59298,0.87581 -1.26787,1.23656 0.13489,0.14968 0.0582,0.1649 -0.17041,0.0338 -0.22861,-0.13107 -0.70001,0.0519 -1.04755,0.40671 -0.82893,0.84616 -3.14897,2.24584 -4.47046,2.69702 -1.43432,0.48972 -7.11812,-0.49019 -9.43489,-1.62662 -3.85639,-1.89165 -6.19709,-4.35478 -8.252,-8.68363 -0.41024,-0.86423 -0.88095,-1.62371 -1.046,-1.68772 -0.16506,-0.064 -0.3001,-0.2824 -0.3001,-0.48529 0,-0.63337 -1.17422,-1.29614 -2.3169,-1.30773 -1.13944,-0.0116 -2.17332,0.26667 -8.85699,2.38351 -3.13418,0.99265 -4.53414,1.26109 -6.37783,1.22295 -2.47196,-0.0511 -3.4981,-0.50957 -3.1531,-1.40864 0.11259,-0.29342 0.0343,-0.63882 -0.17404,-0.76757 -0.62218,-0.38453 -0.76857,-2.05587 -0.21994,-2.51118 0.27331,-0.22683 0.49693,-0.76898 0.49693,-1.20477 0,-0.92223 0.99089,-1.27867 4.80002,-1.72665 0.87192,-0.10255 1.75922,-0.326 1.97178,-0.49657 0.21256,-0.17057 0.93644,-0.42498 1.60862,-0.56535 0.67218,-0.14038 1.37928,-0.37931 1.57133,-0.53096 0.19205,-0.15164 1.97501,-0.8406 3.96212,-1.53101 2.6942,-0.93608 4.1593,-1.25004 5.76154,-1.23467 2.65956,0.0255 5.23266,1.14573 5.40459,2.35293 0.0623,0.43764 0.41587,0.98465 0.78566,1.21559 0.36979,0.23093 0.67234,0.60998 0.67234,0.84231 0,0.23234 0.27498,0.5826 0.61107,0.77835 0.33609,0.19575 0.47399,0.3607 0.30643,0.36653 -0.16755,0.006 -0.13139,0.21937 0.0804,0.47451 0.21174,0.25513 0.43508,0.76582 0.49631,1.13485 0.0612,0.36903 0.30558,1.02451 0.54301,1.45662 0.23743,0.43212 0.34148,0.78567 0.23121,0.78567 -0.11026,0 0.11991,0.34389 0.51149,0.76421 0.39159,0.42032 0.71197,0.97028 0.71197,1.22214 0,0.25187 0.12883,0.45794 0.2863,0.45794 0.15746,0 0.80885,0.46654 1.44754,1.03676 0.63868,0.57022 1.3024,0.94952 1.47492,0.8429 0.17252,-0.10663 0.50321,-0.0453 0.73486,0.13625 0.23165,0.18156 0.96709,0.4339 1.6343,0.56076 1.45481,0.2766 4.4574,-0.69225 4.7212,-1.52339 0.0971,-0.30581 2.6513,-2.19655 5.67609,-4.20164 3.02479,-2.00509 5.60337,-3.80616 5.73016,-4.00236 0.61679,-0.95438 3.08584,-3.21252 3.30205,-3.01996 0.13519,0.12041 0.14531,0.0428 0.0225,-0.17248 -0.2951,-0.51721 0.90559,-1.87829 1.65696,-1.87829 0.3249,0 0.50144,-0.14446 0.39231,-0.32103 -0.10912,-0.17657 0.05,-0.5694 0.35352,-0.87296 0.30356,-0.30356 0.43475,-0.55193 0.29152,-0.55193 -0.14321,0 0.0579,-0.35355 0.44681,-0.78566 0.38896,-0.43212 0.80081,-1.05169 0.91522,-1.37682 0.11442,-0.32513 0.99311,-1.18936 1.95266,-1.92051 0.95955,-0.73115 1.75359,-1.51465 1.76453,-1.7411 0.0197,-0.40723 -2.13239,-1.98669 -3.82115,-2.80447 -1.00367,-0.48602 -6.85665,-2.84635 -7.76935,-3.13314 -0.33609,-0.10561 -0.61107,-0.40939 -0.61107,-0.67506 0,-0.26568 -0.11785,-0.49598 -0.26189,-0.51177 -1.49218,-0.1636 -2.49978,-0.45666 -3.22995,-0.93942 -0.48013,-0.31744 -1.0301,-0.592 -1.22215,-0.61013 -0.59926,-0.0566 -1.72405,-0.63072 -2.2448,-1.14583 -0.41162,-0.40716 -0.42689,-0.76267 -0.0873,-2.03236 0.22638,-0.84639 0.41159,-1.8378 0.41159,-2.20314 0,-0.36534 0.11785,-0.71664 0.26189,-0.78065 0.14404,-0.064 0.65472,-0.90181 1.13485,-1.86177 0.48012,-0.95995 1.03911,-1.90275 1.24217,-2.0951 0.52812,-0.50026 2.24967,-3.24821 2.24967,-3.59094 0,-0.43678 1.76582,-3.8881595 2.09262,-4.0901295 0.15736,-0.0973 0.20446,-0.48902 0.10468,-0.8706 -0.10877,-0.41592 0.0192,-0.77077 0.31952,-0.88601 0.33219,-0.12747 0.44982,-0.54063 0.34917,-1.22639 -0.0975,-0.6641 7e-4,-1.03415 0.27439,-1.03415 0.23537,0 0.33619,-0.23452 0.22518,-0.52378 -0.11054,-0.28808 -0.0389,-0.52378 0.15919,-0.52378 0.19809,0 0.31159,-0.28676 0.25221,-0.63725 -0.0602,-0.35538 0.41866,-1.19558 1.08257,-1.89945 1.9912,-2.11105 5.23862,-2.08938 6.24432,0.0417 0.59172,1.25385 0.53417,1.60647 -0.45373,2.78054 -0.49982,0.59399 -0.87296,1.47816 -0.87296,2.06847 0,0.56705 -0.31953,1.39942 -0.71006,1.84971 -0.39053,0.45028 -0.63683,1.00953 -0.54733,1.24276 0.0895,0.23324 -0.13723,0.6955295 -0.50385,1.0273195 -0.36662,0.33179 -0.58916,0.72853 -0.49453,0.88164 0.0946,0.15311 0.0192,0.37285 -0.16758,0.48829 -0.1868,0.11545 -0.25889,0.42031 -0.16021,0.67748 0.0987,0.25716 -0.0653,0.7123 -0.36443,1.01143 -0.29912,0.29912 -0.54386,0.75935 -0.54386,1.02273 0,0.26339 -0.16549,0.64437 -0.36775,0.84663 -0.8001,0.8001 -2.68362,5.10875 -2.51506,5.75332 0.098,0.37459 0.63467,0.91717 1.19269,1.20574 0.55803,0.28856 0.92161,0.6751 0.80797,0.85897 -0.11364,0.18388 0.0306,0.33432 0.32042,0.33432 0.28987,0 0.65269,0.2043 0.80627,0.454 0.56685,0.92161 2.52135,1.99323 3.9666,2.17482 0.85328,0.10721 1.73966,0.47732 2.07833,0.86781 0.32479,0.37448 0.67212,0.59928 0.77184,0.49956 0.24805,-0.24805 2.01748,0.58377 2.01748,0.94844 0,0.16122 0.26015,0.29313 0.57811,0.29313 0.31796,0 1.09315,0.39283 1.72263,0.87296 0.62948,0.48013 1.24858,0.87296 1.37579,0.87296 0.52004,0 2.25366,1.47304 2.07461,1.76276 -0.10627,0.17194 0.0341,0.67061 0.31184,1.10815 0.27778,0.43754 0.61225,1.61265 0.74326,2.61136 l 0.2382,1.81584 -1.33982,0.5584 c -0.7369,0.30711 -1.73265,0.94203 -2.21278,1.41092 -1.25968,1.23021 -2.80763,2.60483 -2.93326,2.60483 -0.42646,0 -3.35314,3.27662 -3.3574,3.75884 -0.005,0.51891 -0.054,0.53072 -0.34384,0.0822 -0.26728,-0.41359 -0.33961,-0.33646 -0.34383,0.36664 -0.003,0.48973 -0.20045,1.08553 -0.43891,1.32398 -0.3453,0.3453 -0.34323,0.4894 0.0102,0.70779 0.24404,0.15083 0.40704,0.75552 0.36222,1.34377 -0.0759,0.99568 1.27164,3.58228 1.86936,3.5883 0.13027,10e-4 0.43012,0.9059 0.66633,2.0102 0.23622,1.10429 0.56175,2.15708 0.72341,2.33953 0.16166,0.18245 0.29393,0.7586 0.29393,1.28034 0,0.52174 0.1502,1.001 0.33377,1.06501 0.28104,0.098 1.17876,4.14138 1.61514,7.27467 0.0669,0.48013 0.27224,1.5015 0.45637,2.2697 0.18414,0.76821 0.43202,2.63726 0.55085,4.15344 0.11882,1.51619 0.36101,3.02758 0.53819,3.35864 0.17717,0.33106 0.22671,0.69736 0.11007,0.81399 -0.11663,0.11664 -0.0608,0.41228 0.12398,0.65698 0.18483,0.24471 0.54094,1.09549 0.79137,1.89062 0.25042,0.79513 0.82626,1.87739 1.27964,2.40502 0.59618,0.69382 0.76366,1.20102 0.60513,1.83264 -0.12055,0.48032 -0.25474,1.12652 -0.29819,1.436 -0.15082,1.07399 -0.60248,2.13402 -0.90929,2.13402 -0.16965,0 -0.30846,0.23784 -0.30846,0.52852 0,0.29068 -0.14182,0.80136 -0.31515,1.13485 -0.58683,1.12903 -1.0659,3.38986 -1.21559,5.73665 -0.082,1.28526 -0.23584,2.47726 -0.34191,2.64889 -0.10608,0.17162 -0.21608,0.92708 -0.24445,1.678783 -0.0548,1.45081 -0.61834,4.85575 -0.94867,5.73152 -0.10866,0.28808 -0.25188,1.03725 -0.31827,1.66482 -0.0969,0.91585 0.0356,1.20856 0.67141,1.4832 1.15992,0.50103 1.98452,1.0693 3.5391,2.43893 2.34769,2.06839 3.78472,3.49184 3.52515,3.49184 -0.13625,0 0.36375,0.58925 1.11111,1.30944 0.74736,0.72019 1.73428,2.05582 2.19316,2.96807 0.45887,0.91224 0.94162,1.65862 1.07274,1.65862 0.13112,0 0.4458,0.62853 0.69934,1.39674 0.25355,0.7682 0.55849,1.39674 0.6777,1.39674 0.24066,0 1.16484,2.03485 1.21792,2.68153 0.0185,0.22651 0.14966,0.52768 0.29125,0.66927 0.14156,0.14159 0.25742,0.59789 0.25742,1.014 0,0.41611 0.1093,0.86587 0.24289,0.99946 0.30463,0.30461 0.43254,0.98459 0.60029,3.19075 0.073,0.96025 0.24425,2.0209 0.3805,2.35699 0.15001,0.36992 0.0904,0.61107 -0.15105,0.61107 -0.28647,0 -0.29674,0.19079 -0.0364,0.67718 0.20958,0.39156 0.22976,0.75917 0.0479,0.87158 -0.17299,0.10691 -0.29125,0.82362 -0.26283,1.59267 0.0286,0.76905 -0.0297,1.3982 -0.12878,1.39812 -0.0993,-8e-5 -0.19652,0.61011 -0.21608,1.35599 -0.0195,0.74588 -0.29188,1.86996 -0.60517,2.49794 -0.31325,0.62799 -0.56959,1.66762 -0.56959,2.31029 0,0.64267 -0.15713,1.1685 -0.34918,1.1685 -0.19205,0 -0.34918,0.40733 -0.34918,0.90517 0,0.49785 -0.31427,1.30471 -0.69837,1.79302 -0.38411,0.4883 -0.69837,1.15897 -0.69837,1.49038 0,0.3314 -0.41902,1.21372 -0.93121,1.96072 -0.51214,0.74699 -0.95253,1.60796 -0.97863,1.91326 -0.0261,0.30531 -0.70699,1.22127 -1.51309,2.03547 -0.80611,0.8142 -1.46565,1.70362 -1.46565,1.97649 0,0.27286 -0.11785,0.47751 -0.26189,0.45477 -0.7275,-0.11488 -1.13485,0.0954 -1.13485,0.58573 0,0.29941 -0.15713,0.44727 -0.34918,0.32858 -0.19284,-0.11918 -0.34918,0.13216 -0.34918,0.56136 0,0.42745 -0.0943,0.68289 -0.20952,0.56766 -0.11523,-0.11523 -0.749,0.32998 -1.40837,0.98936 -0.65938,0.65938 -1.36003,1.19887 -1.55702,1.19887 -0.19698,0 -0.26104,0.15713 -0.14234,0.34918 0.11869,0.19205 0.0629,0.34918 -0.12392,0.34918 -0.18685,0 -1.16782,0.78567 -2.17994,1.74592 -1.01211,0.96026 -1.98361,1.74593 -2.15888,1.74593 -0.17527,0 -1.03273,0.62853 -1.90545,1.39673 -0.87273,0.76821 -1.87892,1.39674 -2.23599,1.39674 -0.35706,0 -0.6492,0.15713 -0.6492,0.34918 0,0.19205 -0.31427,0.34919 -0.69837,0.34919 -0.38411,0 -0.69837,0.15713 -0.69837,0.34918 0,0.19205 -0.31427,0.34919 -0.69837,0.34919 -0.3841,0 -0.69837,0.15713 -0.69837,0.34918 0,0.19205 -0.46212,0.34918 -1.02694,0.34918 -0.56482,0 -1.12406,0.15714 -1.24276,0.34919 -0.11869,0.19205 -0.7434,0.34918 -1.38824,0.34918 -0.64484,0 -1.22552,0.15924 -1.29039,0.35386 -0.15139,0.45417 -11.86192,1.22626 -12.27863,0.80955 z m 6.40225,-7.37068 c 0,-0.25764 0.15714,-0.37133 0.34919,-0.25263 0.19205,0.11869 0.34918,0.0607 0.34918,-0.12886 0,-0.18957 0.86631,-0.45291 1.92513,-0.5852 1.05882,-0.13229 2.01247,-0.38186 2.11923,-0.5546 0.10676,-0.17274 0.34726,-0.21941 0.53446,-0.10372 0.18719,0.1157 0.54222,0.0428 0.78894,-0.16194 0.24672,-0.20477 0.75052,-0.42341 1.11955,-0.48588 0.36903,-0.0625 1.17384,-0.37986 1.78847,-0.70532 0.61463,-0.32545 1.36102,-0.59173 1.65863,-0.59173 0.29761,0 0.54112,-0.13923 0.54112,-0.3094 0,-0.17017 0.57592,-0.58269 1.27982,-0.91672 0.70391,-0.33402 2.52466,-1.84548 4.04613,-3.35878 1.52146,-1.51331 2.93398,-2.64784 3.13893,-2.52118 0.21113,0.13049 0.27138,0.0665 0.13901,-0.1477 -0.12935,-0.20929 0.0937,-0.48187 0.49968,-0.61074 l 0.7333,-0.23274 -0.76134,-0.8104 c -0.41874,-0.44573 -1.17856,-0.91439 -1.68848,-1.04148 -0.50993,-0.12708 -1.39855,-0.44176 -1.9747,-0.69929 -3.06553,-1.37021 -4.51221,-1.9222 -5.03772,-1.9222 -0.32128,0 -0.73342,-0.14722 -0.91587,-0.32715 -0.4849,-0.47821 -6.48758,-1.98138 -7.36753,-1.84496 -0.79219,0.12282 -1.35129,1.78395 -1.20518,3.58064 0.0396,0.48662 -0.0961,1.63471 -0.30153,2.55132 -0.37047,1.65312 -0.79058,5.07985 -0.7667,6.25378 0.007,0.33609 -0.14646,0.61107 -0.34065,0.61107 -0.1942,0 -0.2994,0.27499 -0.23378,0.61108 0.13421,0.68738 -0.70256,1.83321 -1.33875,1.83321 -0.22939,0 -0.50874,0.19642 -0.62077,0.43648 -0.16295,0.34919 -0.24443,0.34919 -0.40738,0 -0.11203,-0.24006 -0.40948,-0.43648 -0.66101,-0.43648 -0.25153,0 -0.54776,-0.2357 -0.65831,-0.52377 -0.11055,-0.28808 -0.52019,-0.52378 -0.91032,-0.52378 -0.39772,0 -0.70933,-0.23009 -0.70933,-0.52377 0,-0.28808 0.17638,-0.52378 0.39194,-0.52378 0.27301,0 0.26169,-0.15695 -0.0373,-0.51721 -0.24262,-0.29233 -0.37106,-1.12733 -0.29541,-1.92051 0.0736,-0.77182 0.0324,-1.40331 -0.0915,-1.40331 -0.23171,0 -0.12005,-1.68075 0.20136,-3.03113 0.0997,-0.41878 0.0145,-1.20007 -0.18937,-1.73618 -0.41306,-1.08643 -0.5455,-2.08618 -0.8483,-6.40361 -0.11438,-1.6308 -0.35753,-3.11467 -0.54035,-3.29749 -0.29718,-0.29718 -2.36695,1.2135 -2.71974,1.98508 -0.0659,0.14404 -0.36854,0.26189 -0.67262,0.26189 -0.30408,0 -0.46642,0.0865 -0.36076,0.19211 0.2293,0.2293 -2.81676,3.47432 -3.2613,3.47432 -0.16973,0 -0.7009,0.45656 -1.18039,1.01457 -0.47949,0.55801 -0.87179,0.88721 -0.87179,0.73154 0,-0.15566 -0.31056,-0.002 -0.69014,0.34154 -0.37957,0.34351 -0.61782,0.74157 -0.52944,0.88457 0.25867,0.41853 -1.80451,0.69711 -3.47112,0.46867 -1.64951,-0.22609 -2.14257,-0.90283 -1.49755,-2.05541 0.19521,-0.34883 0.34306,-1.05177 0.32855,-1.5621 -0.0177,-0.6227 0.42453,-1.40657 1.34467,-2.38343 0.75407,-0.80056 1.50192,-1.45557 1.66188,-1.45557 0.15997,0 0.50109,-0.39283 0.75804,-0.87296 0.25696,-0.48013 0.64142,-0.87296 0.85437,-0.87296 0.37336,0 1.58992,-1.21429 1.58992,-1.58696 0,-0.10023 0.54942,-0.73165 1.22092,-1.40315 0.6715,-0.67151 1.49645,-1.64829 1.83322,-2.17063 0.86163,-1.33643 1.53692,-2.16018 2.44551,-2.98317 1.50033,-1.35896 1.42992,-1.40257 -5.64705,-3.49752 -0.86441,-0.25589 -1.57277,-0.75879 -1.92051,-1.36347 -0.57448,-0.99894 -1.42393,-1.29824 -1.42393,-0.50172 0,0.25341 -0.8549,1.36481 -1.89977,2.46977 -1.21783,1.28786 -1.82629,2.20054 -1.69505,2.54256 0.11261,0.29345 -0.0146,0.67241 -0.28262,0.84213 -0.33511,0.21219 -0.3537,0.31027 -0.0595,0.31395 0.32152,0.004 0.33781,0.24213 0.0655,0.95826 -0.19927,0.5241 -0.24495,0.83556 -0.10152,0.69213 0.14343,-0.14343 0.54137,0.64554 0.88431,1.75326 0.85315,2.75575 0.42096,4.4701 -1.30913,5.19298 -2.10405,0.87913 -2.29843,2.97094 -0.62126,6.68552 0.28181,0.62417 0.67897,1.13485 0.88255,1.13485 0.20359,0 0.28724,0.2161 0.18589,0.48021 -0.28871,0.75235 6.05468,8.12401 6.55782,7.62086 0.10243,-0.10242 0.18623,-0.0135 0.18623,0.19762 0,0.21112 0.31334,0.4833 0.69631,0.60485 0.38296,0.12155 0.89364,0.41739 1.13484,0.65744 0.75869,0.75503 3.61599,2.31128 4.24357,2.31128 0.33055,0 0.52404,0.12452 0.42999,0.2767 -0.094,0.15218 0.17165,0.29995 0.59047,0.32838 1.09041,0.074 3.38036,0.83538 4.60249,1.53028 1.25558,0.71392 4.01562,0.73989 4.01562,0.0378 z m 23.91912,-14.39459 c -0.1187,-0.19206 -0.37294,-0.34919 -0.56499,-0.34919 -0.19205,0 -0.25207,0.15713 -0.13338,0.34919 0.11869,0.19205 0.37294,0.34918 0.56499,0.34918 0.19205,0 0.25207,-0.15713 0.13338,-0.34918 z m 1.36789,-3.53851 c -0.10283,-0.16639 -0.0376,-0.30252 0.14497,-0.30252 0.18257,0 0.44,-0.43054 0.57208,-0.95676 0.13207,-0.52621 0.37786,-1.04188 0.54621,-1.14593 0.41847,-0.25863 1.35208,-3.7226 2.0008,-7.42356 0.52628,-3.00245 0.45338,-3.7125 -0.5255,-5.11842 -0.0588,-0.0844 -0.34789,0.19055 -0.64244,0.61107 -0.29455,0.42053 -0.8409,0.7646 -1.21411,0.7646 -0.37322,0 -0.67857,0.14655 -0.67857,0.32565 0,0.33154 -1.35667,0.91698 -1.83322,0.79109 -0.14404,-0.038 -0.26189,0.0879 -0.26189,0.28 0,0.19205 -0.16997,0.34918 -0.37772,0.34918 -0.20775,0 -1.3161,0.54997 -2.463,1.22215 -1.1469,0.67218 -2.23952,1.22214 -2.42803,1.22214 -0.18852,0 -0.75367,0.26923 -1.25588,0.59829 -0.50221,0.32906 -1.15162,0.6333 -1.44313,0.67609 -0.29151,0.0428 -0.96864,0.40208 -1.50475,0.79844 -0.5361,0.39636 -1.13823,0.72066 -1.33806,0.72066 -0.69057,0 -0.36064,1.06586 0.42234,1.36439 3.21508,1.22584 9.06218,4.42355 10.02667,5.48345 1.07069,1.1766 1.15404,1.20647 1.78172,0.63842 0.36216,-0.32775 0.57434,-0.73205 0.47151,-0.89843 z m -165.46272,-4.87709 c 0.13508,-0.21856 0.67117,-0.29764 1.24276,-0.18332 0.55286,0.11057 1.0052,0.0751 1.0052,-0.0789 0,-0.15399 0.45279,-0.21353 1.0062,-0.1323 0.55341,0.0812 1.11265,-0.0246 1.24276,-0.23507 0.1301,-0.21051 0.77724,-0.38275 1.43808,-0.38275 0.66085,0 1.20154,-0.1388 1.20154,-0.30846 0,-0.16965 0.31427,-0.39063 0.69837,-0.49108 1.06884,-0.27951 0.83922,-0.84526 -0.69875,-1.72162 -0.76841,-0.43784 -1.48636,-1.07192 -1.59546,-1.40904 -0.10908,-0.33713 -0.55386,-1.04423 -0.98838,-1.57133 -0.43452,-0.52711 -1.17005,-1.66547 -1.6345,-2.5297 -0.46445,-0.86423 -1.04087,-1.69699 -1.28093,-1.85057 -0.24007,-0.15358 -0.43648,-0.42677 -0.43648,-0.60708 0,-0.18031 -0.27498,-0.64813 -0.61107,-1.03959 -0.52851,-0.61557 -1.26765,-1.91573 -3.81935,-6.71831 -0.57254,-1.07759 -1.54795,-1.7302 -2.0483,-1.37046 -0.42246,0.30373 -2.61164,4.64894 -2.60505,5.17064 0.003,0.21655 -0.23595,0.59368 -0.53042,0.83807 -0.29448,0.24439 -0.47244,0.61718 -0.39548,0.82842 0.077,0.21124 -0.0558,0.77691 -0.29501,1.25704 -0.51723,1.03809 -0.99228,2.13089 -1.73471,3.99055 -0.54372,1.36193 -0.54029,1.37928 0.48397,2.44428 0.56737,0.58995 1.13805,1.50474 1.26818,2.03288 0.13013,0.52814 0.34708,0.96026 0.48209,0.96026 0.13502,0 0.57438,0.30641 0.97636,0.6809 1.15921,1.07997 5.08169,2.72774 6.62578,2.78337 0.42078,0.0152 0.87195,-0.14539 1.0026,-0.35679 z m 12.85757,-2.81762 c 0.79048,-0.22468 1.76164,-0.69608 2.15812,-1.04755 0.39648,-0.35148 0.98573,-0.63905 1.30944,-0.63905 0.32371,0 0.58857,-0.2357 0.58857,-0.52377 0,-0.28808 0.17536,-0.52378 0.38969,-0.52378 0.21434,0 1.13891,-0.54997 2.0546,-1.22215 0.91569,-0.67218 1.84953,-1.22214 2.0752,-1.22214 0.22567,0 0.33139,-0.12769 0.23494,-0.28374 -0.0965,-0.15606 0.45937,-0.98101 1.23516,-1.83322 0.77579,-0.85221 2.1628,-2.37367 3.08225,-3.38103 0.91945,-1.00736 1.93305,-2.38227 2.25245,-3.05536 0.3194,-0.67309 0.73977,-1.22381 0.93414,-1.22381 0.19438,0 0.24544,-0.1747 0.11348,-0.38822 -0.13197,-0.21353 -0.0508,-0.50514 0.18046,-0.64804 0.23122,-0.14291 0.50774,-0.911 0.61449,-1.70689 l 0.19409,-1.44706 -2.07124,0 c -1.13919,0 -2.22053,-0.13263 -2.40297,-0.29474 -0.18245,-0.1621 -1.20857,-0.64092 -2.28025,-1.06404 -1.5184,-0.59949 -2.515,-0.7464 -4.51464,-0.66552 l -2.56611,0.10379 1.08877,1.04755 c 0.59883,0.57616 1.53048,1.45091 2.07035,1.9439 1.78946,1.6341 2.29697,2.39349 2.43467,3.64301 0.0956,0.86718 -0.019,1.29677 -0.38312,1.43649 -0.44224,0.1697 -0.42069,0.33729 0.14496,1.12736 1.47174,2.05566 0.67993,3.40949 -1.39012,2.37681 -0.63484,-0.3167 -1.42777,-0.57582 -1.76205,-0.57582 -0.33429,0 -1.11243,-0.4714 -1.7292,-1.04755 -0.61678,-0.57616 -1.26193,-1.04755 -1.43367,-1.04755 -0.17174,0 -0.31225,-0.12326 -0.31225,-0.2739 0,-0.15065 -0.49311,-0.56518 -1.09579,-0.9212 -0.60268,-0.35601 -1.36473,-0.90057 -1.69345,-1.21013 -1.38258,-1.30204 -2.0937,-1.72992 -3.19944,-1.92509 -0.64328,-0.11354 -1.66167,-0.3007 -2.2631,-0.41591 -0.60142,-0.11521 -1.1707,-0.0765 -1.26507,0.086 -0.16642,0.28657 0.76165,2.55125 1.4805,3.6127 0.38929,0.57484 1.13633,2.41519 1.2048,2.96807 0.0238,0.19205 0.54925,1.38576 1.1677,2.6527 1.26262,2.58656 1.31637,2.86405 0.66018,3.40864 -0.27474,0.22801 -0.40111,0.81568 -0.30955,1.43949 0.12359,0.84213 0.0273,1.05418 -0.47853,1.05418 -0.49252,0 -0.54013,0.0931 -0.21422,0.41902 0.23046,0.23046 0.41902,0.70186 0.41902,1.04756 0,0.75275 1.13445,0.82892 3.27674,0.22002 z m 137.0953,-6.11682 c 0.48013,-0.19926 1.50149,-0.5628 2.2697,-0.80789 0.7682,-0.24508 1.711,-0.55919 2.0951,-0.69802 1.74218,-0.62968 3.23782,-1.04755 3.74942,-1.04755 0.30645,0 0.60956,-0.11785 0.67358,-0.26189 0.20433,-0.45974 3.49362,-1.97731 4.17458,-1.92602 0.36069,0.0272 0.6558,-0.098 0.6558,-0.27808 0,-0.18012 0.31427,-0.32749 0.69837,-0.32749 0.3841,0 0.69837,-0.13749 0.69837,-0.30553 0,-0.16805 0.39938,-0.30554 0.88751,-0.30554 0.48813,0 0.98474,-0.0972 1.10357,-0.21606 0.18947,-0.18947 -1.16016,-3.24866 -1.63774,-3.71226 -0.0989,-0.096 -0.41531,-0.63818 -0.70308,-1.2048 -0.88196,-1.73654 -6.6888,-7.39199 -7.80664,-7.60311 -0.91569,-0.17294 -1.05506,-0.0549 -1.68767,1.42893 -1.44027,3.37834 -2.01738,4.5376 -2.36627,4.75322 -0.19817,0.12248 -0.36031,0.52768 -0.36031,0.90045 0,0.37277 -0.15713,0.67776 -0.34919,0.67776 -0.19205,0 -0.34918,0.23783 -0.34918,0.52851 0,0.29068 -0.13784,0.80137 -0.30632,1.13485 -0.51469,1.01879 -1.09042,3.05738 -1.09042,3.86108 0,0.41848 -0.13242,0.76087 -0.29428,0.76087 -0.16186,0 -0.65046,0.74638 -1.08577,1.65863 -0.43531,0.91224 -0.93142,1.93147 -1.10245,2.26496 -0.17103,0.33348 -0.31097,0.75618 -0.31097,0.93933 0,0.39752 1.22976,0.28968 2.44429,-0.21435 z m -30.9028,-1.85509 c 0.11869,-0.19205 0.0494,-0.34919 -0.15398,-0.34919 -0.20339,0 -0.3698,0.15714 -0.3698,0.34919 0,0.19205 0.0693,0.34918 0.15399,0.34918 0.0847,0 0.25109,-0.15713 0.36979,-0.34918 z m -135.55165,-2.32148 c -0.0996,-0.2596 -0.0414,-0.472 0.12926,-0.472 0.17071,0 0.34213,-0.38355 0.38092,-0.85233 0.0388,-0.46879 0.38734,-1.41637 0.77453,-2.10573 0.3872,-0.68936 0.70399,-1.56501 0.70399,-1.94588 0,-0.38086 0.13994,-0.96533 0.31097,-1.29881 0.17103,-0.33349 0.67473,-1.392 1.11933,-2.35226 0.4446,-0.96026 1.09032,-2.16301 1.43495,-2.67278 0.34463,-0.50978 0.62659,-1.17973 0.62659,-1.48878 0,-0.56755 0.11756,-0.85448 1.19203,-2.90942 0.32636,-0.62417 0.46664,-1.13725 0.31175,-1.14019 -0.1549,-0.003 -0.0459,-0.16599 0.24214,-0.36232 0.36345,-0.2477 -0.81229,-0.29986 -3.84102,-0.17037 -6.14481,0.26269 -7.76368,0.45603 -8.08722,0.96584 -0.27517,0.43359 -0.34385,1.98244 -0.40685,9.17476 -0.0362,4.13257 0.6323,7.69117 1.56793,8.3465 0.86308,0.60453 3.81814,0.007 3.5407,-0.71623 z m 155.47217,-1.77648 c 0.2774,-0.37936 0.33072,-0.81627 0.14254,-1.16788 -0.16536,-0.30898 -0.25713,-1.01832 -0.20395,-1.5763 0.0532,-0.55798 -0.0159,-1.17164 -0.15344,-1.36369 -0.13758,-0.19205 -0.33734,-1.54167 -0.4439,-2.99916 -0.10657,-1.45749 -0.2345,-2.79312 -0.28429,-2.96807 -0.16398,-0.57618 1.09823,-2.57012 2.00167,-3.16208 0.56377,-0.3694 0.74458,-0.66861 0.49664,-0.82184 -0.4326,-0.26737 -3.49281,0.63519 -3.49281,1.03015 0,0.13727 -0.49588,0.24959 -1.10196,0.24959 -0.65959,0 -1.32544,0.26868 -1.65863,0.66927 -0.30616,0.3681 -1.02805,0.90497 -1.60421,1.19305 -0.57615,0.28807 -1.37942,0.83804 -1.78504,1.22214 -0.40562,0.3841 -1.07344,0.92947 -1.48403,1.21194 -0.4106,0.28246 -0.74655,0.74076 -0.74655,1.01845 0,0.27769 -0.0963,0.40857 -0.21404,0.29084 -0.11772,-0.11772 -0.58897,0.52391 -1.04721,1.42584 -0.9608,1.8911 -0.74349,2.26736 1.54143,2.66886 1.65215,0.29032 6.82327,1.96671 7.05269,2.28638 0.14811,0.20636 1.98871,1.24807 2.4058,1.36158 0.0748,0.0204 0.33553,-0.2357 0.57929,-0.56907 z m -68.9211,-3.46362 c 0.80099,-0.72489 0.79407,-1.32947 -0.0353,-3.08854 -0.62147,-1.31808 -1.35604,-2.19788 -5.34954,-6.40717 -0.91224,-0.96154 -1.65862,-1.91673 -1.65862,-2.12264 0,-0.20591 -0.11785,-0.37546 -0.26189,-0.37677 -0.14404,-0.001 -0.65472,-0.59056 -1.13485,-1.30944 -0.48013,-0.71888 -1.16128,-1.62132 -1.51366,-2.00543 -0.35239,-0.3841 -0.88345,-1.16208 -1.18013,-1.72884 -0.29668,-0.56677 -0.75475,-1.2458 -1.01792,-1.50898 -0.26317,-0.26317 -0.4785,-0.6974 -0.4785,-0.96494 0,-0.26754 -0.38723,-1.18004 -0.86051,-2.02777 -0.47328,-0.84772 -0.94459,-2.01855 -1.04735,-2.60184 -0.10276,-0.58329 -0.50119,-1.7939 -0.88541,-2.690233 -0.38421,-0.89633 -0.70206,-1.89166 -0.70634,-2.21183 -0.004,-0.32016 -0.31504,-0.97495 -0.6906,-1.45508 -0.37556,-0.48013 -0.68633,-1.07564 -0.6906,-1.32335 -0.01,-0.57833 -1.11689,-2.74602 -2.97958,-5.83492 -0.81069,-1.34436 -2.21351,-3.84181 -3.1174,-5.54989 -0.90388,-1.70808 -1.86726,-3.32943 -2.14084,-3.60301 -0.67314,-0.67314 -1.60436,-0.32092 -3.25368,1.23067 -1.56023,1.46777 -4.23362,3.82203 -4.75333,4.1859 -0.99966,0.69992 -1.27214,1.41907 -0.84492,2.22997 0.23413,0.44439 0.52002,0.88655 0.6353,0.98258 0.35243,0.29354 2.99747,4.26925 3.94932,5.93613 0.49351,0.86423 1.09293,2.27843 1.33204,3.14266 0.99018,3.578783 1.2246,3.804523 4.00705,3.858683 2.07569,0.0404 5.12028,0.77215 6.10112,1.46638 0.47485,0.33609 1.11846,0.61107 1.43024,0.61107 0.96171,0 0.62058,2.51175 -0.41487,3.05476 -0.45715,0.23974 -0.78067,0.63257 -0.71894,0.87296 0.0859,0.3345 0.0145,0.34104 -0.30444,0.0279 -0.49314,-0.48428 -1.47674,-0.20584 -1.14858,0.32514 0.1368,0.22134 0.0574,0.26202 -0.2004,0.10269 -0.23482,-0.14513 -0.34853,-0.46819 -0.2527,-0.71791 0.0998,-0.26017 -0.15094,-0.54126 -0.58727,-0.65829 -1.34196,-0.3599 -1.89776,-0.23071 -2.08482,0.4846 -0.14233,0.54424 -0.47886,0.69955 -1.52476,0.70372 -0.73817,0.003 -1.53569,0.1283 -1.77225,0.27856 -0.41635,0.26447 -0.97085,3.87489 -0.8681,5.65222 0.0278,0.48013 -0.11803,1.72678 -0.32399,2.77032 -0.3325,1.68477 -0.30402,1.94886 0.25414,2.357 0.34572,0.2528 0.9521,0.4606 1.34751,0.46178 0.39541,0.001 1.11176,0.205 1.59188,0.45292 0.48013,0.24793 1.89433,0.82252 3.14266,1.27687 1.24834,0.45436 2.43177,0.94837 2.62985,1.09782 0.19809,0.14945 1.76081,0.67761 3.47273,1.17371 1.71192,0.49609 3.57743,1.13389 4.14559,1.41733 0.56816,0.28343 1.46052,0.51533 1.98302,0.51533 0.52251,0 1.59829,0.22873 2.39064,0.50829 0.79236,0.27956 1.44064,0.40526 1.44064,0.27935 0,-0.12592 0.18856,-0.0404 0.41903,0.19008 0.23046,0.23046 0.77115,0.41902 1.20153,0.41902 0.43038,0 0.87963,0.15713 0.99833,0.34918 0.33345,0.53954 1.62019,0.41321 2.32949,-0.22871 z m 13.92076,-4.64568 c 0.66493,-0.56835 1.48394,-1.03975 1.82003,-1.04755 0.33609,-0.008 0.90982,-0.31295 1.27497,-0.67809 0.36514,-0.36514 0.97915,-0.76395 1.36448,-0.88625 0.38532,-0.1223 0.79552,-0.46977 0.91156,-0.77217 0.18009,-0.4693 0.29688,-0.48014 0.79765,-0.074 0.33945,0.2753 0.48245,0.30204 0.33936,0.0634 -0.13602,-0.22679 -0.0876,-0.51105 0.10756,-0.63168 0.19519,-0.12063 0.35488,-0.0712 0.35488,0.10982 0,0.18103 0.6519,-0.28481 1.44867,-1.0352 0.79676,-0.75039 2.01454,-1.62748 2.70617,-1.94909 1.21408,-0.56454 3.16794,-1.79747 3.52722,-2.22575 0.096,-0.11447 0.57836,-0.30676 1.07185,-0.42732 0.49349,-0.12056 1.46779,-0.77329 2.16509,-1.4505 0.69731,-0.67722 1.51132,-1.23131 1.80892,-1.23131 0.2976,0 0.54349,-0.19641 0.54643,-0.43648 0.004,-0.3362 0.0714,-0.33241 0.29271,0.0165 0.22975,0.36218 0.37663,0.34545 0.73259,-0.0834 0.24487,-0.29505 0.59953,-0.44109 0.78813,-0.32453 0.48293,0.29847 2.04451,-0.59948 1.78179,-1.02457 -0.11915,-0.19278 -0.0479,-0.24622 0.15835,-0.11875 0.20625,0.12746 0.61213,-0.005 0.90198,-0.29523 0.28984,-0.28983 0.77391,-0.52698 1.0757,-0.52698 0.3018,0 0.54872,-0.16641 0.54872,-0.36979 0,-0.20339 0.14005,-0.28324 0.31123,-0.17744 0.5009,0.30957 3.52979,-1.18249 3.52979,-1.7388 0,-0.30077 0.33638,-0.50744 0.82587,-0.50744 0.45423,0 1.2254,-0.31427 1.7137,-0.69837 0.48831,-0.3841 1.12876,-0.69837 1.42322,-0.69837 0.29447,0 0.64097,-0.17082 0.77,-0.3796 0.12903,-0.20879 0.53714,-0.30049 0.9069,-0.2038 0.41874,0.1095 0.99051,-0.14241 1.51605,-0.66795 0.46407,-0.46407 1.0866,-0.84375 1.38341,-0.84375 0.2968,0 0.53964,-0.12557 0.53964,-0.27904 0,-0.331093 2.05938,-1.117703 2.92617,-1.117703 0.33379,0 0.50978,-0.15713 0.39108,-0.34919 -0.11869,-0.19205 -0.0494,-0.34918 0.15398,-0.34918 0.71668,0 0.89791,-0.10007 1.34985,-0.74531 0.25096,-0.35828 0.76164,-0.65143 1.13485,-0.65143 0.37322,0 0.67857,-0.1664 0.67857,-0.36979 0,-0.20339 0.13933,-0.28368 0.30962,-0.17844 0.17029,0.10525 0.5038,-0.0426 0.74113,-0.32857 0.23732,-0.28596 0.80509,-0.51993 1.2617,-0.51993 0.45662,0 0.83021,-0.15714 0.83021,-0.34919 0,-0.19205 0.2276,-0.34918 0.50579,-0.34918 0.27818,0 0.93576,-0.3985 1.4613,-0.88554 0.52553,-0.48705 1.17032,-0.80312 1.43286,-0.70237 0.26254,0.10074 0.39347,0.0475 0.29096,-0.11841 -0.10251,-0.16587 0.51786,-0.49875 1.3786,-0.73974 0.86074,-0.241 1.56499,-0.58613 1.56499,-0.76697 0,-0.18084 0.36464,-0.28101 0.81033,-0.2226 0.44568,0.0584 1.19206,-0.14341 1.65862,-0.44846 0.46656,-0.30506 1.20413,-0.66717 1.63903,-0.80471 0.43491,-0.13753 0.70173,-0.39408 0.59294,-0.5701 -0.10879,-0.17603 0.0302,-0.23257 0.30879,-0.12565 0.27863,0.10692 0.60832,0.0298 0.73265,-0.17138 0.31672,-0.51246 -0.42382,-1.77694 -1.04066,-1.77694 -0.28132,0 -0.51149,-0.11868 -0.51149,-0.26374 0,-0.14506 -0.51068,-0.43954 -1.13485,-0.65439 -0.62417,-0.21486 -3.41328,-1.21577 -6.19802,-2.22425 -12.1705,-4.40749 -12.83534,-4.57739 -20.42727,-5.22024 -4.62142,-0.39131 -8.37149,-0.59977 -16.76084,-0.93167 -3.07283,-0.12157 -6.76545,-0.28253 -8.20583,-0.3577 -2.38599,-0.1245 -7.91802,-0.26313 -19.94264,-0.49977 -2.42217,-0.0477 -5.95766,-0.29491 -7.85664,-0.54942 -1.89899,-0.2545 -4.31694,-0.55471 -5.37322,-0.66713 -1.05628,-0.11241 -2.10544,-0.26245 -2.33146,-0.33342 -0.54254,-0.17033 -1.30827,0.74441 -0.85674,1.02347 0.37387,0.23106 3.1882,5.98233 3.1882,6.5153 0,0.1847 0.39283,0.9581 0.87296,1.71867 0.48013,0.76057 0.87296,1.47317 0.87296,1.58355 0,0.18826 0.2806,0.82948 2.2891,5.23103 0.43955,0.96328 0.90702,2.18106 1.03882,2.70618 0.1318,0.52512 0.37973,0.95477 0.55096,0.95477 0.17123,0 0.31133,0.23627 0.31133,0.52504 0,0.28877 0.31427,1.11139 0.69837,1.82805 0.3841,0.71665 0.69837,1.50174 0.69837,1.74465 0,0.24291 0.16641,0.441653 0.36979,0.441653 0.20339,0 0.28071,0.14414 0.17182,0.32032 -0.10888,0.17618 0.40507,1.23683 1.14212,2.357 0.73705,1.12016 1.63641,2.54735 1.99857,3.17152 0.36217,0.62416 0.86693,1.13484 1.12171,1.13484 0.25477,0 0.65301,0.15986 0.88497,0.35524 0.23196,0.19538 0.95696,0.70606 1.61112,1.13485 0.65416,0.42878 1.36126,1.09026 1.57133,1.46994 0.21007,0.37967 0.61765,0.87782 0.90573,1.10698 0.36289,0.28868 0.50116,0.96147 0.45014,2.19044 -0.0405,0.97559 0.0774,1.77379 0.26189,1.77379 0.18453,0 0.33552,-0.13058 0.33552,-0.29018 0,-0.1596 0.39707,-0.50268 0.88238,-0.76241 0.48531,-0.25973 0.96948,-0.87553 1.07594,-1.36845 0.61522,-2.84869 1.46442,-4.46959 2.47444,-4.72309 1.89624,-0.47593 0.46997,-1.59124 -5.7553,-4.50053 -1.08797,-0.50845 -1.46778,-0.9352 -1.79025,-2.01152 -0.45996,-1.535213 -0.20289,-3.573923 0.52704,-4.179713 0.26612,-0.22086 1.54602,-0.4826 2.84424,-0.58165 1.29821,-0.099 2.54676,-0.32768 2.77455,-0.50807 0.22778,-0.18039 0.85631,-0.45159 1.39673,-0.60267 1.44002,-0.40258 2.69354,0.35494 5.69657,3.44252 1.44038,1.480943 3.74626,3.440613 5.12417,4.354833 2.48154,1.64647 3.18927,2.43652 2.54135,2.83695 -0.18437,0.11395 -0.23701,0.59848 -0.11697,1.07673 0.16157,0.64376 -0.0875,1.32515 -0.95898,2.62409 l -1.17722,1.75453 -1.74592,-0.19843 c -4.05472,-0.46084 -4.66443,-0.42118 -4.91608,0.31981 -0.13044,0.3841 -0.287,1.24833 -0.3479,1.92051 -0.40095,4.42543 -1.01833,5.29623 -3.81481,5.38071 -1.79674,0.0543 -1.36263,2.07719 0.70269,3.27449 0.94542,0.54808 0.9142,0.55643 2.27857,-0.60977 z m -71.94513,-5.2092 c 0,-0.85939 -0.48851,-1.19779 -2.74628,-1.90241 -3.56005,-1.11104 -3.86183,-0.52413 -0.65827,1.28021 2.50332,1.40995 3.40455,1.57465 3.40455,0.6222 z m 134.78509,-1.168 c 0,-0.888 -0.79319,-1.10796 -2.2553,-0.62543 -1.44471,0.4768 -1.58753,0.95091 -0.3779,1.25451 0.47225,0.11852 1.05323,0.44997 1.29107,0.73655 0.37995,0.45783 0.48762,0.44557 0.88728,-0.101 0.25017,-0.34213 0.45485,-0.91121 0.45485,-1.26463 z m -112.62827,-2.6562 c 0.2792,-2.20609 0.31232,-4.94319 0.0629,-5.19267 -0.14021,-0.14021 -0.74224,-0.41754 -1.33784,-0.61628 -0.90448,-0.30181 -1.1517,-0.63464 -1.50042,-2.01998 -0.22963,-0.91224 -0.29589,-1.65862 -0.14724,-1.65862 0.35474,0 1.3677,-1.01901 1.3677,-1.37588 0,-0.36703 -2.17338,-0.10799 -2.42432,0.28895 -0.10701,0.16928 -0.49761,0.36523 -0.868,0.43546 -0.64137,0.12161 -0.64434,0.15679 -0.0624,0.73876 0.58198,0.58198 0.54837,0.61108 -0.70585,0.61108 -1.02427,0 -1.2238,0.0931 -0.8979,0.41902 0.23046,0.23046 0.41662,0.58401 0.41368,0.78566 -0.003,0.20997 -0.1199,0.18642 -0.2734,-0.0551 -0.25798,-0.40591 -0.65819,-0.325 -3.82784,0.77384 -0.24208,0.0839 -0.49291,0.1176 -0.5574,0.0748 -0.0645,-0.0428 -0.33783,0.10193 -0.60741,0.32153 -1.02794,0.83735 -3.16033,1.87043 -3.86077,1.87043 -0.60975,0 -0.65865,0.0866 -0.29581,0.52377 0.23908,0.28808 0.63555,0.52378 0.88104,0.52378 0.24549,0 1.2869,0.3913 2.31424,0.86955 1.02734,0.47825 2.15841,0.87108 2.51349,0.87296 0.35507,0.002 1.2193,0.25235 1.92051,0.55662 5.9215,2.56945 7.0773,2.97215 7.48181,2.60676 0.14892,-0.13451 0.33397,-0.74403 0.41123,-1.35447 z m -49.41635,-6.35126 c 1.04354,-0.18855 3.12555,-0.34282 4.62669,-0.34282 2.46286,0 2.72934,-0.0657 2.72934,-0.67342 0,-0.37039 -0.2357,-0.90913 -0.52378,-1.19721 -0.28807,-0.28807 -0.52377,-0.69213 -0.52377,-0.8979 0,-0.20577 -0.12326,-0.37413 -0.2739,-0.37413 -0.15064,0 -0.53837,-0.43211 -0.86161,-0.96025 -0.74468,-1.21671 -2.16445,-2.789393 -3.83818,-4.251563 -1.1725,-1.02429 -1.33217,-1.07708 -1.54896,-0.51214 -0.13294,0.34642 -0.47725,0.90496 -0.76514,1.2412 -0.2879,0.33623 -0.56107,0.86765 -0.60704,1.18094 -0.046,0.31328 -0.33118,0.843173 -0.63378,1.177543 -0.3026,0.33436 -0.55018,0.91769 -0.55018,1.29627 0,0.37858 -0.13925,0.83761 -0.30943,1.02006 -0.17019,0.18244 -0.54156,1.14216 -0.82527,2.13269 l -0.51584,1.80097 1.26175,-0.14871 c 0.69396,-0.0818 2.11556,-0.30298 3.1591,-0.49153 z m 16.0839,-6.29641 c 0.001,-0.297683 0.14406,-0.690513 0.31801,-0.872963 0.65104,-0.68283 1.77883,-2.99631 1.77883,-3.64897 0,-0.37242 0.31426,-1.23665 0.69837,-1.92052 0.3841,-0.68386 0.69837,-1.40696 0.69837,-1.60689 0,-0.19992 0.23714,-0.60064 0.52698,-0.89049 0.28984,-0.28984 0.4377,-0.67145 0.32858,-0.84802 -0.10913,-0.17657 -0.032,-0.32103 0.17138,-0.32103 0.20339,0 0.36979,-0.15884 0.36979,-0.35299 0,-0.19414 0.32696,-1.04857 0.72658,-1.89873 0.5434,-1.15602 0.87354,-1.49318 1.30945,-1.33729 0.32057,0.11464 0.47053,0.0842 0.33325,-0.0677 -0.13728,-0.15188 -0.0834,-0.58661 0.11964,-0.96608 0.27004,-0.50456 0.47315,-0.58605 0.75593,-0.30328 0.28277,0.28278 0.27408,0.49927 -0.0323,0.8057 -0.23046,0.23046 -0.41951,0.66257 -0.4201,0.96025 -0.001,0.52921 -2.0874,4.90838 -2.72466,5.71896 -0.17695,0.22508 -0.31695,0.65906 -0.31113,0.96443 0.006,0.30535 -0.34177,1.28311 -0.77245,2.17278 -0.43068,0.88967 -0.83607,2.13259 -0.90086,2.76205 -0.0648,0.62946 -0.14436,1.14447 -0.17682,1.14447 -0.0325,0 -0.13276,0.452563 -0.22292,1.005693 -0.14907,0.91467 -0.0912,0.98327 0.63979,0.75789 0.44203,-0.13629 1.40683,-0.22812 2.14399,-0.20406 1.27065,0.0415 1.57908,-0.19337 5.93613,-4.519673 2.52771,-2.50987 5.03671,-4.8515 5.57555,-5.20363 1.14477,-0.7481 3.73426,-3.37732 3.73426,-3.79156 0,-0.40131 -2.79263,-2.16979 -3.84103,-2.4324 -0.48012,-0.12027 -1.42292,-0.52941 -2.0951,-0.9092 -4.5243,-2.55629 -10.82992,-2.92251 -16.22435,-0.94227 -1.72146,0.63193 -3.3433,1.36233 -3.60407,1.62311 -0.26078,0.26077 -0.65934,0.47916 -0.88569,0.48529 -0.22634,0.006 -1.1965,0.79181 -2.15589,1.74592 -0.9594,0.95412 -1.86292,1.73477 -2.00781,1.73477 -0.68405,0 -0.11887,1.37426 1.14885,2.79347 0.77197,0.86423 1.51639,1.7286 1.65427,1.92083 0.13787,0.19222 0.65572,0.89932 1.15077,1.57133 0.49505,0.672 1.14134,1.69323 1.4362,2.26938 1.17211,2.2903 2.53013,4.552953 2.88076,4.799753 0.43265,0.30452 1.93693,-1.40052 1.93949,-2.19833 z m 6.30711,-4.210243 c 0.26775,-0.50029 0.50786,-0.62181 0.75007,-0.37961 0.44243,0.44244 0.0633,1.11547 -0.62843,1.11547 -0.41601,0 -0.43947,-0.14198 -0.12164,-0.73586 z m 3.15016,-6.10233 c 0.0168,-0.40678 0.0995,-0.48952 0.21097,-0.21097 0.10087,0.25207 0.0885,0.55324 -0.0275,0.66927 -0.11603,0.11604 -0.19856,-0.0902 -0.1834,-0.4583 z m 16.03491,10.324723 c 1.24833,-0.361743 2.95205,-0.832773 3.78602,-1.046733 1.41006,-0.36174 1.50049,-0.45475 1.29033,-1.32711 -0.1243,-0.51595 -0.45309,-1.11255 -0.73066,-1.32578 -0.27756,-0.21322 -0.50466,-0.51889 -0.50466,-0.67926 0,-0.45578 -1.82851,-2.25031 -2.29292,-2.25031 -0.52019,0 -3.09584,2.47171 -3.39906,3.26189 -0.1235,0.32185 -0.58281,0.74842 -1.02069,0.94792 -0.98326,0.44801 -2.47307,3.013443 -1.89163,3.257383 0.52824,0.22163 2.00046,-0.0374 4.76327,-0.838 z m 28.79954,-56.549333 c 0.71261,-1.15302 -8.15028,-4.31021 -13.4133,-4.77815 -1.0441,-0.0928 -2.14403,-0.29933 -2.44429,-0.45888 -0.30025,-0.15955 -1.76484,-0.39516 -3.25464,-0.52358 -2.25639,-0.19451 -2.80433,-0.1379 -3.28122,0.339 -0.53054,0.53053 -0.52395,0.61763 0.0898,1.18841 1.32336,1.23059 6.97607,2.41331 10.55131,2.20765 2.14067,-0.12313 2.70569,-0.0195 4.31822,0.7922 2.66062,1.33925 6.93079,2.04769 7.43408,1.23335 z M 75.87206,127.6268 c -0.72668,-0.14614 -1.57672,-0.57157 -1.88896,-0.9454 -0.31225,-0.37383 -0.6658,-0.58162 -0.78567,-0.46175 -0.11987,0.11987 -0.21794,0.0346 -0.21794,-0.18944 0,-0.22406 -0.2357,-0.40738 -0.52377,-0.40738 -0.28808,0 -0.52378,-0.30589 -0.52378,-0.67974 0,-0.61855 0.22005,-0.67052 2.44429,-0.57733 2.42479,0.1016 2.96604,-0.17662 2.07568,-1.06697 -0.25869,-0.2587 -0.0504,-0.50041 0.69837,-0.81058 0.58683,-0.24307 1.06698,-0.60621 1.06698,-0.80697 0,-0.20076 -0.1034,-0.26163 -0.22976,-0.13526 -0.24198,0.24198 -1.16698,-0.37975 -1.16698,-0.78437 0,-0.12997 0.56741,-0.17007 1.26091,-0.0891 0.86818,0.10136 1.11289,0.23956 0.78566,0.44372 -0.36232,0.22606 -0.38322,0.44408 -0.088,0.91753 0.33225,0.53277 0.8284,0.6071 3.49184,0.52308 3.54669,-0.11189 4.25975,-0.19211 5.11237,-0.57519 0.33609,-0.15101 0.83242,-0.18962 1.10296,-0.0858 0.27055,0.10382 1.29191,-0.0223 2.2697,-0.28022 0.97779,-0.25794 1.77781,-0.38539 1.77781,-0.28323 0,0.10215 0.21578,0.007 0.47951,-0.21223 0.26374,-0.21888 0.72761,-0.30276 1.03083,-0.1864 0.90596,0.34765 1.41397,-0.19904 0.69295,-0.74571 -0.58921,-0.44672 -0.5729,-0.47887 0.241,-0.47504 0.48012,0.002 1.58005,0.14146 2.44429,0.30934 1.15927,0.2252 1.70868,0.18535 2.0951,-0.15197 0.28808,-0.25148 1.15231,-0.53613 1.92051,-0.63258 0.76821,-0.0964 2.02527,-0.33647 2.79348,-0.53341 0.7682,-0.19693 2.85767,-0.69461 4.64327,-1.10595 1.78559,-0.41134 3.88736,-0.974 4.67059,-1.25033 2.23781,-0.78955 3.50844,-0.65008 4.61676,0.50676 l 0.96688,1.00921 -0.87695,1.38917 c -0.76749,1.21579 -4.69822,4.50651 -6.56026,5.49212 -0.35816,0.18958 -0.6512,0.47384 -0.6512,0.63168 0,0.15784 -0.1455,0.19707 -0.32334,0.0872 -0.17783,-0.10991 -1.05582,0.0489 -1.95107,0.3528 -0.89526,0.30395 -2.09099,0.5658 -2.65719,0.5819 -0.56619,0.0161 -1.09751,0.13941 -1.1807,0.27402 -0.0832,0.13461 -1.13824,0.27445 -2.34454,0.31076 -4.33094,0.13034 -8.90484,0.3711 -13.34841,0.70264 -2.48636,0.1855 -4.66994,0.24501 -4.85241,0.13224 -0.18248,-0.11278 -1.21228,-0.16112 -2.28846,-0.10743 -3.85116,0.19212 -4.91978,0.17764 -6.22239,-0.0843 z m 7.4205,-3.61305 c -0.5917,-0.5917 -1.04835,-0.6101 -2.03511,-0.082 -0.70722,0.37849 -0.71397,0.41839 -0.10692,0.63133 0.35641,0.12502 1.09352,0.16192 1.63803,0.082 0.84584,-0.12415 0.91924,-0.21609 0.504,-0.63133 z m 3.7497,0.69891 c 0.31885,-0.31885 -0.55099,-1.11669 -1.05382,-0.96659 -1.78892,0.534 -1.71875,0.659 0.63833,1.13708 0.11204,0.0227 0.29901,-0.054 0.41549,-0.17049 z m -25.01842,1.32997 c -0.31337,-0.50704 0.29053,-0.9722 1.35309,-1.04223 0.79158,-0.0522 0.91956,0.0141 0.52377,0.27135 -0.40762,0.26489 -0.30624,0.34157 0.45709,0.34573 0.56394,0.003 0.88913,0.15377 0.76506,0.35453 -0.25576,0.41383 -2.85035,0.47296 -3.09901,0.0706 z m 5.71789,-0.3665 c 0,-0.18541 -0.33215,-0.25025 -0.73812,-0.14408 -0.62625,0.16377 -0.70207,0.0794 -0.50025,-0.55647 0.16867,-0.53143 0.0905,-0.74949 -0.2687,-0.74949 -0.27862,0 -0.58876,-0.31427 -0.68921,-0.69837 -0.15961,-0.61035 -0.0107,-0.69837 1.18142,-0.69837 1.11743,0 1.36404,0.12254 1.36404,0.67776 0,0.37277 -0.18093,0.78959 -0.40208,0.92627 -0.28176,0.17413 -0.22326,0.37925 0.19549,0.68545 0.38036,0.27813 0.46305,0.52009 0.22749,0.66568 -0.20354,0.12579 -0.37008,0.077 -0.37008,-0.10838 z m -15.84271,-0.38947 c 0.0937,-0.0937 -0.34956,-0.34579 -0.98497,-0.56025 l -1.1553,-0.38994 1.1523,-0.59696 c 0.67344,-0.34888 1.45338,-0.5014 1.87681,-0.367 0.44727,0.14195 0.83617,0.0493 1.01631,-0.2422 0.23552,-0.38108 0.37915,-0.35269 0.74467,0.14719 0.28194,0.38558 0.84726,0.59697 1.49782,0.56008 2.54201,-0.14413 2.98052,0.27377 1.13225,1.079 -1.02891,0.44827 -5.68438,0.77459 -5.27989,0.37008 z m -6.50508,-1.02572 c -1.07086,-0.14273 -1.57133,-0.37627 -1.57133,-0.73322 0,-0.38075 0.41343,-0.5314 1.51404,-0.55171 0.83272,-0.0154 1.63094,-0.21711 1.77384,-0.44831 0.3698,-0.59836 1.42611,-0.0977 1.42611,0.67591 0,0.53599 -1.07228,1.50416 -1.46108,1.31922 -0.0606,-0.0288 -0.81735,-0.1467 -1.68158,-0.26189 z m -5.70779,-1.5068 c -0.13234,-0.50609 0.0558,-0.62316 1.00155,-0.62316 0.93562,0 2.26195,0.7022 2.26195,1.19753 0,0.055 -0.69762,0.0885 -1.55027,0.0744 -1.18082,-0.0195 -1.58911,-0.17416 -1.71323,-0.64881 z m 31.54742,0.3935 c 0,-0.17506 0.34046,-0.31829 0.75657,-0.31829 0.41611,0 0.64726,0.1093 0.51367,0.2429 -0.37741,0.3774 -1.27024,0.43039 -1.27024,0.0754 z m -39.09036,-1.00537 c -0.63859,-0.39467 -0.10898,-1.75721 0.68303,-1.75721 0.79129,0 1.11792,0.45024 0.84417,1.16364 -0.25832,0.67316 -0.95826,0.9452 -1.5272,0.59357 z m 16.40604,0.0511 c -0.19901,-0.0663 -0.36183,-0.41202 -0.36183,-0.76818 0,-0.85603 0.99191,-0.74677 2.01899,0.22238 l 0.79685,0.75191 -1.04609,-0.0428 c -0.57534,-0.0235 -1.20891,-0.097 -1.40792,-0.16336 z m 33.2014,-0.37853 c -0.33877,-0.21457 -0.0461,-0.37909 0.98379,-0.55309 1.56266,-0.26401 2.25528,-0.002 1.40883,0.53366 -0.64642,0.40881 -1.76351,0.41788 -2.39262,0.0195 z m -58.38213,-0.4182 c -0.42404,-0.2786 -0.41561,-0.38958 0.0575,-0.75635 0.30493,-0.23642 0.6192,-0.6035 0.69837,-0.81574 0.093,-0.24925 0.34778,-0.18743 0.71966,0.1746 0.53391,0.51977 0.51928,0.60272 -0.20142,1.14223 -0.52651,0.39415 -0.9374,0.47647 -1.27408,0.25526 z m 3.69325,-0.31324 c -0.11869,-0.19205 -0.0494,-0.34918 0.15399,-0.34918 0.20338,0 0.36979,0.15713 0.36979,0.34918 0,0.19205 -0.0693,0.34919 -0.15399,0.34919 -0.0847,0 -0.2511,-0.15714 -0.36979,-0.34919 z m 0.80313,-1.11739 c 0.3259,-0.3259 0.51213,-0.3259 0.83804,0 0.3259,0.32591 0.23279,0.41902 -0.41902,0.41902 -0.65181,0 -0.74493,-0.0931 -0.41902,-0.41902 z M 26.72204,99.069497 c 0.1239,-0.20046 0.0411,-0.58641 -0.18404,-0.85766 -0.65744,-0.79216 -0.1224,-1.22848 1.01865,-0.83071 0.64428,0.22459 1.06146,0.6544 1.166,1.20129 0.14689,0.76838 0.0461,0.85156 -1.03154,0.85156 -0.74072,0 -1.10877,-0.13843 -0.96907,-0.36448 z m 5.22831,0.007 c -0.3841,-0.1603 -0.49268,-0.30251 -0.24128,-0.316 0.2514,-0.0135 0.37015,-0.16522 0.2639,-0.33715 -0.10626,-0.17192 0.0547,-0.4077 0.35761,-0.52395 0.30294,-0.11625 0.47968,-0.4077 0.39274,-0.64767 -0.0869,-0.23996 0.0964,-0.73828 0.40744,-1.10738 0.31103,-0.36911 0.37698,-0.56112 0.14655,-0.42671 -0.24161,0.14094 -0.57607,-0.0492 -0.7901,-0.44909 -0.30302,-0.5662 -0.23839,-0.76454 0.35214,-1.08058 0.39781,-0.2129 1.22476,-0.29991 1.83766,-0.19336 0.6129,0.10655 0.91795,0.10392 0.67789,-0.006 -0.7894,-0.36094 -0.4778,-1.18892 0.44744,-1.18892 1.21287,0 1.53212,0.99075 0.57023,1.76964 -0.46134,0.37358 -0.67424,0.83003 -0.54464,1.16776 0.12747,0.33218 0.0298,0.55444 -0.24362,0.55444 -0.35496,0 -0.36326,0.0931 -0.0374,0.41902 0.3259,0.32591 0.51214,0.32591 0.83804,0 0.55563,-0.55562 3.10209,-0.55842 2.98553,-0.003 -0.12989,0.61857 0.97549,0.74128 1.54523,0.17154 0.27233,-0.27233 0.84137,-0.60503 1.26453,-0.73934 1.12081,-0.35573 0.94292,-0.91274 -0.21739,-0.68068 -1.27868,0.25573 -2.40626,-1.18965 -1.80481,-2.31348 0.4572,-0.85427 2.6073,-0.9803 2.91785,-0.17103 0.11054,0.28808 0.0488,0.52378 -0.13723,0.52378 -0.18603,0 -0.33823,0.14055 -0.33823,0.31234 0,0.32893 2.56374,-0.3154 3.00309,-0.75475 0.41263,-0.41263 0.67823,-0.30946 1.74242,0.67679 0.63939,0.59257 0.84822,0.9855 0.57259,1.07738 -0.62245,0.20748 -0.16199,0.78334 0.62635,0.78334 0.36601,0 0.83367,0.31427 1.03923,0.69837 0.20557,0.3841 0.5446,0.69837 0.75341,0.69837 0.25406,0 0.26607,-0.1444 0.0363,-0.43648 -0.37828,-0.48088 -0.1649,-3.14204 0.23226,-2.89659 0.13632,0.0842 1.02279,-0.22636 1.96993,-0.69024 1.90062,-0.93087 2.66554,-1.03899 3.64437,-0.51514 0.44724,0.23936 0.72746,0.23162 0.88573,-0.0245 0.38893,-0.62931 1.69197,-0.96218 2.37142,-0.6058 0.60943,0.31966 0.61092,0.3679 0.0313,1.00844 -0.33485,0.36999 -0.5443,0.72838 -0.46546,0.7964 0.0788,0.068 1.32185,0.0278 2.76224,-0.0894 2.20697,-0.1796 2.61125,-0.30923 2.57038,-0.82419 -0.0359,-0.45215 0.21385,-0.61107 0.96026,-0.61107 0.55481,0 1.00875,0.15713 1.00875,0.34918 0,0.19205 -0.35122,0.34919 -0.78049,0.34919 -0.65124,0 -0.57835,0.10834 0.44018,0.65424 0.98867,0.52989 1.74928,0.62556 4.00178,0.50335 3.25737,-0.17686 3.95331,-0.45935 1.13131,-0.45935 -2.11846,0 -2.84896,-0.51638 -1.80765,-1.27781 0.45271,-0.33103 1.17789,-0.4071 2.41034,-0.25283 2.02172,0.25307 2.71527,0.68708 1.93447,1.21056 -0.46084,0.30896 -0.46051,0.33946 0.003,0.26468 0.28807,-0.0465 1.11302,0.0326 1.83321,0.17586 1.31533,0.26154 1.64281,0.80324 0.92158,1.52447 -0.54493,0.54492 1.81439,0.3024 2.88786,-0.29685 0.80923,-0.45175 0.80526,-0.4581 -0.40489,-0.64785 -0.67218,-0.10539 -1.3089,-0.0721 -1.41494,0.074 -0.10604,0.14607 -0.20834,-0.28264 -0.22733,-0.95268 l -0.0344,-1.21825 1.72232,0 c 1.25708,0 1.78026,0.151 1.93683,0.55902 0.11798,0.30746 0.0213,0.67842 -0.21483,0.82437 -0.5857,0.36198 0.36569,0.71172 1.93611,0.71172 0.97794,0 1.26759,-0.1719 1.55254,-0.92139 0.19267,-0.50677 0.43235,-0.83935 0.53262,-0.73908 0.10027,0.10026 0.76212,0.0515 1.47078,-0.1083 1.00769,-0.22727 1.44142,-0.16133 1.99032,0.30261 1.69394,1.43171 3.2375,1.91716 2.65902,0.83627 -0.67236,-1.25631 0.67145,-1.76318 2.23305,-0.84228 0.5645,0.33289 0.60612,0.47251 0.21715,0.72837 -0.63504,0.41772 -0.19072,1.09298 0.71917,1.09298 0.58592,0 0.64294,-0.0935 0.30521,-0.50041 -0.71586,-0.86257 0.88329,-1.63262 2.59067,-1.24752 0.7783,0.17554 1.46993,0.18035 1.57464,0.0109 0.10269,-0.16616 0.40979,-0.35399 0.68243,-0.41741 0.27264,-0.0634 0.77851,-0.34377 1.12414,-0.62303 0.46962,-0.37944 0.52,-0.57663 0.19935,-0.78032 -0.24551,-0.15596 0.19501,-0.27486 1.02969,-0.27792 0.80232,-0.003 2.60934,-0.15146 4.01561,-0.33005 1.40627,-0.17859 4.04962,-0.41286 5.87411,-0.5206 7.69778,-0.45457 9.99597,-0.65635 10.76014,-0.94473 0.44462,-0.16779 1.54455,-0.30714 2.44429,-0.30966 1.75444,-0.005 6.09762,-0.84278 10.88034,-2.09896 1.62752,-0.42747 3.32961,-0.77722 3.78242,-0.77722 1.24877,0 2.41854,0.765 2.88249,1.88507 0.59714,1.44163 -0.75612,4.02132 -2.66087,5.07233 -0.75692,0.41766 -1.56601,0.92834 -1.79797,1.13485 -0.23196,0.2065 -0.58764,0.37546 -0.7904,0.37546 -0.20276,0 -0.64151,0.14182 -0.975,0.31516 -0.33348,0.17333 -1.27414,0.48759 -2.09036,0.69836 -0.81622,0.21077 -2.07328,0.53459 -2.79348,0.7196 -0.72019,0.18501 -2.48793,0.4293 -3.92832,0.54287 -3.61104,0.28472 -5.15231,0.44386 -6.98368,0.72105 -2.82981,0.42831 -3.28792,0.47909 -5.93613,0.65798 -7.91558,0.53472 -21.20853,0.96449 -28.05119,0.90692 -2.94861,-0.0248 -4.42465,-0.18606 -5.15362,-0.56303 -0.81134,-0.41956 -1.17906,-0.44396 -1.78701,-0.11859 -0.42101,0.22531 -1.48024,0.39372 -2.35384,0.37423 -0.87361,-0.0195 -3.08114,-0.0467 -4.90563,-0.0606 -1.82448,-0.0138 -3.54448,-0.16651 -3.82221,-0.33927 -0.31106,-0.19351 -0.78034,-0.16644 -1.22214,0.0705 -0.61708,0.33094 -8.28899,0.74126 -12.58945,0.67333 -0.7682,-0.0121 -2.68298,-0.0348 -4.25506,-0.0504 -2.45646,-0.0243 -2.8598,-0.11288 -2.86874,-0.62961 -0.0317,-1.83201 -0.23943,-2.35151 -0.98239,-2.45716 -1.19385,-0.16977 -1.52553,1.57801 -0.46278,2.43857 l 0.7897,0.63946 -0.82435,0.0347 c -0.45339,0.0191 -3.25991,0.0921 -6.2367,0.16234 -2.9768,0.0702 -5.72662,0.1968 -6.11073,0.28132 -0.3841,0.0845 -1.01263,0.0225 -1.39673,-0.1378 z m 29.50607,-1.75789 c 0,-0.42421 -1.29343,-0.42905 -1.555,-0.006 -0.10971,0.17752 0.0774,0.38557 0.41587,0.46235 0.72627,0.16474 1.13913,-7e-4 1.13913,-0.45653 z m -5.65679,-1.09678 c 0.32591,-0.32591 0.41902,-0.32133 0.41902,0.0206 0,0.24179 0.15714,0.34251 0.34919,0.22382 0.49237,-0.3043 0.43455,-0.87513 -0.0873,-0.86186 -0.51985,0.0132 -1.94741,1.03645 -1.44602,1.03645 0.19035,0 0.53465,-0.18856 0.76511,-0.41902 z m 16.21961,-0.09 c 0.52814,-0.0562 1.14881,-0.12174 1.37927,-0.14574 0.30206,-0.0315 0.31293,-0.14975 0.0389,-0.42374 -0.59432,-0.59432 -5.06268,-0.60093 -5.26867,-0.008 -0.0942,0.27133 -0.0108,0.38762 0.18943,0.26389 0.19684,-0.12166 0.45488,0.0316 0.57342,0.34045 0.16054,0.41836 0.45941,0.49957 1.17144,0.31834 0.52575,-0.13383 1.38803,-0.28927 1.91617,-0.34542 z m -53.86166,2.47021 c 0,-0.30998 1.41268,-0.472 1.59159,-0.18253 0.10754,0.17402 -0.20656,0.3164 -0.69803,0.3164 -0.49146,0 -0.89356,-0.0602 -0.89356,-0.13387 z m 4.58819,-0.53433 c -0.35437,-0.21902 -0.32158,-0.33395 0.14649,-0.51357 0.72682,-0.2789 0.90027,-0.15926 0.56217,0.38779 -0.14588,0.23603 -0.4445,0.28903 -0.70866,0.12578 z M 8.92708,97.447487 c -0.14257,-0.37154 -0.0329,-0.39398 0.50875,-0.10411 0.82255,0.44022 0.86582,0.57777 0.18176,0.57777 -0.27981,0 -0.59054,-0.21315 -0.69051,-0.47366 z m 5.80333,-0.021 c 0.14741,-0.77727 2.03043,-1.0763 2.03043,-0.32244 0,0.52519 -0.71099,0.93351 -1.62549,0.93351 -0.30738,0 -0.47333,-0.25043 -0.40494,-0.61107 z m 9.18664,-1.13485 c -0.36591,-0.67218 -0.63299,-1.34 -0.59351,-1.48403 0.0395,-0.14404 -0.1639,-0.26189 -0.45198,-0.26189 -0.75128,0 -0.64642,-0.95735 0.15164,-1.38445 1.00146,-0.53597 2.46724,-0.45179 2.46724,0.14169 0,0.27675 -0.15969,0.60187 -0.35488,0.7225 -0.65179,0.40283 0.0601,0.91287 0.9992,0.71591 0.50986,-0.10692 1.15261,-0.0495 1.42833,0.12754 0.80152,0.51474 -0.19792,1.42273 -1.56602,1.42273 -0.81635,0 -1.19194,0.17871 -1.28425,0.61107 -0.0985,0.46118 -0.29366,0.3113 -0.79577,-0.61107 z M 0,96.062457 c 0,-0.3429 0.36405,-0.46655 1.20654,-0.40981 0.87842,0.0592 1.11405,0.1927 0.86643,0.49107 C 1.59035,96.725247 0,96.662907 0,96.062417 z m 19.63964,0.2893 c -0.24115,-0.1531 -1.11847,-0.22723 -1.9496,-0.16472 -1.18188,0.0889 -1.65492,-0.0452 -2.17095,-0.61543 -0.6557,-0.72455 -0.6539,-0.72759 0.29097,-0.49044 1.04538,0.26237 1.26578,-0.18852 0.43085,-0.88144 -0.28597,-0.23733 -0.44637,-0.55054 -0.35645,-0.69603 0.31606,-0.51139 2.3821,-0.70148 3.71714,-0.34199 1.16995,0.31504 1.34945,0.49713 1.34945,1.36891 0,1.12035 -0.3058,2.11301 -0.64843,2.10486 -0.12349,-0.003 -0.42183,-0.13062 -0.66298,-0.28372 z m -1.48206,-2.15523 c 0,-0.19205 -0.16641,-0.34918 -0.3698,-0.34918 -0.20338,0 -0.27267,0.15713 -0.15398,0.34918 0.11869,0.19206 0.2851,0.34919 0.36979,0.34919 0.0847,0 0.15399,-0.15713 0.15399,-0.34919 z m 10.82471,0.69837 c 0,-0.19205 0.1664,-0.34918 0.36979,-0.34918 0.20338,0 0.27267,0.15713 0.15398,0.34918 -0.11869,0.19205 -0.2851,0.34919 -0.36979,0.34919 -0.0847,0 -0.15398,-0.15714 -0.15398,-0.34919 z m -17.57258,-0.22976 c -0.4318,-0.4318 0.54649,-1.16697 1.55286,-1.16697 1.09119,0 1.40418,0.81957 0.45246,1.18478 -0.72643,0.27876 -1.71756,0.26996 -2.00532,-0.0178 z m 16.40304,-0.63201 c -0.21583,-0.56245 0.2895,-1.03764 0.78065,-0.73409 0.43779,0.27057 0.72814,-1.06786 0.32017,-1.47584 -0.21671,-0.2167 0.11456,-0.38985 0.92742,-0.48475 0.77708,-0.0907 1.41021,0.0279 1.64241,0.30768 0.27436,0.33058 0.26487,0.4553 -0.0347,0.4553 -0.2269,0 -0.31544,0.15713 -0.19674,0.34918 0.11869,0.19205 0.63865,0.35418 1.15545,0.36029 0.91303,0.0108 0.91992,0.026 0.243,0.53755 -0.38315,0.28955 -1.01169,0.49648 -1.39673,0.45984 -0.38505,-0.0366 -1.14243,0.11431 -1.68308,0.33541 -1.27776,0.52257 -1.52078,0.50728 -1.75787,-0.11057 z m 40.97653,-3.50303 c 0,-0.3259 0.32979,-0.52378 0.87296,-0.52378 0.97526,0 1.17071,0.5094 0.32063,0.8356 -0.87377,0.3353 -1.19359,0.25175 -1.19359,-0.31182 z m 2.2697,-19.03054 c 0.97011,-0.41687 1.65438,-0.41687 1.39674,0 -0.1187,0.19205 -0.63865,0.33814 -1.15546,0.32464 -0.83903,-0.0219 -0.86486,-0.0567 -0.24128,-0.32464 z m 8.19394,-0.64176 c -0.5232,-0.34318 -0.83394,-0.82963 -0.76029,-1.19023 0.0938,-0.45954 -0.0323,-0.55445 -0.51189,-0.38509 -0.51061,0.18033 -0.553,0.13461 -0.21441,-0.2312 0.23212,-0.25078 0.92786,-0.51135 1.54608,-0.57903 1.19208,-0.1305 1.59125,-0.3388 1.26824,-0.66182 -0.2671,-0.2671 -8.46316,-0.48422 -9.36601,-0.24812 -0.42464,0.11105 -0.64425,0.38263 -0.53649,0.66345 0.11225,0.29251 -0.30202,0.16883 -1.07672,-0.32147 -0.94269,-0.59662 -1.29001,-1.07869 -1.3819,-1.91807 -0.10998,-1.00462 -0.0289,-1.12116 0.77998,-1.12116 0.61731,0 0.96207,0.22704 1.0905,0.71812 0.13038,0.49858 0.36057,0.64612 0.75297,0.48261 0.87662,-0.36529 2.17961,-0.54721 3.70784,-0.51769 1.01191,0.0196 1.25512,-0.0657 0.88275,-0.30925 -0.59226,-0.38741 -0.67003,-0.34778 2.41058,-1.22838 2.31708,-0.66234 2.46821,-0.66606 2.46821,-0.0607 0,0.85404 1.82462,1.27154 6.228,1.42505 3.75471,0.1309 4.28127,0.0819 4.10327,-0.38201 -0.22663,-0.59057 2.49054,-3.36124 3.09782,-3.15881 0.1966,0.0655 0.55642,-0.0798 0.79962,-0.32302 0.28253,-0.28254 0.91398,-0.36937 1.74904,-0.24052 1.59675,0.24637 1.78357,0.38733 1.12216,0.84673 -0.3887,0.26998 -0.40747,0.39987 -0.0772,0.53389 0.24006,0.0974 0.43889,0.439 0.44183,0.75908 0.003,0.33378 0.11475,0.43252 0.26188,0.23153 0.53833,-0.73539 2.177,-0.59972 2.86087,0.23684 l 0.66376,0.81197 1.34875,-1.30944 c 0.74181,-0.72019 1.533,-1.30944 1.75821,-1.30944 0.22521,0 0.57767,-0.31427 0.78323,-0.69837 0.39828,-0.74418 2.22429,-0.98765 2.61888,-0.34918 0.1187,0.19205 0.5208,0.34918 0.89357,0.34918 0.37277,0 0.67776,0.22099 0.67776,0.49109 0,0.541 0.85001,0.44226 2.61888,-0.30422 1.24081,-0.52362 7.50746,-0.72473 7.50746,-0.24093 0,0.18203 0.79718,0.27673 1.7715,0.21045 1.7718,-0.12052 3.81545,-0.80383 3.81545,-1.27572 0,-0.44207 2.52259,-0.90258 6.11072,-1.11556 2.78216,-0.16513 14.53329,-0.2707 16.93543,-0.15213 0.28808,0.0142 1.88221,-0.16255 3.5425,-0.39281 3.17019,-0.43965 3.75246,-0.31721 5.6811,1.19467 1.41827,1.1118 0.45911,4.64614 -1.53508,5.6565 -0.43955,0.22269 -0.92625,0.6105 -1.08156,0.8618 -0.40446,0.65443 -3.33488,1.23621 -6.67097,1.3244 -1.58077,0.0418 -3.038,0.18298 -3.23828,0.31376 -0.20028,0.13079 -7.19942,0.26156 -15.55365,0.29059 -8.35423,0.0291 -15.81804,0.15857 -16.58625,0.28783 -1.9958,0.33583 -3.2594,0.3603 -5.15047,0.0997 -1.09457,-0.15081 -1.65862,-0.10048 -1.65862,0.14801 0,0.23624 -0.50838,0.30835 -1.36446,0.19352 -0.75045,-0.10065 -1.49683,-0.059 -1.65862,0.0927 -0.50076,0.4693 -3.17232,0.77554 -3.41005,0.39089 -0.14386,-0.23276 -0.72143,-0.17804 -1.67621,0.15883 -0.8012,0.28268 -3.66479,0.67912 -6.36355,0.88097 -8.06652,0.60335 -8.33707,0.62481 -9.97,0.79083 -1.09608,0.11145 -1.83895,-0.0158 -2.45618,-0.42061 z m 4.69094,-2.23366 c 0.22326,-0.14911 0.0688,-0.25878 -0.36886,-0.26189 -0.60722,-0.004 -0.71366,0.14499 -0.54987,0.77131 0.14297,0.54672 0.25218,0.62425 0.36885,0.26189 0.0912,-0.28312 0.33861,-0.63021 0.54988,-0.77131 z m 7.54239,0.63429 c 0,-0.27237 0.0879,-0.72439 0.19542,-1.00447 0.2427,-0.63246 -1.36208,-1.10806 -2.18496,-0.64756 -0.49822,0.27882 -0.47443,0.36621 0.19757,0.72586 0.42019,0.22488 0.68004,0.5447 0.57743,0.71071 -0.1026,0.16601 0.0109,0.38142 0.25211,0.47869 0.75529,0.3045 0.96243,0.24784 0.96243,-0.26323 z m 13.09441,-2.64745 c 0.12454,-0.20151 -0.199,-0.34692 -0.76505,-0.34383 -0.76161,0.004 -0.86379,0.081 -0.45709,0.34383 0.67088,0.43356 0.95419,0.43356 1.22214,0 z m -7.88574,-1.96683 c 0.08,-0.0705 -0.42139,-0.12827 -1.11424,-0.12827 -0.69286,0 -1.36304,0.16715 -1.48931,0.37145 -0.15632,0.25293 0.19922,0.29386 1.11424,0.12827 0.7391,-0.13375 1.40929,-0.3009 1.48931,-0.37145 z m 15.3932,-1.52501 c 0,-0.19205 -0.16641,-0.34918 -0.36979,-0.34918 -0.20339,0 -0.27268,0.15713 -0.15399,0.34918 0.1187,0.19205 0.28511,0.34919 0.3698,0.34919 0.0847,0 0.15398,-0.15714 0.15398,-0.34919 z m 1.30217,-0.21096 c -0.11603,-0.11603 -0.41721,-0.12844 -0.66927,-0.0276 -0.27856,0.11146 -0.19582,0.1942 0.21096,0.21096 0.3681,0.0152 0.57434,-0.0674 0.45831,-0.1834 z m -62.95909,6.72926 c -0.12287,-0.32019 -0.42919,-0.58217 -0.68072,-0.58217 -0.25152,0 -0.53657,-0.19641 -0.63344,-0.43648 -0.11179,-0.27705 -0.18619,-0.22816 -0.20369,0.13387 -0.0152,0.31369 -0.34183,0.65253 -0.72593,0.75297 -0.83356,0.21798 -0.88162,0.0322 -0.1746,-0.67483 0.28808,-0.28808 0.52378,-0.84751 0.52378,-1.24318 0,-0.63818 0.15828,-0.69818 1.40187,-0.53138 1.13975,0.15288 1.46849,0.0635 1.7582,-0.4778 0.19599,-0.3662 0.23296,-0.66823 0.0822,-0.67117 -0.44909,-0.009 0.73512,-0.68186 1.20986,-0.68768 0.24006,-0.003 0.43648,0.38749 0.43648,0.86762 0,0.62991 -0.18782,0.87296 -0.67459,0.87296 -0.8394,0 -2.34006,1.95602 -1.68488,2.19613 0.34519,0.1265 0.34816,0.25725 0.0139,0.61208 -0.34528,0.36655 -0.46696,0.34198 -0.64844,-0.13094 z m 2.93329,0.0787 c -0.70852,-0.43789 0.0413,-1.04501 0.79344,-0.64247 0.3797,0.20321 0.98547,0.27581 1.34616,0.16134 0.36068,-0.11448 0.7467,-0.061 0.85782,0.11875 0.23648,0.38263 -2.44091,0.70632 -2.99742,0.36238 z m -9.36728,-0.26221 c 0,-0.15525 0.19641,-0.28873 0.43648,-0.29663 0.24006,-0.008 0.90788,-0.13294 1.48403,-0.27787 0.69641,-0.17518 0.93051,-0.14683 0.69837,0.0846 -0.45383,0.45242 -2.61888,0.85743 -2.61888,0.48992 z m 16.82776,-0.0757 c 0.0688,-0.20646 0.23905,-0.36359 0.37829,-0.34919 0.13923,0.0144 0.48885,0.0262 0.77693,0.0262 0.28808,0 0.52378,0.15714 0.52378,0.34919 0,0.19205 -0.40593,0.34918 -0.90206,0.34918 -0.49614,0 -0.84576,-0.16892 -0.77694,-0.37537 z m -3.90795,-1.56279 c 0,-0.39365 0.26836,-0.52074 0.93333,-0.44202 1.3046,0.15444 1.39049,0.81747 0.11846,0.91439 -0.76022,0.0579 -1.05179,-0.073 -1.05179,-0.47237 z m 6.24732,0.29 c -0.89866,-0.0956 -1.39138,-0.37925 -1.71763,-0.98886 -0.40206,-0.75125 -1.33655,-1.08333 -2.52188,-0.89617 -0.14404,0.0227 -0.26189,-0.27292 -0.26189,-0.65702 0,-0.60414 0.23279,-0.69837 1.72531,-0.69837 1.78091,0 2.35228,0.39034 2.17235,1.48404 -0.067,0.4073 0.12636,0.61107 0.57987,0.61107 0.37423,0 1.09759,0.21643 1.60748,0.48097 0.754,0.39118 0.82131,0.52155 0.36054,0.69837 -0.3116,0.11956 -0.59297,0.19098 -0.62527,0.1587 -0.0323,-0.0323 -0.6258,-0.11902 -1.31888,-0.19273 z m -16.01888,-0.85937 -0.86735,-0.80972 0.81004,-0.11551 c 1.00514,-0.14333 1.1867,0.0282 1.04018,0.98255 l -0.11551,0.75241 -0.86736,-0.80973 z m -14.93322,0.18117 c -0.62589,-0.25255 -0.53953,-1.16548 0.11025,-1.16548 0.83244,0 1.94331,0.69104 1.71214,1.06507 -0.21581,0.34919 -1.08691,0.39718 -1.82239,0.10041 z m -1.65862,-1.51466 c 0.11869,-0.19206 0.28509,-0.34919 0.36978,-0.34919 0.0847,0 0.15399,0.15713 0.15399,0.34919 0,0.19205 -0.16641,0.34918 -0.36979,0.34918 -0.20339,0 -0.27268,-0.15713 -0.15398,-0.34918 z m 10.43816,-0.20316 c 0.11658,-0.30378 0.21195,-0.61938 0.21195,-0.70132 0,-0.082 0.3041,0.0409 0.67579,0.27304 0.80279,0.50135 0.61484,0.98062 -0.38457,0.98062 -0.50864,0 -0.65392,-0.15948 -0.50317,-0.55234 z m -9.53764,-0.34972 c 0.0168,-0.40678 0.0995,-0.48952 0.21097,-0.21096 0.10087,0.25206 0.0885,0.55323 -0.0276,0.66927 -0.11603,0.11603 -0.19856,-0.0902 -0.1834,-0.45831 z m 53.20803,-2.50202 c 0.10427,-0.27174 0.18958,-0.55978 0.18958,-0.6401 0,-0.0803 0.39284,-0.14603 0.87297,-0.14603 1.25773,0 1.10006,0.93496 -0.18959,1.12424 -0.81205,0.11918 -1.01786,0.0395 -0.87296,-0.33811 z"
     id="path2987"
     inkscape:connector-curvature="0" />
</svg>
