<?xml version="1.0" encoding="UTF-8" standalone="no"?>
<!-- Created with Inkscape (http://www.inkscape.org/) -->

<svg
   xmlns:dc="http://purl.org/dc/elements/1.1/"
   xmlns:cc="http://creativecommons.org/ns#"
   xmlns:rdf="http://www.w3.org/1999/02/22-rdf-syntax-ns#"
   xmlns:svg="http://www.w3.org/2000/svg"
   xmlns="http://www.w3.org/2000/svg"
   xmlns:sodipodi="http://sodipodi.sourceforge.net/DTD/sodipodi-0.dtd"
   xmlns:inkscape="http://www.inkscape.org/namespaces/inkscape"
   id="svg2"
   version="1.1"
   inkscape:version="0.48.0 r9654"
   width="240.94518"
   height="354.32886"
   sodipodi:docname="cans.png">
  <metadata
     id="metadata8">
    <rdf:RDF>
      <cc:Work
         rdf:about="">
        <dc:format>image/svg+xml</dc:format>
        <dc:type
           rdf:resource="http://purl.org/dc/dcmitype/StillImage" />
        <dc:title></dc:title>
      </cc:Work>
    </rdf:RDF>
  </metadata>
  <defs
     id="defs6" />
  <sodipodi:namedview
     pagecolor="#545454"
     bordercolor="#545454"
     borderopacity="1"
     objecttolerance="10"
     gridtolerance="10"
     guidetolerance="10"
     inkscape:pageopacity="0"
     inkscape:pageshadow="2"
     inkscape:window-width="1076"
     inkscape:window-height="639"
     id="namedview4"
     showgrid="false"
     fit-margin-top="0"
     fit-margin-left="0"
     fit-margin-right="0"
     fit-margin-bottom="0"
     inkscape:zoom="0.78477306"
     inkscape:cx="120.51843"
     inkscape:cy="165.83697"
     inkscape:window-x="0"
     inkscape:window-y="0"
     inkscape:window-maximized="0"
     inkscape:current-layer="svg2" />
  <path
     style="fill:#545454"
     d="m 29.651451,353.6499 c -2.69101,-1.1645 -2.83478,-1.2442 -3.76401,-2.0864 -1.22752,-1.1127 -1.89358,-1.6529 -2.98524,-2.4213 -0.50706,-0.357 -1.18175,-0.8646 -1.49931,-1.1281 -0.95948,-0.7961 -2.57562,-1.6435 -4.02794,-2.112 -1.06274,-0.3428 -1.80011,-0.8639 -3.256,-2.3007 -1.03518,-1.0216 -2.227556,-2.0159 -2.649732,-2.2095 -2.2704998,-1.0412 -3.1821528,-1.6064 -4.8756358,-3.0226 -1.024344,-0.8566 -2.166618,-1.8495 -2.538388,-2.2065 -1.396563,-1.3408 -3.86342201,-4.4388 -4.01480701,-5.042 -0.08647,-0.3445 -0.02945,-1.2492 0.126712,-2.0105 0.156164,-0.7612 0.33612,-2.7121 0.399901,-4.3354 0.06378,-1.6232 0.170589,-3.0059 0.237355,-3.0727 0.06676,-0.067 -0.04777,-0.691 -0.254509,-1.3871 -0.448579,-1.5106 -0.134461,-4.1661 0.58710701,-4.9634 0.558197,-0.6168 0.554962,-0.5862 0.707786,-6.705 0.219156,-8.7747 0.111552,-17.8122 -0.230261,-19.3392 -0.09587,-0.4284 -0.175748,-2.8815 -0.177503,-5.4514 -0.0018,-2.5699 -0.1107,-4.8043 -0.242098,-4.9654 -0.146259,-0.1794 -0.138567,-0.5569 0.01983,-0.9735 0.142308,-0.3743 0.157652,-0.6805 0.0341,-0.6805 -0.123553,0 -0.240151,-0.7885 -0.25910301,-1.7522 -0.01895,-0.9637 -0.09873,-2.862 -0.17729,-4.2183 -0.07855,-1.3564 -0.140107,-2.6413 -0.136779,-2.8555 0.0033,-0.2141 0.0013,-2.2584 -0.0046,-4.5427 -0.0059,-2.2844 -0.008,-4.2702 -0.0047,-4.413 0.08085,-3.5145 0.37962701,-9.9624 0.55331101,-11.941 0.209263,-2.3839 0.303872,-6.9506 0.387262,-18.6928 0.01724,-2.4286 0.09973,-4.5313 0.183289,-4.6726 0.08356,-0.1413 0.173793,-2.9379 0.200515,-6.2147 0.02672,-3.2768 0.09764,-6.0372 0.157592,-6.1342 0.05995,-0.097 0.176327,-1.8549 0.258608,-3.9065 0.08228,-2.0516 0.250867,-4.3142 0.374633,-5.0281 0.123765,-0.7138 0.22657,-2.2324 0.228457,-3.3746 0.0031,-1.8657 0.213588,-5.1459 0.44145,-6.879 0.211501,-1.6087 0.10785,-17.7331 -0.115729,-18.0037 -0.135011,-0.1635 -0.326022,-0.7282 -0.424471,-1.2551 -0.206098,-1.1029 0.500628,-2.777 1.76453,-4.1798 0.412698,-0.458 0.961192,-1.2416 1.218875,-1.7413 0.257682,-0.4997 0.704404,-1.1219 0.992711,-1.3827 0.28831,-0.2607 0.992836,-1.3814 1.565616,-2.4906 0.572778,-1.109 1.5758648,-2.781 2.2290828,-3.7154 0.653216,-0.9345 1.187666,-1.8163 1.187666,-1.9596 0,-0.1433 0.176976,-0.3284 0.393276,-0.4114 0.216301,-0.083 0.509579,-0.4167 0.651726,-0.7416 0.142147,-0.3249 0.722505,-1.2916 1.289695,-2.1483 2.57127,-3.8834 2.88632,-5.4353 1.60881,-7.9245 -1.32578,-2.5833 -1.87555,-4.8413 -1.91445,-7.8629 -0.0475,-3.6886 0.27999,-4.1874 3.9983,-6.0907 1.46784,-0.7514 2.84723,-1.3636 3.06531,-1.3605 0.21809,0 0.62694,-0.1522 0.90856,-0.345 0.28161,-0.1929 0.86247,-0.4355 1.29079,-0.5392 0.42832,-0.1037 1.1292,-0.3423 1.55752,-0.5301 1.36804,-0.6001 1.80241,-0.7446 2.46581,-0.8208 0.35678,-0.041 1.11607,-0.2412 1.68731,-0.4452 0.57124,-0.2039 2.20675,-0.63 3.63448,-0.9469 1.42772,-0.3169 2.94631,-0.6754 3.37462,-0.7967 0.42832,-0.1214 2.00531,-0.4003 3.50442,-0.6199 1.49912,-0.2196 2.95929,-0.4448 3.24484,-0.5003 0.28554,-0.056 1.74571,-0.1821 3.24483,-0.2812 1.49911,-0.099 3.01769,-0.221 3.37462,-0.2708 5.07229,-0.7075 30.38315,-0.6046 32.31913,0.1315 0.72457,0.2754 1.85814,0.3492 9.81634,0.639 1.97278,0.072 3.68054,0.1884 3.79504,0.2592 0.11449,0.071 0.83668,0.2047 1.60486,0.2977 0.76819,0.093 1.51352,0.1935 1.65629,0.2235 0.14277,0.03 0.69914,0.1449 1.23638,0.2555 0.930619,0.1915 2.008449,1.2295 2.008449,1.9342 0,0.1565 0.0981,0.2844 0.21804,0.2844 0.11992,0 0.36493,0.4965 0.54447,1.1033 0.17954,0.6068 0.43187,1.3061 0.56072,1.554 0.12886,0.2479 0.23429,0.7959 0.23429,1.2177 0,0.4218 0.11682,0.8391 0.25959,0.9274 0.14277,0.088 0.25959,0.4971 0.25959,0.9085 0,0.4115 0.10263,0.8116 0.22808,0.8891 0.32747,0.2024 0.55225,2.7631 0.6739,7.6773 0.0583,2.3557 0.11286,4.524 0.1212,4.8183 0.008,0.2943 0.22569,0.7616 0.483,1.0384 0.25731,0.2767 0.62497,1.0872 0.81703,1.8011 0.19205,0.7139 0.44878,1.4089 0.57051,1.5445 0.12172,0.1357 0.22131,0.4585 0.22131,0.7174 0,0.259 0.11682,0.7029 0.25959,0.9865 0.14277,0.2836 0.3764,0.7476 0.51917,1.0313 0.14278,0.2836 0.25959,0.7508 0.25959,1.0383 0,0.2875 0.13628,0.5227 0.30285,0.5227 0.16657,0 0.23005,0.073 0.14107,0.1618 -0.089,0.089 0.24199,0.9096 0.73549,1.8236 0.49351,0.914 0.89728,1.8341 0.89728,2.0447 0,0.2106 0.11682,0.3829 0.25959,0.3829 0.14277,0 0.25959,0.1768 0.25959,0.3929 0,0.2161 0.11681,0.6249 0.25958,0.9085 0.14278,0.2836 0.3764,0.7477 0.51918,1.0313 0.14277,0.2836 0.25958,0.7509 0.25958,1.0384 0,0.2875 0.0891,0.5227 0.19794,0.5227 0.10886,0 0.41917,0.7885 0.68957,1.7522 0.2704,0.9637 0.83968,2.3877 1.26506,3.1644 0.51219,0.9352 0.80992,1.8997 0.88148,2.8554 0.0594,0.7938 0.20122,2.0858 0.31509,2.871 0.28634,1.9748 0.0271,9.9528 -0.37115,11.4218 -0.0581,0.2142 -0.1706,0.9735 -0.25009,1.6873 -0.0795,0.7139 -0.20353,1.6484 -0.27564,2.0767 -0.23268,1.382 -0.28467,4.6431 -0.091,5.7099 0.10356,0.5706 0.10228,1.0963 -0.003,1.1682 -0.10514,0.072 -0.21689,1.5325 -0.24833,3.2458 -0.0475,2.5882 -0.25737,8.3068 -0.30486,8.3068 -0.007,0 -0.066,1.9274 -0.13018,4.2832 -0.0642,2.3557 -0.17428,4.692 -0.24465,5.1917 -0.19531,1.3869 -0.20409,5.9041 -0.0121,6.2148 0.0934,0.1512 0.0491,0.2748 -0.0986,0.2748 -0.18374,0 -0.18523,0.219 -0.005,0.6938 0.14506,0.3815 0.18897,0.878 0.0976,1.1032 -0.0914,0.2253 -0.22036,2.9794 -0.28656,6.1204 -0.13156,6.2417 -0.15428,6.6165 -0.42793,7.0593 -0.10226,0.1655 -0.17919,1.0395 -0.17095,1.9423 0.0157,1.7231 -0.0705,3.0018 -0.50449,7.4822 -0.38265,3.9502 -0.60185,4.8643 -1.62718,6.786 l -0.91989,1.7241 0.0561,10.2169 c 0.0308,5.6193 0.097,10.3337 0.14707,10.4765 0.14182,0.4045 -0.28115,3.0698 -0.53586,3.3767 -0.13095,0.1578 -0.12995,0.7129 0.002,1.3044 0.25788,1.1531 0.32992,2.2629 0.3196,4.9236 -0.004,0.9994 -0.0135,3.6277 -0.0214,5.8407 -0.008,2.213 0.0428,4.2572 0.11278,4.5427 0.1591,0.6496 0.29844,2.2844 0.51995,6.1003 0.21179,3.6485 0.21273,3.3108 -0.0125,4.4482 -0.11808,0.5963 -0.0827,1.0081 0.096,1.1185 0.35868,0.2217 0.37242,2.3945 0.0165,2.6145 -0.28037,0.1733 -0.15764,4.0232 0.15758,4.943 0.095,0.2772 0.47963,0.7657 0.85465,1.0853 0.60502,0.5157 0.67797,0.7563 0.64733,2.1349 -0.019,0.8545 -0.12197,1.7611 -0.22882,2.0146 -0.23246,0.5516 -0.35082,1.3913 -0.46565,3.3035 -0.0477,0.7943 -0.26215,1.6304 -0.48417,1.8876 -0.2192,0.2539 -0.56088,0.8413 -0.7593,1.3053 -0.19841,0.4641 -0.43878,0.8437 -0.53415,0.8437 -0.16739,0 -0.49548,1.5179 -0.6172,2.8555 -0.10877,1.1952 -0.85424,2.4548 -2.30455,3.8938 -0.79145,0.7852 -1.44162,1.5737 -1.44483,1.7522 -0.003,0.1784 -0.13026,0.3244 -0.28233,0.3244 -0.15206,0 -0.89875,0.6425 -1.6593,1.4278 -0.76055,0.7852 -1.44555,1.4277 -1.52223,1.4277 -0.2228,0 -4.666489,3.0062 -5.238129,3.5436 -0.28555,0.2685 -0.86962,0.7586 -1.29793,1.0892 -0.42832,0.3306 -1.21173,1.0005 -1.74091,1.4886 -0.52917,0.4881 -1.03718,0.8874 -1.1289,0.8874 -0.0917,0 -0.53487,0.1573 -0.98476,0.3495 -2.30271,0.9838 -6.23688,1.7793 -9.38435,1.8976 -1.28495,0.048 -2.74513,0.2009 -3.24483,0.3392 -0.49971,0.1383 -1.84307,0.3189 -2.98525,0.4013 -1.14218,0.082 -3.36164,0.2762 -4.93214,0.4307 -4.54027,0.4467 -29.01179,0.7184 -33.55157,0.3726 -1.36715,-0.1042 -2.40117,-0.083 -2.40117,0.048 0,0.3596 -1.23344,0.8341 -2.15381,0.8286 -0.45729,0 -1.53232,-0.3083 -2.38896,-0.679 z m 27.51618,-5.768 c 2.14159,-0.154 5.76282,-0.3497 8.04718,-0.435 2.28436,-0.085 4.44542,-0.2548 4.80235,-0.3769 0.35693,-0.1221 1.70029,-0.3003 2.98525,-0.396 1.28495,-0.096 2.68672,-0.2147 3.11504,-0.2642 0.42831,-0.05 1.53805,-0.1135 2.46607,-0.142 0.92802,-0.029 1.8641,-0.1421 2.08017,-0.2523 0.21607,-0.1103 1.38421,-0.259 2.59586,-0.3304 2.43432,-0.1436 4.0089,-0.618 5.57764,-1.6804 2.74553,-1.8594 2.22285,-2.2525 -1.59747,-1.2012 -0.73584,0.2025 -1.80663,0.3682 -2.37954,0.3682 -0.57292,0 -1.0806,0.1094 -1.12819,0.2431 -0.0476,0.1337 -0.84582,0.3026 -1.77384,0.3753 -0.92803,0.073 -1.68732,0.1479 -1.68732,0.1669 0,0.019 -0.58407,0.08 -1.29793,0.1344 -0.71386,0.055 -1.70678,0.1673 -2.20649,0.2499 -0.4997,0.082 -1.67044,0.2554 -2.60163,0.3842 -0.9312,0.1288 -1.8964,0.3122 -2.1449,0.4076 -0.24849,0.095 -0.62961,0.026 -0.84693,-0.1546 -0.30915,-0.2566 -0.68965,-0.264 -1.7489,-0.034 -2.94385,0.6392 -4.16036,0.8231 -5.45505,0.8245 -0.74253,0 -2.05094,0.1182 -2.90757,0.2608 -2.08297,0.3467 -20.89652,0.3558 -25.3097,0.012 -1.92743,-0.15 -4.32211,-0.4464 -5.32152,-0.6585 -0.99941,-0.2122 -2.03578,-0.3878 -2.30305,-0.3903 -0.44039,0 -0.45093,0.048 -0.11239,0.5581 0.20545,0.3094 0.74406,0.7613 1.19691,1.0042 0.45286,0.2428 0.99128,0.5809 1.19649,0.7512 0.20521,0.1703 1.28704,0.4668 2.40406,0.6589 2.42539,0.4171 18.14043,0.363 24.3554,-0.084 z m -7.65781,-7.6524 c 1.21357,-0.1 2.90737,-0.2388 3.76401,-0.3083 0.85663,-0.07 3.13451,-0.2563 5.06194,-0.4151 1.92743,-0.1588 3.73804,-0.2904 4.02359,-0.2925 0.28554,0 1.68731,-0.113 3.11504,-0.2464 1.42772,-0.1334 3.17993,-0.2909 3.8938,-0.3502 1.87129,-0.1552 5.69887,-0.6132 7.6578,-0.9161 0.92802,-0.1436 1.92094,-0.2972 2.20649,-0.3414 0.28554,-0.044 0.69439,-0.1557 0.90855,-0.2479 0.21416,-0.092 0.73982,-0.2111 1.16814,-0.2644 0.42832,-0.053 0.95398,-0.1577 1.16814,-0.2321 1.73643,-0.6028 5.00469,-1.5162 5.91135,-1.6521 0.60994,-0.091 1.1717,-0.2678 1.24835,-0.3918 0.0767,-0.124 0.38701,-0.2255 0.68968,-0.2255 0.95732,0 3.16468,-0.7982 4.35119,-1.5734 0.35693,-0.2332 1.29144,-0.7727 2.07669,-1.1988 2.14005,-1.1614 2.71249,-1.4953 2.85545,-1.6656 0.0714,-0.085 0.480239,-0.3383 0.908559,-0.5627 0.42831,-0.2245 1.13844,-0.5968 1.57806,-0.8274 0.43962,-0.2306 1.25731,-0.8885 1.8171,-1.462 l 1.01781,-1.0429 -0.0316,-4.6885 c -0.0174,-2.5787 -0.1343,-4.7631 -0.25983,-4.8542 -0.12554,-0.091 -0.26899,-3.9038 -0.31877,-8.4725 -0.0498,-4.5687 -0.14851,-9.3581 -0.21941,-10.6431 -0.15869,-2.876 -0.15512,-15.6637 0.005,-18.2359 0.0681,-1.0935 0.0143,-1.882 -0.12853,-1.882 -0.13517,0 -0.18891,-0.092 -0.11944,-0.2044 0.11021,-0.1783 0.17913,-1.8483 0.17775,-4.3075 -5.2e-4,-1.1553 -0.26203,-1.7182 -0.79789,-1.7182 -0.52397,0 -1.02886,1.304 -1.03161,2.6643 -7.7e-4,0.3945 -0.10855,0.9202 -0.23946,1.1681 -0.25299,0.4792 -0.58848,1.6583 -1.7162,6.0319 -0.969819,3.7612 -2.020619,7.1215 -2.259379,7.2251 -0.10966,0.048 -0.19938,0.2353 -0.19938,0.4171 0,0.4966 -3.03743,6.4539 -3.59673,7.0542 -0.26753,0.2872 -0.62809,0.7868 -0.80125,1.1104 -0.30063,0.5617 -0.52643,0.8582 -1.7023,2.2349 -0.28555,0.3344 -0.86962,1.0434 -1.29793,1.5757 -0.42832,0.5322 -1.15841,1.329 -1.62242,1.7707 -0.46401,0.4416 -0.84399,0.9206 -0.8444,1.0643 -5.2e-4,0.1438 -0.35052,0.495 -0.77802,0.7806 -0.42749,0.2855 -0.7776,0.6124 -0.77801,0.7263 -0.001,0.307 -1.37712,1.4625 -1.75296,1.472 -0.17846,0 -0.32448,0.1 -0.32448,0.2118 0,0.112 -0.32124,0.3937 -0.71386,0.6261 -0.39263,0.2323 -1.0059,0.6642 -1.36283,0.9597 -0.35693,0.2955 -0.77304,0.6403 -0.92468,0.7663 -0.15165,0.126 -0.70651,0.4335 -1.23304,0.6834 -0.52653,0.2498 -0.95732,0.5541 -0.95732,0.6761 0,0.122 -0.16016,0.1604 -0.35591,0.085 -0.19575,-0.075 -0.53785,0.045 -0.76022,0.2677 -0.22237,0.2224 -0.54512,0.4043 -0.71721,0.4043 -0.61998,0 -2.30048,0.6004 -2.18834,0.7819 0.0631,0.1021 -0.55402,0.2554 -1.37134,0.3408 -0.81731,0.085 -1.89487,0.2296 -2.39458,0.3206 -0.4997,0.091 -1.852,0.16 -3.00511,0.1537 -1.81674,-0.01 -2.35376,-0.1289 -4.02359,-0.8912 -1.05987,-0.4838 -2.08736,-1.0741 -2.2833,-1.3118 -0.19595,-0.2378 -0.58249,-0.4323 -0.85898,-0.4323 -0.27649,0 -0.43051,-0.1168 -0.34227,-0.2596 0.0882,-0.1428 0.0284,-0.2596 -0.13302,-0.2596 -0.1614,0 -0.44729,-0.146 -0.63532,-0.3245 -0.76359,-0.7247 -1.45744,-1.233 -1.68321,-1.233 -0.13152,0 -0.30734,-0.2149 -0.39071,-0.4776 -0.0834,-0.2627 -0.41249,-0.6236 -0.73136,-0.8021 -0.61723,-0.3454 -2.78625,-2.9435 -2.78625,-3.3375 0,-0.129 -0.23363,-0.4459 -0.51918,-0.7043 -0.28554,-0.2584 -0.51917,-0.627 -0.51917,-0.819 0,-0.192 -0.0876,-0.3501 -0.19469,-0.3512 -0.2369,0 -0.84366,-1.2628 -0.84366,-1.7524 0,-0.1941 -0.11681,-0.2807 -0.25958,-0.1925 -0.14662,0.091 -0.25959,-0.1219 -0.25959,-0.4885 0,-0.3569 -0.11681,-0.7212 -0.25959,-0.8094 -0.14277,-0.088 -0.25958,-0.3872 -0.25958,-0.6643 0,-0.2771 -0.11682,-0.5038 -0.25959,-0.5038 -0.14277,0 -0.25958,-0.1768 -0.25958,-0.393 0,-0.216 -0.10319,-0.5957 -0.22931,-0.8436 -0.65361,-1.2849 -1.32821,-3.4255 -1.32821,-4.2148 0,-0.6456 -0.27261,-1.6276 -1.04479,-3.764 -0.59966,-1.659 -0.82593,-3.0109 -1.4446,-8.6312 -0.0982,-0.8923 -0.29348,-1.6224 -0.4339,-1.6224 -0.14043,0 -0.10949,-0.1758 0.0688,-0.3905 0.17825,-0.2148 0.33857,-0.9449 0.35627,-1.6224 0.0177,-0.6776 0.14148,-1.3107 0.27508,-1.4069 0.14782,-0.1064 0.13476,-0.3096 -0.0334,-0.5192 -0.17627,-0.2196 -0.29038,-2.6932 -0.31526,-6.8339 -0.0214,-3.5693 -0.12325,-7.1321 -0.22622,-7.9174 -0.26204,-1.9982 -0.17218,-7.9165 0.16946,-11.1622 0.27426,-2.6054 0.3772,-3.3449 1.08407,-7.7876 0.59966,-3.7688 0.69312,-4.5455 0.58246,-4.841 -0.0614,-0.164 0.0131,-0.3753 0.16558,-0.4696 0.1525,-0.094 0.27728,-0.4496 0.27728,-0.7897 0,-0.34 0.12298,-0.6943 0.27329,-0.7872 0.15031,-0.093 0.22389,-0.3042 0.16352,-0.4696 -0.0604,-0.1654 0.0371,-0.663 0.21656,-1.1059 0.1795,-0.4428 0.41004,-1.3189 0.51232,-1.9469 0.10228,-0.6279 0.36101,-1.5505 0.57495,-2.0502 0.62085,-1.4501 0.77482,-1.8414 1.48338,-3.7696 0.36838,-1.0024 0.66978,-1.9252 0.66978,-2.0507 0,-0.2619 0.56247,-1.4735 2.96196,-6.3803 1.24952,-2.5552 2.27656,-4.2076 3.79161,-6.1003 2.09589,-2.6183 6.38392,-7.1266 7.82733,-8.2293 0.42953,-0.3282 1.0334,-0.8037 1.34191,-1.0569 1.96891,-1.6155 5.69298,-3.4151 7.59458,-3.6698 0.29919,-0.04 0.65495,-0.1415 0.79057,-0.2253 0.24041,-0.1486 2.82056,-0.5241 3.33801,-0.4858 3.93846,0.2913 9.38143,2.2915 11.73255,4.3114 0.59923,0.5149 1.23298,1.3328 1.40834,1.8178 0.17535,0.4849 0.53198,0.9374 0.7925,1.0056 0.32973,0.086 0.47367,0.3679 0.47367,0.9269 0,1.1405 -0.6445,1.0165 -1.22265,-0.2353 -0.26164,-0.5665 -0.30245,-0.583 -0.32108,-0.1298 -0.0117,0.2856 -0.20225,1.0387 -0.42335,1.6737 -0.50643,1.4545 -0.14794,2.3499 0.94081,2.3499 1.01375,0 1.41776,-0.6451 1.40207,-2.2389 -0.016,-1.6242 0.4447,-2.0019 1.22773,-1.0064 0.28218,0.3588 0.67929,0.8185 0.88248,1.0217 0.20319,0.2032 0.37068,0.4654 0.3722,0.5827 0.002,0.1172 0.46753,0.7972 1.03559,1.5111 0.56805,0.7139 1.03407,1.3868 1.03558,1.4955 0.003,0.1849 0.439279,1.2022 1.594099,3.7133 0.26694,0.5805 0.48536,1.2537 0.48536,1.4961 0,0.2425 0.10247,0.6436 0.22772,0.8915 0.50857,1.0067 0.81062,2.3794 0.81062,3.6839 0,1.5168 0.46457,3.3864 0.84148,3.3864 0.13208,0 0.18777,0.146 0.12378,0.3244 -0.064,0.1785 -0.0187,0.515 0.10067,0.7477 0.11936,0.2328 0.28704,1.1673 0.37263,2.0767 0.14636,1.5552 0.40302,2.6765 0.93092,4.0669 0.12451,0.328 0.22639,0.9234 0.22639,1.3231 0,0.3998 0.2159,0.9758 0.47979,1.28 l 0.47978,0.5532 0.2878,-0.9677 c 0.16356,-0.5501 0.30498,-3.2928 0.32763,-6.3542 0.0219,-2.9625 0.11455,-5.3866 0.20587,-5.3869 0.0913,-3e-4 0.20665,-1.354 0.2563,-3.0082 0.0497,-1.6543 0.1465,-3.3187 0.2152,-3.6987 0.0687,-0.3799 0.1698,-2.3846 0.22465,-4.4549 0.20914,-7.8926 0.23998,-8.5663 0.39214,-8.5663 0.086,0 0.1722,-1.723 0.19152,-3.8289 0.0193,-2.1059 0.14462,-4.8802 0.27843,-6.1652 0.13381,-1.2849 0.2602,-3.7611 0.28086,-5.5026 0.0361,-3.0396 0.0137,-3.1813 -0.55817,-3.5414 -0.59108,-0.3722 -1.59759,-0.4241 -1.92251,-0.099 -0.0931,0.093 -0.39721,0.047 -0.67587,-0.1019 -0.65733,-0.3518 -2.70114,0.087 -6.378749,1.3685 -0.75492,0.2631 -1.65333,0.4784 -1.99648,0.4784 -0.34315,0 -0.6961,0.1168 -0.78434,0.2596 -0.0882,0.1427 -0.43868,0.2596 -0.77876,0.2596 -0.34008,0 -0.69052,0.1168 -0.77876,0.2596 -0.0882,0.1427 -0.49709,0.2595 -0.90856,0.2595 -0.41146,0 -0.82031,0.1169 -0.90855,0.2596 -0.0882,0.1428 -0.53902,0.2596 -1.00175,0.2596 -0.46272,0 -0.95229,0.1052 -1.08792,0.2338 -0.26864,0.2548 -3.77165,1.0644 -5.43834,1.2569 -0.57109,0.066 -1.14932,0.2249 -1.28495,0.353 -0.13564,0.1282 -0.73148,0.233 -1.3241,0.233 -0.59261,0 -1.41615,0.1057 -1.83008,0.2349 -0.41393,0.1291 -2.15437,0.3702 -3.86764,0.5357 -1.71327,0.1655 -3.81592,0.4063 -4.67256,0.535 -0.85663,0.1287 -3.66017,0.311 -6.23008,0.4051 -6.04426,0.2212 -5.7958,0.2213 -10.64305,0 -7.458,-0.3455 -8.27404,-0.3963 -11.03243,-0.686 -1.49911,-0.1575 -3.19291,-0.3286 -3.764,-0.3803 -2.19577,-0.1987 -3.67751,-0.3934 -4.80235,-0.6312 -1.58435,-0.3348 -1.63611,-0.3295 -1.45256,0.1488 0.11292,0.2943 0.0484,0.3753 -0.21755,0.2733 -0.49342,-0.1894 -0.60046,1.1911 -0.34894,4.5002 0.10309,1.3563 0.24235,10.2052 0.30947,19.6642 0.0671,9.4589 0.1925,17.3121 0.27862,17.4514 0.0861,0.1394 0.21572,2.5046 0.28803,5.2562 0.21769,8.2843 0.32269,10.6099 0.58332,12.9201 0.13691,1.2136 0.19196,2.2992 0.12234,2.4126 -0.0696,0.1133 0.0155,0.3772 0.18911,0.5865 0.23497,0.2831 0.26783,1.2926 0.12848,3.9473 -0.10298,1.9618 -0.19599,4.0926 -0.20667,4.735 -0.0357,2.144 0.33109,14.9078 0.46675,16.2433 0.11413,1.1236 0.45222,11.423 0.42544,12.9602 -0.005,0.2855 -0.0199,1.5815 -0.0331,2.8799 -0.0141,1.3863 -0.2138,3.047 -0.48385,4.0236 -0.36589,1.3232 -0.43188,2.2727 -0.32301,4.6481 0.0752,1.6419 0.13849,4.9127 0.14055,7.2684 0.004,4.0104 -0.0364,4.3659 -0.62689,5.5811 -0.70287,1.4466 -0.74261,1.9183 -0.80909,9.6047 -0.0235,2.7127 -0.1587,5.9835 -0.30053,7.2685 -0.14184,1.2849 -0.28882,3.3292 -0.32664,4.5427 -0.0378,1.2136 -0.15374,3.0412 -0.2576,4.0615 -0.35177,3.4555 -0.0108,3.6133 7.74061,3.5837 3.16036,-0.012 6.73902,-0.1038 7.95259,-0.2039 z m -36.635987,-9.4561 c 0.162818,-8.7344 0.107876,-11.7584 -0.204502,-11.2558 -0.321161,0.5168 -0.799563,0.1142 -0.799563,-0.6728 0,-0.6416 0.02326,-0.6529 0.484884,-0.2351 0.462443,0.4185 0.49248,0.4008 0.648967,-0.3816 0.271581,-1.3579 0.187791,-2.3226 -0.268885,-3.0957 -0.40509,-0.6857 -0.404434,-0.7765 0.01017,-1.4093 0.349466,-0.5333 0.469506,-1.4844 0.567806,-4.4988 0.0686,-2.1024 0.23309,-4.4065 0.36562,-5.1204 0.2682,-1.4447 0.299,-5.5314 0.0429,-5.6897 -0.0903,-0.056 -0.14232,-0.5506 -0.11564,-1.0997 0.32897,-6.7703 0.43144,-10.441 0.42098,-15.0808 -0.007,-3.0339 0.0732,-5.5162 0.1779,-5.5162 0.10469,0 0.20779,-4.7018 0.22911,-10.4484 0.0213,-5.7466 0.11004,-12.0253 0.19714,-13.9527 0.20095,-4.4467 0.21379,-23.6692 0.0189,-28.295 -0.0812,-1.9274 -0.22326,-5.315 -0.31568,-7.528 -0.28055,-6.718 -0.18605,-13.1397 0.27312,-18.5604 0.0484,-0.5711 0.15725,-2.5569 0.24194,-4.413 0.0847,-1.856 0.26671,-4.7381 0.40449,-6.4045 0.13777,-1.6665 0.25048,-3.3835 0.25048,-3.8155 0,-1.1872 -0.888,-1.9656 -3.374621,-2.958 -0.356932,-0.1424 -1.087019,-0.4847 -1.622417,-0.7606 -0.5467358,-0.2818 -0.9734488,-0.3806 -0.9734488,-0.2254 0,0.1518 -0.225755,0.2761 -0.50168,0.2761 -0.275925,0 -0.559012,0.2044 -0.629087,0.4543 -0.266663,0.9508 -0.475752,6.8026 -0.568796,15.9192 -0.05308,5.2005 -0.164201,9.8058 -0.246942,10.2341 -0.08274,0.4284 -0.195152,2.1222 -0.249805,3.7641 -0.05465,1.6418 -0.181999,5.0879 -0.282994,7.6578 -0.100997,2.5699 -0.170603,5.023 -0.15468,5.4513 0.01591,0.4283 0.02903,7.1451 0.02912,14.9262 2.21e-4,18.7189 0.0077,25.5023 0.03003,27.392 0.01018,0.8597 -0.01306,1.6774 -0.05166,1.8171 -0.03859,0.1397 0.019,1.0311 0.127995,1.981 0.198884,1.7335 -0.07402,3.3386 -0.765602,4.5031 -0.691606,1.1644 -0.854618,2.9938 -0.468543,5.2579 0.09117,0.5347 0.192146,2.615 0.224389,4.6228 0.03224,2.0079 0.186804,4.2274 0.343475,4.9322 0.524959,2.3616 0.682009,4.8833 0.597148,9.5882 -0.04636,2.5699 -0.06778,5.0522 -0.0476,5.5162 0.248964,5.7268 0.130159,10.3453 -0.488075,18.9736 -0.177407,2.476 -0.25806,4.9291 -0.179234,5.4514 0.07883,0.5223 0.180337,1.5412 0.225583,2.2643 0.09259,1.4797 0.530476,2.1323 2.689592,4.0082 1.2897068,1.1206 2.7967988,1.8635 3.3494738,1.6511 0.160376,-0.062 0.299937,-2.0971 0.35824,-5.2248 z m 60.618197,-24.3113 c 0.6716,-0.2022 1.59548,-0.6521 2.05305,-0.9998 0.45758,-0.3477 1.29921,-0.7914 1.8703,-0.9859 0.57109,-0.1945 1.38879,-0.5884 1.81711,-0.8754 1.24064,-0.8313 2.71116,-2.5601 2.71872,-3.1962 0.004,-0.3213 0.13805,-0.5841 0.29831,-0.5841 0.19232,0 0.20705,-0.1103 0.0433,-0.3245 -0.13642,-0.1784 -0.64639,-2.0721 -1.13326,-4.2081 -0.63024,-2.765 -1.04805,-4.0593 -1.45052,-4.4936 l -0.56531,-0.61 -1.04854,0.5349 c -0.5767,0.2942 -1.27992,0.535 -1.56273,0.535 -0.28281,0 -0.57777,0.1028 -0.65547,0.2285 -0.158,0.2557 -0.95389,0.4794 -2.87461,0.808 -2.80128,0.4793 -4.05258,0.9897 -4.89704,1.9976 -0.44763,0.5342 -1.9528,2.0997 -3.34484,3.4789 -1.96676,1.9487 -2.53097,2.6652 -2.53097,3.2139 0,0.9304 0.83168,2.0654 1.81037,2.4708 0.43203,0.179 0.7855,0.4152 0.7855,0.5249 0,0.1097 0.52566,0.4466 1.16814,0.7486 0.64248,0.302 1.16814,0.6653 1.16814,0.8073 0,0.1421 0.17522,0.2583 0.38938,0.2583 0.21416,0 0.38938,0.1168 0.38938,0.2596 0,0.1428 0.26283,0.2614 0.58407,0.2635 0.32124,0 0.75929,0.1172 0.97345,0.2557 0.57043,0.3686 2.59206,0.314 3.99404,-0.1079 z m -13.57711,-12.0927 c 0.27365,0 0.49754,-0.092 0.49754,-0.2055 0,-0.113 0.37964,-0.6142 0.84366,-1.1138 1.11422,-1.1995 3.08481,-3.5477 3.55315,-4.234 0.20526,-0.3009 0.6177,-0.7806 0.91652,-1.0662 0.29881,-0.2855 0.93928,-1.1032 1.42326,-1.8171 0.48397,-0.7138 1.27594,-1.7441 1.75992,-2.2894 1.16876,-1.317 1.0853,-2.093 -0.23693,-2.2031 -0.57876,-0.048 -1.39152,0.1311 -2.06055,0.4543 -0.60765,0.2936 -1.37491,0.5338 -1.70502,0.5338 -0.33012,0 -0.60021,0.1016 -0.60021,0.2258 0,0.1243 -0.54846,0.3795 -1.2188,0.5671 -1.52592,0.4273 -3.49856,1.4121 -3.27542,1.6352 0.0923,0.092 -0.15141,0.1678 -0.54152,0.1678 -1.50957,0 -2.76658,1.1123 -2.82501,2.4997 -0.0566,1.3441 1.45684,6.3262 1.92175,6.3262 0.12545,0 0.22809,0.1655 0.22809,0.3678 0,0.4117 0.60078,0.7156 0.7355,0.372 0.0476,-0.1213 0.31042,-0.2206 0.58407,-0.2206 z m 28.48407,-1.2874 c 0.3124,-0.4226 0.56799,-0.8801 0.56799,-1.0168 0,-0.1366 0.0876,-0.2873 0.19469,-0.3349 0.27118,-0.1206 3.45092,-6.7263 3.79028,-7.8742 0.0844,-0.2855 0.21223,-1.246 0.28402,-2.1343 0.0718,-0.8883 0.2708,-1.8398 0.44223,-2.1143 0.22039,-0.3529 0.23867,-0.7537 0.0624,-1.3683 -0.34511,-1.2033 -1.04405,-1.269 -1.984,-0.1864 -0.41601,0.4792 -1.07057,1.2216 -1.45457,1.6499 -0.384,0.4284 -0.97786,1.1877 -1.31969,1.6874 -0.83723,1.2239 -2.27047,2.5958 -2.71178,2.5958 -0.3988,0 -1.038,0.8755 -1.24956,1.7115 -0.0756,0.2988 -0.0361,1.1165 0.0877,1.8171 0.31643,1.7895 0.34787,1.8909 0.69388,2.2369 0.16989,0.1699 0.30888,0.4607 0.30888,0.6463 0,0.1856 0.11681,0.3375 0.25959,0.3375 0.14277,0 0.25958,0.623 0.25958,1.3844 0,0.7615 0.0779,1.4624 0.17306,1.5576 0.38329,0.3833 1.0579,0.1315 1.59523,-0.5952 z m -31.88777,-13.5411 c 0.49561,-0.3022 1.91723,-1.4115 3.15916,-2.4651 1.24194,-1.0537 2.32665,-1.9158 2.41048,-1.9158 0.14283,0 1.84075,-1.6985 5.01595,-5.0176 0.74956,-0.7835 1.36283,-1.524 1.36283,-1.6455 0,-0.1215 0.23363,-0.3668 0.51918,-0.5451 0.28554,-0.1783 0.51917,-0.4984 0.51917,-0.7114 0,-0.213 0.11681,-0.3872 0.25959,-0.3872 0.14277,0 0.25958,-0.1752 0.25958,-0.3894 0,-0.2141 0.0994,-0.3893 0.22079,-0.3893 0.41526,0 1.8559,-2.6291 1.8559,-3.387 0,-0.5988 -0.14112,-0.7919 -0.67682,-0.9264 -0.3885,-0.097 -0.75048,-0.051 -0.84971,0.1098 -0.0951,0.1539 -0.75422,0.3048 -1.46476,0.3355 -0.71053,0.031 -1.4087,0.143 -1.55147,0.2497 -0.14277,0.1066 -1.01888,0.2609 -1.9469,0.3428 -3.64832,0.3218 -7.63261,1.5762 -10.12352,3.1871 -2.18481,1.413 -2.67397,2.444 -2.51675,5.305 0.0659,1.1999 0.18443,2.5321 0.26332,2.9604 0.0789,0.4283 0.28755,1.7498 0.4637,2.9366 0.24495,1.6503 0.44559,2.2456 0.853,2.531 0.70075,0.4908 0.89944,0.4728 1.96728,-0.1781 z m 24.93195,-0.3523 c -0.28907,-0.3483 -0.26711,-0.3841 0.15378,-0.251 0.46827,0.1482 0.46907,0.1414 0.0172,-0.1476 -0.26056,-0.1666 -0.54624,-0.2305 -0.63485,-0.1419 -0.30179,0.3018 -0.29125,1.0412 0.0176,1.2321 0.48718,0.3011 0.82964,-0.2296 0.44625,-0.6916 z m -6.83956,-5.4135 c 0.095,-0.095 0.5697,-0.1726 1.05499,-0.1726 0.4853,0 1.0791,-0.1043 1.31957,-0.2318 0.24046,-0.1275 1.07969,-0.2897 1.86494,-0.3603 0.78525,-0.071 1.72567,-0.2467 2.08983,-0.3911 0.36415,-0.1444 0.97743,-0.2023 1.36283,-0.1286 0.45279,0.087 0.70072,0.021 0.70072,-0.184 0,-0.1983 0.21985,-0.2652 0.58407,-0.1777 0.32124,0.077 1.05133,-0.025 1.62242,-0.2275 0.57109,-0.2023 1.52507,-0.3697 2.11996,-0.3718 0.61871,0 1.13795,-0.1428 1.21327,-0.3284 0.0994,-0.245 0.20494,-0.2291 0.43077,0.065 0.22583,0.294 0.33137,0.3099 0.43078,0.065 0.0845,-0.2082 0.68211,-0.3245 1.66755,-0.3245 1.04472,0 1.54244,-0.1038 1.55638,-0.3245 0.0164,-0.2596 0.0467,-0.2596 0.15142,0 0.072,0.1785 0.24491,0.3245 0.38421,0.3245 0.1393,0 0.19151,-0.1 0.11602,-0.2221 -0.0755,-0.1221 0.14227,-0.1686 0.48392,-0.1033 0.77979,0.149 2.21856,-0.6763 2.21856,-1.2728 0,-0.2463 0.10132,-0.5105 0.22516,-0.587 0.12383,-0.077 0.29214,-0.6383 0.37402,-1.2484 0.0819,-0.61 0.33099,-1.9268 0.5536,-2.9262 0.22261,-0.9993 0.40474,-2.4053 0.40474,-3.1243 0,-1.1657 -0.0633,-1.3135 -0.58407,-1.3645 -1.83267,-0.1798 -13.33546,0 -13.54774,0.2159 -0.13711,0.137 -0.41676,0.2492 -0.62144,0.2492 -0.35882,0 -1.59974,1.2437 -1.60039,1.6039 -1.7e-4,0.097 -0.15189,0.3305 -0.33714,0.5192 -0.5759,0.5865 -1.99945,2.7584 -1.99945,3.0505 0,0.1528 -0.097,0.2778 -0.21559,0.2778 -0.11856,0 -0.57521,0.4964 -1.01475,1.1032 -0.43955,0.6068 -1.36584,1.6873 -2.05843,2.4012 -2.09366,2.1579 -2.75981,3.1579 -2.58025,3.8734 0.12263,0.4886 0.30779,0.618 0.80798,0.5646 0.35689,-0.038 0.72658,-0.1468 0.82154,-0.2418 z m -20.78678,-15.2936 c 0.33889,-0.3212 0.62131,-0.7008 0.62759,-0.8436 0.006,-0.1428 0.45042,-0.7383 0.98696,-1.3233 0.53655,-0.5851 1.49014,-1.8409 2.11909,-2.7906 0.62895,-0.9497 1.23816,-1.7268 1.3538,-1.7268 0.11564,0 0.21026,-0.1571 0.21026,-0.3492 0,-0.192 0.23449,-0.5613 0.5211,-0.8207 0.2866,-0.2594 0.67396,-0.7739 0.8608,-1.1435 0.60356,-1.1938 1.07172,-1.9522 1.66824,-2.7026 0.32124,-0.4041 0.58407,-0.8867 0.58407,-1.0724 0,-0.1857 0.1668,-0.4761 0.37068,-0.6453 0.20387,-0.1692 0.68376,-0.9136 1.06642,-1.6542 0.38265,-0.7406 0.91673,-1.5878 1.18684,-1.8825 0.64252,-0.7011 0.66702,-2.1782 0.0368,-2.2197 -2.07371,-0.1368 -10.20596,0.1106 -10.76019,0.3274 -1.07822,0.4217 -1.46377,1.2649 -1.78308,3.8997 -0.16146,1.3323 -0.34631,2.5086 -0.41078,2.6141 -0.35241,0.5766 -0.97925,11.8086 -0.69967,12.5372 0.219,0.5707 1.36328,0.4575 2.06105,-0.204 z M 4.6013442,256.8438 c 0,-0.2057 0.116082,-0.374 0.257959,-0.374 0.267785,0 0.222757,-0.9038 -0.05907,-1.1856 -0.242664,-0.2427 -0.900986,1.249 -0.78237,1.7728 0.118304,0.5224 0.58348,0.3524 0.58348,-0.2132 z m 64.1178868,-0.2693 c 0.71386,-0.085 1.29793,-0.2491 1.29793,-0.3643 0,-0.218 1.45828,-0.4379 4.51935,-0.6818 3.17021,-0.2525 3.48634,-0.5904 6.22178,-6.6516 0.37051,-0.8209 0.7636,-1.4926 0.87355,-1.4926 0.10994,0 0.34928,-0.4786 0.53185,-1.0636 0.18257,-0.585 0.80332,-2.0743 1.37944,-3.3097 0.57611,-1.2354 1.17694,-2.7301 1.33516,-3.3215 0.48556,-1.8152 0.23693,-1.9099 -5.01299,-1.9099 l -4.46621,0 -0.59788,0.6958 c -0.32884,0.3827 -0.67293,0.9948 -0.76465,1.3603 -0.0917,0.3654 -0.24511,0.724 -0.34087,0.7968 -0.0958,0.073 -0.69122,1.1837 -1.32324,2.4686 -0.63202,1.285 -1.93074,3.4461 -2.88603,4.8024 -0.9553,1.3563 -1.78155,2.5829 -1.83612,2.7257 -0.14549,0.3806 -2.63983,4.0949 -3.01956,4.4964 -0.17847,0.1886 -0.32448,0.4531 -0.32448,0.5876 0,0.1345 0.14601,0.4842 0.32448,0.7772 0.27772,0.4559 0.50219,0.5115 1.55752,0.3858 0.67817,-0.081 1.81711,-0.2164 2.53097,-0.3016 z m 29.52617,-2.5303 c 0.66057,-0.6449 0.91508,-3.5085 0.94497,-10.6322 l 0.0303,-7.2172 -0.64896,-0.4927 c -0.35694,-0.2711 -0.68791,-0.3817 -0.7355,-0.246 -0.0476,0.1357 -0.48564,0.2467 -0.97345,0.2467 -0.48781,0 -0.88692,0.091 -0.88692,0.2029 0,0.1116 -0.55487,0.354 -1.23304,0.5387 -2.51772,0.6854 -3.07071,1.1895 -3.35671,3.0599 -0.0842,0.5505 -0.29231,1.1761 -0.46252,1.3903 -0.17021,0.2141 -0.45687,0.905 -0.63702,1.5352 -0.18015,0.6302 -0.88448,2.324 -1.56517,3.764 -0.68068,1.44 -1.39461,3.0562 -1.58649,3.5916 -0.19188,0.5354 -0.42922,0.9734 -0.52743,0.9734 -0.0982,0 -0.26067,0.4378 -0.36105,0.9729 -0.10038,0.5351 -0.30092,1.0461 -0.44565,1.1355 -0.34601,0.2138 0.47008,1.4684 1.02489,1.5756 0.2281,0.044 2.81826,0.043 5.75591,0 3.7395,-0.057 5.43794,-0.1763 5.66386,-0.3969 z m -35.43177,-20.3091 c 0.96372,-0.1012 1.75221,-0.284 1.75221,-0.4061 0,-0.1221 0.29204,-0.222 0.64897,-0.222 0.35693,0 0.64897,-0.1252 0.64897,-0.2782 0,-0.1529 0.17836,-0.4564 0.39635,-0.6744 0.43297,-0.433 0.3643,-1.238 -0.31191,-3.656 -0.61876,-2.2125 -1.51454,-2.2742 -3.76813,-0.2596 -2.16468,1.9351 -3.35608,2.7915 -3.88354,2.7915 -0.26785,0 -0.74825,0.135 -1.06755,0.2999 -0.3193,0.165 -0.75577,0.3809 -0.96993,0.4798 -0.21416,0.099 -0.52792,0.4531 -0.69725,0.7872 -0.26456,0.522 -0.22804,0.6768 0.25958,1.1001 0.49579,0.4304 0.86257,0.4755 2.90375,0.3572 1.28495,-0.074 3.12477,-0.2183 4.08848,-0.3194 z m 21.09141,-2.2078 c 1.5705,-0.025 4.54926,-0.1844 6.61946,-0.355 2.07021,-0.1706 4.39213,-0.2798 5.15983,-0.2427 1.09087,0.053 1.56011,-0.054 2.14786,-0.4886 0.69568,-0.5143 0.74902,-0.6736 0.71169,-2.1249 -0.0222,-0.863 -0.10668,-1.6831 -0.18775,-1.8225 -0.0811,-0.1395 -0.18365,-0.7236 -0.22793,-1.298 -0.15594,-2.0226 -1.85357,-8.4709 -2.95734,-11.2331 -1.03848,-2.5989 -1.5193,-3.0233 -3.17613,-2.8035 -0.72146,0.096 -2.43964,0.17 -3.81817,0.1651 -2.30587,-0.01 -2.55257,0.04 -3.08333,0.6052 -0.3173,0.3378 -0.60888,0.7728 -0.64797,0.9667 -0.0391,0.1939 -0.20582,0.6814 -0.37053,1.0833 -0.16471,0.402 -0.30029,0.8692 -0.30129,1.0384 -0.003,0.4884 -1.17496,3.8014 -1.91674,5.4178 -0.37252,0.8118 -0.67731,1.5971 -0.67731,1.7451 0,0.249 -1.03284,2.6807 -1.57976,3.7193 -0.13054,0.2479 -0.23735,0.721 -0.23735,1.0514 0,0.3303 -0.0971,0.7115 -0.21583,0.8471 -0.25664,0.2933 -0.82252,2.2122 -0.82252,2.7892 0,0.7591 0.75487,1.2293 1.77091,1.1031 0.52511,-0.065 2.23971,-0.1387 3.8102,-0.1634 z m -9.98966,-8.3928 c 2.6015,-5.7318 2.62101,-5.784 2.43791,-6.5135 -0.28395,-1.1313 -0.74732,-0.9155 -3.34836,1.5597 -0.75015,0.7139 -1.49565,1.5531 -1.65667,1.865 -0.36215,0.7014 -0.38859,3.4566 -0.0332,3.4566 0.14277,0 0.25958,0.3309 0.25958,0.7355 0,0.6386 0.0992,0.7355 0.75308,0.7355 0.68163,0 0.83226,-0.1745 1.58762,-1.8388 z m -12.46457,-1.1902 c 0.0714,-0.072 0.59704,-0.5215 1.16813,-0.9998 2.73738,-2.2925 7.39822,-6.9235 7.39822,-7.3508 0,-0.2612 0.14602,-0.4841 0.32449,-0.4954 0.23038,-0.014 0.22186,-0.061 -0.0294,-0.1612 -0.29875,-0.1188 -0.29875,-0.1757 0,-0.3649 0.21217,-0.1344 -0.71151,-0.2258 -2.3069,-0.2282 -1.60344,0 -2.66077,0.099 -2.66077,0.2556 0,0.1428 -0.13569,0.2596 -0.30153,0.2596 -0.4713,0 -1.96827,1.8131 -2.67905,3.2448 -0.3544,0.7139 -0.93309,1.8118 -1.28599,2.4397 -0.62521,1.1125 -1.11281,2.2183 -1.44252,3.2712 -0.10127,0.3235 -0.01,0.6341 0.24229,0.8239 0.3819,0.2874 0.76146,0.1198 1.57301,-0.6945 z m 10.69558,-14.4159 c 0.0765,-0.076 1.3483,-0.1991 2.82624,-0.2725 2.35094,-0.1167 2.79368,-0.2147 3.53841,-0.7827 0.64412,-0.4913 0.86229,-0.8671 0.89667,-1.5446 0.025,-0.4924 0.0659,-1.271 0.0909,-1.7301 0.0739,-1.3575 -0.12815,-1.7613 -0.88042,-1.7593 -1.25697,0 -7.66149,4.1784 -7.70889,5.0255 -0.0185,0.3302 0.65042,1.2028 0.92199,1.2028 0.0969,0 0.23867,-0.063 0.31515,-0.1391 z m 16.30531,-1.9449 c 0.15496,-0.2895 0.39136,-0.4587 0.52533,-0.3759 0.33298,0.2058 -1.6e-4,-0.6812 -0.4557,-1.2134 -0.56757,-0.6629 -1.28165,-0.7321 -1.87277,-0.1814 -0.64868,0.6043 -0.68299,1.1864 -0.10742,1.8224 0.57196,0.6321 1.55894,0.6053 1.91056,-0.052 z m -52.42182,-22.9547 c 0.13256,0.082 0.24103,-0.019 0.24103,-0.2254 0,-0.2059 0.26283,-0.4583 0.58407,-0.5607 0.77429,-0.2469 4.01532,-0.1652 4.99704,0.126 0.42832,0.127 2.18053,0.3216 3.8938,0.4324 3.39464,0.2195 21.16415,0.2351 22.84362,0.02 0.57109,-0.073 1.79763,-0.2099 2.72566,-0.3039 3.20605,-0.3248 4.28566,-0.4483 4.93214,-0.5644 0.35693,-0.064 1.02565,-0.1622 1.48605,-0.2178 0.46039,-0.056 1.17906,-0.1764 1.59704,-0.2682 1.09016,-0.2395 2.90017,-0.4392 3.73106,-0.4117 0.39262,0.013 0.71386,-0.074 0.71386,-0.1944 0,-0.2036 2.77239,-0.8675 3.63421,-0.8703 0.21416,0 1.57717,-0.4005 3.02892,-0.8884 1.45174,-0.4879 2.81089,-0.8871 3.02033,-0.8871 0.33446,0 2.45845,-0.5837 3.55546,-0.9771 0.21416,-0.077 0.52971,-0.1692 0.70124,-0.2054 0.17153,-0.036 0.95818,-0.3715 1.74813,-0.7452 0.789939,-0.3737 1.790969,-0.7504 2.224499,-0.8371 0.43354,-0.087 0.85112,-0.2594 0.92796,-0.3837 0.0768,-0.1244 0.378,-0.2261 0.66923,-0.2261 0.29124,0 0.89762,-0.1615 1.34751,-0.3589 0.44989,-0.1975 1.18847,-0.4999 1.64128,-0.6721 0.45282,-0.1722 1.22013,-0.7419 1.70514,-1.2661 0.96696,-1.0452 1.68952,-2.7001 1.24375,-2.8486 -0.14727,-0.049 -0.26776,-0.2564 -0.26776,-0.4606 0,-0.3589 -0.49654,-1.3969 -0.7951,-1.6621 -0.0804,-0.071 -0.47005,-1.1227 -0.86594,-2.3363 -1.01009,-3.0963 -2.46272,-6.972 -3.01611,-8.0472 -0.2572,-0.4997 -0.64095,-1.3758 -0.85278,-1.9469 -0.71374,-1.9242 -1.34055,-3.2448 -1.54014,-3.2448 -0.1091,0 -0.19835,-0.2149 -0.19835,-0.4775 0,-0.2626 -0.38787,-0.8304 -0.86192,-1.2618 l -0.861909,-0.7843 -2.44782,0.7343 c -1.3463,0.4039 -2.71064,0.7381 -3.03188,0.7427 -0.32124,0 -0.58407,0.1128 -0.58407,0.2406 0,0.1277 -0.43805,0.2985 -0.97345,0.3794 -2.27713,0.3441 -2.9332,0.4969 -3.06787,0.7148 -0.0785,0.1271 -0.59618,0.2309 -1.15041,0.2309 -0.55424,0 -1.0799,0.1169 -1.16814,0.2596 -0.0882,0.1428 -0.44773,0.2596 -0.79886,0.2596 -0.35112,0 -1.48317,0.2236 -2.51564,0.4969 -1.03248,0.2733 -2.48401,0.5545 -3.22562,0.6248 -0.74162,0.07 -1.4425,0.184 -1.55752,0.2527 -0.11503,0.069 -1.07089,0.2003 -2.12414,0.2924 -1.05326,0.092 -2.11843,0.2762 -2.36705,0.4093 -0.24862,0.1331 -0.51828,0.1757 -0.59925,0.095 -0.081,-0.081 -0.94324,-0.02 -1.91614,0.1369 -2.96006,0.4753 -22.40604,0.9666 -22.40604,0.5661 0,-0.3411 -4.72926,-0.1523 -5.41043,0.216 -0.52731,0.2852 -0.9579,1.0652 -2.09163,3.7893 -0.11885,0.2855 -0.34846,0.8112 -0.51027,1.1681 -0.1618,0.3569 -0.51246,1.2914 -0.77925,2.0767 -1.03156,3.0362 -1.53315,4.3959 -2.20266,5.9705 -0.21246,0.4997 -0.46793,1.2006 -0.56772,1.5575 -0.17151,0.6135 -1.20315,3.0386 -1.66004,3.9023 -0.11577,0.2189 -0.29303,0.7737 -0.39392,1.2331 -0.10088,0.4593 -0.27739,0.8351 -0.39224,0.8351 -0.35026,0 -1.41369,2.9105 -1.35325,3.7037 0.0312,0.4093 0.23675,1.019 0.45681,1.3548 0.22005,0.3359 0.37898,0.7661 0.35316,0.956 -0.0258,0.19 -0.0172,0.579 0.0192,0.8645 0.0591,0.4639 0.0781,0.4566 0.17911,-0.069 0.0622,-0.3234 0.22146,-0.5209 0.35402,-0.439 z m -22.55406,-7.5653 c 0.40864,-0.1455 1.50899,-2.1121 1.50899,-2.697 0,-0.1443 0.0883,-0.2624 0.19622,-0.2624 0.10792,0 0.35038,-0.3796 0.5388,-0.8436 0.18842,-0.4641 0.56738,-1.2928 0.84213,-1.8417 0.27475,-0.5488 0.49954,-1.1511 0.49954,-1.3383 0,-0.4118 1.0406,-2.461 1.49223,-2.9385 0.17826,-0.1884 0.40066,-0.6557 0.49425,-1.0383 0.0936,-0.3826 0.24783,-0.7541 0.34277,-0.8255 0.47602,-0.3579 2.34331,-5.2506 2.34331,-6.1399 0,-0.2781 0.12935,-0.6349 0.28745,-0.793 0.31226,-0.3122 0.47183,-3.8114 0.18694,-4.0992 -0.39667,-0.4009 -2.55318,-0.2087 -3.08772,0.275 -0.43346,0.3923 -1.79964,2.9335 -1.79964,3.3475 0,0.057 -0.59967,1.0753 -1.33259,2.2637 -0.73292,1.1883 -1.53964,2.5243 -1.7927,2.9687 -0.25306,0.4445 -0.61711,1.081 -0.809,1.4145 -0.19189,0.3336 -0.553317,0.8389 -0.803169,1.1229 -0.249852,0.284 -0.454277,0.6312 -0.454277,0.7715 0,0.1403 -0.163365,0.4395 -0.363037,0.6649 -0.199671,0.2254 -0.594232,0.8187 -0.876803,1.3184 -0.28257,0.4997 -0.9279338,1.634 -1.4341378,2.5207 -0.962869,1.6865 -1.170491,2.4924 -0.839687,3.2592 0.273295,0.6336 3.8111388,3.3462 4.1483158,3.1808 0.150645,-0.074 0.470965,-0.2046 0.711815,-0.2904 z m 49.79209,-25.4005 c 3.23578,-0.2061 5.41248,-0.3818 7.00884,-0.5659 3.17154,-0.3657 6.91019,-0.9021 9.58922,-1.3759 1.63337,-0.2888 3.02077,-0.4741 3.08311,-0.4117 0.0624,0.062 0.51416,-0.054 1.00403,-0.2588 0.48988,-0.2047 1.49716,-0.4493 2.23841,-0.5435 0.74126,-0.094 1.4744,-0.2707 1.6292,-0.3923 0.15481,-0.1217 0.72777,-0.2783 1.27324,-0.3482 0.54548,-0.07 1.64537,-0.3198 2.4442,-0.5554 1.51327,-0.4465 3.22363,-0.8964 5.86539,-1.5427 0.85663,-0.2096 1.73274,-0.43 1.9469,-0.4898 0.21416,-0.06 0.4787,-0.1176 0.58788,-0.1285 0.109179,-0.011 0.429979,-0.3995 0.712889,-0.8635 0.59145,-0.9701 0.66841,-2.6113 0.21464,-4.5772 -0.33662,-1.4583 -1.045239,-1.9296 -2.359069,-1.5692 -0.39263,0.1078 -0.71565,0.1184 -0.71784,0.024 -0.002,-0.095 -0.0898,-0.055 -0.19469,0.087 -0.32794,0.4464 -2.92841,1.7105 -3.1883,1.5499 -0.13598,-0.084 -0.24725,-0.045 -0.24725,0.086 0,0.1313 -0.61327,0.4241 -1.36283,0.6507 -0.74955,0.2266 -2.18052,0.7096 -3.17993,1.0734 -0.99941,0.3638 -2.13145,0.6619 -2.51565,0.6625 -0.3842,0 -0.77074,0.118 -0.85898,0.2608 -0.0882,0.1427 -0.56071,0.2596 -1.04994,0.2596 -0.9717,0 -3.10467,0.45 -3.80243,0.8023 -0.24167,0.122 -1.11778,0.2423 -1.9469,0.2673 -0.82912,0.025 -1.56862,0.1383 -1.64334,0.2517 -0.0747,0.1134 -0.71718,0.2319 -1.42772,0.2633 -0.71054,0.031 -1.55305,0.1515 -1.87224,0.2668 -0.31919,0.1153 -1.3864,0.2564 -2.37156,0.3136 -0.98517,0.057 -1.89215,0.16 -2.01552,0.2284 -0.12337,0.068 -0.85971,0.1487 -1.63631,0.1785 -0.77661,0.03 -1.52782,0.1256 -1.66935,0.2131 -0.14153,0.088 -0.79108,0.1891 -1.44344,0.2258 -0.65236,0.037 -2.29584,0.1491 -3.65218,0.2498 -5.16383,0.3834 -19.57927,0.213 -24.66072,-0.2915 -0.78525,-0.078 -2.12861,-0.2007 -2.98525,-0.2728 -0.85664,-0.072 -1.84955,-0.2219 -2.20649,-0.333 -0.35693,-0.1111 -1.40825,-0.2296 -2.33627,-0.2634 -0.92803,-0.034 -1.72626,-0.1697 -1.77385,-0.3019 -0.0476,-0.1323 -0.72616,-0.2405 -1.50794,-0.2405 -0.88151,0 -1.36047,-0.099 -1.26098,-0.2596 0.0991,-0.1604 -0.41575,-0.2722 -1.34751,-0.2927 -1.93852,-0.043 -2.65619,-0.12 -2.84296,-0.3068 -0.0828,-0.083 -0.43318,0.1855 -0.77874,0.5962 -0.59043,0.7017 -0.60956,0.8221 -0.31752,1.9974 0.17092,0.6879 0.49585,1.5098 0.72206,1.8265 0.60366,0.8451 3.37037,1.6483 5.75889,1.672 0.48536,0 1.29132,0.1078 1.79103,0.2288 0.4997,0.1211 1.66784,0.2457 2.59586,0.2769 0.92802,0.031 1.97935,0.1455 2.33628,0.2539 0.35693,0.1083 1.7587,0.2652 3.11504,0.3486 1.35634,0.083 3.69262,0.2736 5.19173,0.4226 9.49143,0.9432 14.9208,1.1025 22.06486,0.6475 z m -4.02359,-11.0641 c 1.14218,-0.1247 3.5756,-0.345 5.40759,-0.4894 1.83199,-0.1445 3.75942,-0.376 4.28318,-0.5145 1.71362,-0.4532 2.50643,-0.621 2.71439,-0.5744 0.11253,0.025 0.95454,-0.1539 1.87114,-0.3981 1.31298,-0.3499 1.60703,-0.5158 1.38604,-0.7821 -0.15428,-0.1859 -0.44143,-0.338 -0.6381,-0.338 -0.19668,0 -0.3576,-0.1168 -0.3576,-0.2596 0,-0.3358 -10.24521,-0.3518 -10.87083,-0.017 -0.24928,0.1334 -1.0885,0.3011 -1.86494,0.3726 -0.77643,0.072 -1.4117,0.1473 -1.4117,0.1684 0,0.074 -1.31156,0.203 -2.92035,0.2875 -0.89233,0.047 -1.62241,0.1514 -1.62241,0.2324 0,0.081 -1.04871,0.1579 -2.33045,0.171 -1.28175,0.013 -2.65432,0.1173 -3.05015,0.2314 -0.72178,0.2082 -1.01081,0.2441 -2.63197,0.3264 -0.73702,0.037 -0.85266,0.1257 -0.73816,0.5636 0.0747,0.2855 0.0299,0.5192 -0.0995,0.5192 -0.35442,0 -0.28252,0.7136 0.0892,0.8854 0.42719,0.1974 10.12724,-0.095 12.78464,-0.3848 z m -21.93507,-0.9107 c 1.0708,-0.2036 2.47257,-0.4194 3.11504,-0.4795 0.64248,-0.06 2.4531,-0.4128 4.02359,-0.7834 1.5705,-0.3707 3.14749,-0.7417 3.50442,-0.8244 1.03926,-0.2409 4.82646,-0.8408 7.91739,-1.2541 7.22177,-0.9658 7.11071,-0.9433 7.28011,-1.4771 0.29108,-0.9171 -0.44512,-3.0742 -1.24312,-3.6424 -0.67479,-0.4805 -1.07811,-0.5165 -5.07235,-0.4527 -2.38659,0.038 -4.45608,0.1541 -4.59885,0.2577 -0.14277,0.1035 -1.1941,0.258 -2.33628,0.3432 -1.14218,0.085 -2.83598,0.2798 -3.764,0.4324 -0.92803,0.1526 -2.0166,0.317 -2.41906,0.3655 -0.70965,0.085 -2.69166,0.4197 -5.62813,0.9493 -0.78525,0.1417 -1.77817,0.3515 -2.20648,0.4664 -0.42832,0.1149 -1.24602,0.3358 -1.81711,0.4908 -0.57109,0.155 -1.35142,0.3462 -1.73406,0.4248 -0.38264,0.079 -0.87075,0.3181 -1.0847,0.532 -0.21394,0.214 -0.49841,0.389 -0.63216,0.389 -0.32408,0 -0.11839,2.3347 0.24417,2.7716 0.15679,0.1889 0.20826,0.3435 0.11436,0.3435 -0.51515,0 0.48443,1.0229 1.14036,1.167 0.42786,0.094 0.84474,0.2789 0.92638,0.411 0.15958,0.2582 1.19644,0.1537 4.27048,-0.4306 z m 47.5864,-3.6606 c 0.42388,-0.1156 0.45482,-0.3394 0.30675,-2.2186 -0.0952,-1.208 -0.31328,-2.2386 -0.51678,-2.4421 -0.43037,-0.4304 -1.72324,-0.9827 -2.07851,-0.8879 -0.29863,0.08 -1.72971,0.044 -5.58111,-0.1377 -2.35671,-0.1113 -2.80274,-0.066 -3.29508,0.3362 -1.08394,0.8852 -0.81122,3.8927 0.39496,4.3556 0.23535,0.09 1.69537,0.2754 3.2445,0.4114 1.54912,0.1359 3.0423,0.3679 3.31816,0.5155 0.27587,0.1477 0.59678,0.2097 0.71314,0.1377 0.11636,-0.072 0.552,-0.032 0.96809,0.089 0.70167,0.2039 1.34308,0.1635 2.52588,-0.1592 z m 115.157179,92.7486 c -0.21634,-0.2103 -2.20238,-0.4437 -3.80639,-0.4473 -0.88943,0 -1.68482,-0.1131 -1.76753,-0.247 -0.0827,-0.1338 -0.786,-0.2434 -1.56281,-0.2434 -0.77684,0 -1.41241,-0.1033 -1.41241,-0.2296 0,-0.1263 -0.56658,-0.2296 -1.25903,-0.2296 -0.69247,0 -1.51017,-0.1344 -1.8171,-0.2987 -0.43104,-0.2307 -0.55809,-0.2257 -0.55809,0.022 0,0.2493 -0.0692,0.2514 -0.3115,0.01 -0.20728,-0.2072 -1.34212,-0.3115 -3.39168,-0.3115 -1.69411,0 -3.30615,-0.1209 -3.5823,-0.2687 -0.35423,-0.1895 -0.50211,-0.185 -0.50211,0.015 0,0.1562 -0.13932,0.1979 -0.30961,0.093 -0.17029,-0.1052 -1.01719,-0.2304 -1.88201,-0.2781 -0.86481,-0.048 -2.03965,-0.1351 -2.61074,-0.1942 -0.57109,-0.059 -1.97285,-0.1896 -3.11503,-0.2901 -1.14219,-0.1005 -2.1351,-0.2551 -2.20649,-0.3436 -0.2058,-0.2552 -1.14867,-0.1869 -1.36283,0.099 -0.12211,0.1628 -0.28998,0.1144 -0.45031,-0.1298 -0.22721,-0.3461 -0.25649,-0.3461 -0.26355,0 -0.005,0.2637 -0.0695,0.2933 -0.19867,0.092 -0.10489,-0.1636 -0.95,-0.3366 -1.87803,-0.3843 -0.92802,-0.048 -1.75433,-0.1795 -1.83623,-0.2928 -0.0819,-0.1133 -0.60759,-0.2194 -1.16814,-0.2359 -0.56058,-0.016 -1.13603,-0.1153 -1.2788,-0.2195 -0.2274,-0.1661 -0.92143,-0.3356 -2.84419,-0.6948 -0.27934,-0.052 -0.57138,-0.1795 -0.64897,-0.2829 -0.0776,-0.1035 -0.25787,-0.1983 -0.40064,-0.2107 -0.47551,-0.041 -2.58946,-0.6737 -3.04662,-0.9113 -0.24793,-0.1289 -0.62402,-0.2343 -0.83576,-0.2343 -0.21177,0 -0.80095,-0.2336 -1.30936,-0.5192 -0.5084,-0.2855 -1.15443,-0.5192 -1.43561,-0.5192 -0.28121,0 -0.51128,-0.1168 -0.51128,-0.2595 0,-0.1428 -0.12245,-0.2596 -0.27213,-0.2596 -0.14968,0 -0.75568,-0.2337 -1.34668,-0.5192 -0.59103,-0.2856 -1.19864,-0.5218 -1.35029,-0.5249 -0.15165,0 -0.56777,-0.2342 -0.9247,-0.5135 -0.35693,-0.2791 -0.85339,-0.5102 -1.10325,-0.5133 -0.24985,0 -0.45427,-0.094 -0.45427,-0.2021 0,-0.1079 -0.37965,-0.3619 -0.84366,-0.5644 -0.46401,-0.2025 -1.03258,-0.5815 -1.26348,-0.8421 -0.23091,-0.2606 -0.49846,-0.4739 -0.59459,-0.4739 -0.25065,0 -2.35629,-1.5186 -3.14941,-2.2714 -0.18801,-0.1785 -0.46702,-0.3245 -0.61999,-0.3245 -0.15298,0 -0.27994,-0.088 -0.28217,-0.1947 -0.003,-0.1071 -0.61538,-0.4867 -1.3626,-0.8436 -0.74719,-0.357 -1.58511,-0.8534 -1.86201,-1.1033 -0.2769,-0.2498 -0.68586,-0.4568 -0.90879,-0.46 -0.22293,0 -0.69735,-0.2342 -1.05429,-0.5134 -0.35693,-0.2792 -0.74825,-0.5102 -0.86961,-0.5134 -0.29962,-0.01 -1.98584,-1.7119 -1.98584,-2.0068 0,-0.1298 -0.8469,-0.6432 -1.882,-1.1409 -2.72324,-1.3095 -5.18674,-2.6398 -5.71845,-3.0882 -0.25399,-0.2141 -0.83806,-0.5173 -1.29793,-0.6736 -0.80625,-0.2741 -0.83563,-0.3344 -0.82259,-1.6873 0.007,-0.7717 0.17526,-2.1624 0.37294,-3.0904 0.19768,-0.928 0.38502,-2.6802 0.41633,-3.8938 0.0313,-1.2136 0.13748,-3.0826 0.23596,-4.1534 0.0985,-1.0708 0.22963,-2.7566 0.29145,-3.7464 0.0618,-0.9897 0.24225,-1.9559 0.40095,-2.1471 0.29036,-0.3499 0.13431,-3.2129 -0.20506,-3.762 -0.18369,-0.2972 -0.14827,-13.1569 0.0371,-13.4568 0.0647,-0.1047 0.18386,-1.0508 0.26477,-2.1024 0.0809,-1.0517 0.20541,-2.1113 0.27668,-2.3549 0.27918,-0.954 0.40279,-3.4432 0.46783,-9.4215 0.0675,-6.2013 0.0648,-6.2357 -0.57994,-7.4635 -0.5494,-1.0462 -0.60202,-1.3338 -0.34666,-1.8942 0.16558,-0.3634 0.30106,-1.0992 0.30106,-1.635 0,-0.5358 0.12253,-1.0967 0.27229,-1.2465 0.14976,-0.1497 0.31152,-1.6625 0.35947,-3.3616 0.0586,-2.0754 0.23397,-3.4975 0.53441,-4.3328 0.25056,-0.6966 0.38959,-1.6098 0.31615,-2.0767 -0.0721,-0.4583 0.053,-1.7678 0.27791,-2.91 0.28887,-1.4667 0.39662,-3.3728 0.36686,-6.4896 -0.0232,-2.4272 0.0681,-4.9387 0.20285,-5.5812 0.13473,-0.6424 0.30293,-4.9061 0.37377,-9.4749 0.0938,-6.0517 0.24331,-8.941 0.55061,-10.643 0.23199,-1.285 0.50831,-2.8172 0.61404,-3.405 0.10573,-0.5878 0.0963,-1.3282 -0.0211,-1.6453 -0.11731,-0.3171 -0.10809,-0.7646 0.0205,-0.9943 0.13027,-0.2328 0.13765,-0.6706 0.0167,-0.9888 -0.11941,-0.3141 -0.15659,-0.6316 -0.0826,-0.7055 0.074,-0.074 0.24153,-1.2834 0.37236,-2.6875 0.13082,-1.4041 0.28259,-2.8941 0.33727,-3.3111 0.0547,-0.417 2.6e-4,-1.1037 -0.1208,-1.526 -0.12112,-0.4223 -0.24734,-1.2276 -0.28049,-1.7895 -0.0331,-0.5619 -0.13515,-1.0679 -0.22666,-1.1244 -0.29347,-0.1814 -0.30223,-11.8915 -0.009,-12.6615 0.32626,-0.8581 0.48879,-9.0865 0.21779,-11.0258 -0.23147,-1.6564 -0.43269,-2.6123 -0.69536,-3.3034 -0.6388,-1.6805 -1.31979,-4.0837 -1.31979,-4.6573 0,-0.9701 1.83796,-4.3139 2.51403,-4.5738 0.94211,-0.3622 3.6129,-3.3237 4.40274,-4.882 0.40758,-0.8042 1.00387,-1.7193 1.32511,-2.0337 0.32124,-0.3145 0.58407,-0.6883 0.58407,-0.8308 0,-0.1425 0.16305,-0.3525 0.36233,-0.4667 0.19929,-0.1141 0.63043,-0.7332 0.95811,-1.3757 0.32768,-0.6425 0.98233,-1.6474 1.45478,-2.2332 0.47244,-0.5858 0.85899,-1.1703 0.85899,-1.2988 0,-0.1285 0.3371,-0.5519 0.74912,-0.9407 0.41201,-0.3889 0.82369,-1.0042 0.91481,-1.3672 0.0911,-0.3631 0.42569,-0.9578 0.74351,-1.3215 1.30392,-1.4924 1.52086,-3.2766 0.59131,-4.8631 -0.88628,-1.5127 -1.44123,-3.8445 -1.44123,-6.056 0,-1.0324 -0.10222,-1.9402 -0.22714,-2.0174 -0.12493,-0.077 -0.22724,-0.4053 -0.22737,-0.7292 -1.3e-4,-0.3238 -0.30678,-1.2239 -0.68141,-2.0002 -0.68425,-1.4177 -0.91144,-3.1314 -0.41519,-3.1314 0.14633,0 0.36724,-0.2662 0.49096,-0.5916 0.13314,-0.3502 0.46523,-0.6097 0.81386,-0.6359 0.32394,-0.024 0.65787,-0.1494 0.7421,-0.2777 0.0842,-0.1283 0.32838,-0.2339 0.54254,-0.2347 1.00463,0 3.8702,-0.371 4.80235,-0.6159 0.95253,-0.2502 2.89584,-0.5238 6.61946,-0.9318 0.78525,-0.086 1.50643,-0.2794 1.60263,-0.4295 0.11767,-0.1837 0.31242,-0.1589 0.59508,0.076 0.31823,0.2642 0.49306,0.2759 0.72066,0.048 0.16528,-0.1652 0.48156,-0.2987 0.70286,-0.2965 0.35543,0 0.35696,0.037 0.013,0.2841 -0.30821,0.2217 -0.28113,0.2369 0.12979,0.073 0.28555,-0.114 1.36608,-0.251 2.40118,-0.3046 1.0351,-0.054 1.882,-0.205 1.882,-0.3365 0,-0.1314 0.12372,-0.239 0.2749,-0.239 0.15121,0 0.20272,0.1168 0.11448,0.2596 -0.0882,0.1427 -0.0367,0.2595 0.11448,0.2595 0.15118,0 0.2749,-0.1401 0.2749,-0.3115 0,-0.2422 0.0692,-0.2422 0.31151,0 0.34218,0.3422 1.24557,0.4269 1.24676,0.1169 0,-0.1071 0.40929,-0.2035 0.90856,-0.2142 0.49929,-0.011 0.9078,0.091 0.9078,0.2265 0,0.1495 0.12722,0.1456 0.32448,-0.01 0.39286,-0.3099 -0.60626,-0.2796 9.53981,-0.2895 9.24312,-0.01 10.38746,0.019 10.77284,0.2637 0.14277,0.091 1.48613,0.184 2.98525,0.2074 3.31383,0.052 3.62385,0.077 3.49432,0.2867 -0.056,0.091 1.38359,0.1862 3.19901,0.2125 1.84761,0.027 3.33883,0.1583 3.38727,0.2989 0.0476,0.1381 0.84376,0.2511 1.76929,0.2511 0.9255,0 1.90916,0.1212 2.1859,0.2693 0.27672,0.1481 1.29119,0.3128 2.2543,0.3659 2.28112,0.126 4.28056,0.4189 4.60699,0.6749 0.14298,0.1121 1.15337,0.2429 2.24532,0.2905 1.09198,0.048 1.93182,0.1743 1.86632,0.2814 -0.0655,0.1071 0.35509,0.1947 0.93462,0.1947 0.5795,0 1.05366,0.1083 1.05366,0.2407 0,0.1323 0.34826,0.1966 0.77393,0.1427 0.42565,-0.054 1.38936,0.053 2.14159,0.2377 0.75221,0.1846 1.7181,0.3568 2.14642,0.3827 1.01366,0.061 1.49787,0.1465 1.81711,0.32 0.14277,0.078 0.60348,0.1625 1.02381,0.1886 0.42032,0.026 0.82917,0.1347 0.90855,0.241 0.0794,0.1064 0.49477,0.2308 0.92309,0.2765 0.42832,0.046 0.8177,0.1917 0.86528,0.3245 0.0476,0.1328 0.30636,0.2414 0.57503,0.2414 0.2687,0 0.88766,0.3505 1.37548,0.7788 0.48784,0.4283 1.01755,0.7788 1.17717,0.7788 0.15962,0 0.29022,0.1304 0.29022,0.2898 0,0.1692 0.27012,0.2382 0.64896,0.1658 0.35694,-0.068 0.64897,-0.023 0.64897,0.099 0,0.123 0.18952,0.2236 0.42115,0.2236 0.36353,0 0.37243,-0.062 0.0649,-0.4498 -0.33378,-0.4214 -0.31122,-0.421 0.35761,0.01 0.39262,0.2507 0.71386,0.3761 0.71386,0.2787 0,-0.097 0.47403,0.3065 1.0534,0.8976 0.57937,0.591 1.19265,1.0477 1.36283,1.0147 0.17019,-0.033 0.31119,0.1287 0.31335,0.3592 0.003,0.2305 0.12813,0.581 0.27994,0.7788 0.3426,0.4464 0.28022,3.1403 -0.12852,5.5514 -1.05567,6.2269 -1.44839,10.4283 -0.98913,10.5814 0.14267,0.048 0.29307,0.4021 0.33419,0.7879 0.0411,0.3857 0.31638,1.0407 0.61169,1.4554 0.29528,0.4146 0.53688,0.9403 0.53688,1.1681 0,0.2279 0.11681,0.4143 0.25958,0.4143 0.14277,0 0.25959,0.1752 0.25959,0.3893 0,0.2142 0.12193,0.3894 0.27095,0.3894 0.14903,0 0.23846,0.146 0.19872,0.3245 -0.0745,0.3344 0.26691,1.3235 1.12035,3.2458 0.2696,0.6073 0.52792,1.3082 0.574,1.5575 0.0461,0.2493 0.27037,0.8622 0.49844,1.3619 0.46118,1.0104 0.78553,1.8528 0.81954,2.1286 0.0125,0.1 0.15931,0.3186 0.32664,0.4859 0.1673,0.1673 0.2363,0.4944 0.15331,0.7268 -0.083,0.2325 -0.051,0.3317 0.0711,0.2205 0.21566,-0.1965 0.58495,0.9175 1.18574,3.5768 0.16128,0.7139 0.40947,1.4425 0.55154,1.6191 0.14207,0.1767 0.19339,0.4904 0.11404,0.6971 -0.0793,0.2068 -0.0195,0.4175 0.13285,0.4683 0.32319,0.1077 0.46189,5.7376 0.18081,7.3394 -0.1002,0.5711 -0.0993,1.1551 0.003,1.2979 0.37025,0.5215 -0.10674,18.4307 -0.49085,18.4307 -0.0317,0 -0.0914,1.4601 -0.13262,3.2448 -0.0746,3.2293 -0.0997,3.4653 -0.49337,4.6401 -0.14169,0.4227 -0.0959,0.6866 0.14565,0.8396 0.25172,0.1596 0.26107,0.2244 0.0328,0.2272 -0.22662,0 -0.31436,0.5887 -0.3019,2.0158 0.0249,2.8606 -0.12727,5.3636 -0.33596,5.5216 -0.29452,0.2229 -0.48568,6.1846 -0.20388,6.3588 0.13896,0.086 0.25269,0.3313 0.25269,0.5455 0,0.2142 -0.0924,0.3322 -0.20539,0.2624 -0.11294,-0.07 -0.22285,0.1862 -0.24424,0.5688 -0.0213,0.3826 -0.0966,1.6302 -0.1671,2.7724 -0.0705,1.1421 -0.19264,4.1587 -0.27137,6.7033 -0.0787,2.5447 -0.21611,4.7448 -0.30533,4.8891 -0.0892,0.1444 -0.21008,2.0251 -0.26864,4.1794 -0.0586,2.1542 -0.22649,4.0614 -0.37316,4.2382 -0.18322,0.2207 -0.18015,0.3748 0.01,0.4921 0.15204,0.094 0.1869,0.3088 0.0775,0.4774 -0.21567,0.3323 -0.34242,11.5872 -0.13457,11.9477 0.2167,0.3757 0.33769,4.8425 0.13122,4.844 -0.2978,0 -0.34606,1.9871 -0.0662,2.7232 0.13592,0.3575 0.1468,0.65 0.0242,0.65 -0.12263,0 -0.18561,0.3797 -0.13995,0.8437 0.0457,0.464 0.0956,0.8436 0.111,0.8436 0.0153,0 0.0521,0.6717 0.0817,1.4927 0.0296,0.8209 -0.0476,1.4926 -0.17145,1.4926 -0.12385,0 -0.15804,0.2567 -0.076,0.5706 0.082,0.3138 0.0231,0.7226 -0.1313,0.9085 -0.16199,0.1952 -0.17497,0.338 -0.0307,0.338 0.35743,0 0.20193,4.9518 -0.16259,5.1771 -0.15969,0.099 -0.28705,0.5804 -0.283,1.0705 0.004,0.4901 -0.01,1.3583 -0.0312,1.9294 -0.0324,0.8739 0.11886,2.2331 0.3034,2.7256 0.0267,0.071 0.0286,0.2359 0.004,0.3656 -0.0244,0.1297 0.10455,0.3279 0.28665,0.4404 0.29336,0.1813 0.4563,1.2186 0.47489,3.0229 0.003,0.3213 0.15071,0.5841 0.3276,0.5841 0.22251,-1e-4 0.31456,0.4797 0.29886,1.5575 -0.0125,0.8566 0.0699,1.5575 0.18316,1.5575 0.11323,0 0.0488,0.4452 -0.14313,0.9893 -0.20962,0.5941 -0.31166,1.7018 -0.25544,2.7729 0.0551,1.0507 -0.0231,1.9241 -0.1904,2.1257 -0.19049,0.2295 -0.1988,0.4491 -0.0252,0.6667 0.1423,0.1785 0.22584,1.1714 0.18563,2.2065 -0.0453,1.1652 0.0287,1.882 0.19422,1.882 0.15853,0 0.13581,0.1584 -0.0559,0.3894 -0.17774,0.2141 -0.23615,0.3894 -0.1298,0.3894 0.10636,0 0.0767,0.146 -0.0658,0.3244 -0.15337,0.192 -0.18535,0.881 -0.0783,1.6873 0.10549,0.7947 0.0805,1.3629 -0.0599,1.3629 -0.13247,0 -0.1556,0.2044 -0.0514,0.4543 0.10415,0.2498 0.21008,2.4985 0.23537,4.997 0.0364,3.5991 0.13221,4.7048 0.4611,5.3228 0.22831,0.429 0.44955,1.1883 0.49166,1.6873 0.0421,0.499 0.13358,1.0182 0.20333,1.1538 0.13026,0.2531 0.24064,0.9816 0.35595,2.3494 0.0361,0.4283 0.16014,0.9247 0.27565,1.1032 0.11549,0.1785 0.11549,0.3245 0,0.3245 -0.23767,0 -0.2464,1.4779 -0.0101,1.7141 0.0845,0.085 0.0903,0.319 0.0127,0.521 -0.0775,0.2021 -0.0119,0.5226 0.14542,0.7124 0.15749,0.1898 0.22459,0.4069 0.14908,0.4824 -0.0755,0.076 -0.2018,0.7072 -0.28066,1.4038 -0.22185,1.9595 -0.23278,2.0106 -0.55456,2.5953 -0.16645,0.3024 -0.24375,0.6088 -0.17177,0.6808 0.072,0.072 -0.57384,0.8466 -1.43515,1.7214 -1.10151,1.1188 -1.76156,1.5906 -2.22508,1.5906 -0.36244,0 -1.05455,0.1653 -1.53803,0.3673 -0.48348,0.202 -0.94193,0.3044 -1.01882,0.2275 -0.0769,-0.077 -0.34922,-0.048 -0.60523,0.064 -0.25603,0.112 -0.7602,0.2282 -1.1204,0.2583 -0.3602,0.03 -1.20069,0.3034 -1.86775,0.6073 -0.66706,0.3038 -1.34297,0.5525 -1.50199,0.5525 -0.15905,0 -0.21642,0.1177 -0.12749,0.2616 0.0889,0.1438 -0.021,0.4442 -0.24427,0.6675 -0.22324,0.2232 -0.40591,0.3308 -0.40591,0.239 0,-0.092 -0.17522,0.01 -0.38938,0.2225 -0.21416,0.2142 -0.38938,0.573 -0.38938,0.7973 0,0.2244 -0.0917,0.4079 -0.2037,0.4079 -0.11204,0 -0.55009,0.288 -0.97345,0.64 -1.78889,1.4871 -3.49842,2.7347 -3.74737,2.7347 -0.14697,0 -0.26722,0.1228 -0.26722,0.2728 0,0.1501 -0.42304,0.4496 -0.94014,0.6657 -0.51707,0.216 -1.39084,0.6773 -1.94173,1.0251 -0.55087,0.3477 -1.17915,0.6322 -1.39614,0.6322 -0.21701,0 -0.39454,0.1169 -0.39454,0.2596 0,0.1428 -0.17522,0.2596 -0.38938,0.2596 -0.21416,0 -0.38938,0.1168 -0.38938,0.2596 0,0.1428 -0.21554,0.2596 -0.47894,0.2596 -0.26343,0 -0.69411,0.2377 -0.95707,0.5283 -0.26299,0.2906 -0.63152,0.4695 -0.819,0.3976 -0.18747,-0.072 -0.34086,-0.01 -0.34086,0.1484 0,0.1535 -0.16099,0.2174 -0.35774,0.1419 -0.19676,-0.075 -0.4888,-0.01 -0.64896,0.1539 -0.16019,0.1602 -0.29302,0.1803 -0.2952,0.045 -0.003,-0.1356 -0.0934,-0.1059 -0.20261,0.066 -0.10926,0.1719 -0.63313,0.3418 -1.16417,0.3776 -0.53104,0.036 -0.96553,0.1394 -0.96553,0.2304 0,0.091 -0.59959,0.1866 -1.33241,0.2125 -0.73284,0.026 -1.40548,0.092 -1.4948,0.1475 -0.23718,0.1466 -6.40221,0.4354 -6.53512,0.3062 z m -1.79989,-6.075 c 0.92802,0 1.77492,-0.021 1.882,-0.046 0.49846,-0.117 2.55976,-0.066 2.69233,0.066 0.19464,0.1947 0.90499,-0.078 0.77167,-0.2967 -0.0563,-0.092 0.48065,-0.1815 1.19319,-0.1986 1.27377,-0.031 3.00505,-0.4332 3.91973,-0.9115 0.25564,-0.1337 0.56883,-0.1788 0.69593,-0.1003 0.12709,0.079 0.30447,0.024 0.39413,-0.121 0.0897,-0.1451 0.39467,-0.2638 0.67775,-0.2638 0.28311,0 0.7711,-0.2388 1.08445,-0.5308 0.48535,-0.4522 0.51258,-0.5674 0.18384,-0.7783 -0.21224,-0.1361 -0.72819,-0.1754 -1.14657,-0.087 -0.41835,0.088 -1.79091,0.1602 -3.05014,0.1602 -1.2592,0 -2.28948,0.1029 -2.28948,0.2287 0,0.1257 -0.12371,0.2286 -0.2749,0.2286 -0.15121,0 -0.2132,-0.1 -0.13776,-0.2219 0.0754,-0.122 -0.20943,-0.2096 -0.63305,-0.1947 -0.42362,0.015 -0.77048,0.096 -0.77079,0.1797 -2.6e-4,0.084 -1.13715,0.1643 -2.52625,0.1787 -1.5279,0.016 -2.56191,0.1351 -2.61749,0.3018 -0.0505,0.1516 -0.20582,0.2756 -0.34514,0.2756 -0.1393,0 -0.16881,-0.1366 -0.0656,-0.3037 0.12307,-0.1991 0.0504,-0.251 -0.21107,-0.1506 -0.21932,0.084 -0.93936,0.234 -1.60011,0.3331 -0.8779,0.1317 -1.20132,0.094 -1.20132,-0.1407 0,-0.2357 -0.0906,-0.2456 -0.34133,-0.037 -0.35034,0.2907 -1.95614,0.2549 -2.45732,-0.055 -0.15428,-0.095 -0.35242,-0.057 -0.44029,0.085 -0.10259,0.166 -0.34411,0.1443 -0.67482,-0.061 -0.41466,-0.2569 -0.55777,-0.2505 -0.73427,0.033 -0.15276,0.2454 -0.27306,0.265 -0.39677,0.065 -0.10187,-0.1648 -0.93649,-0.2873 -1.95773,-0.2873 -0.97908,0 -1.81908,-0.1057 -1.86669,-0.2349 -0.0476,-0.1292 -1.25466,-0.3028 -2.68238,-0.3857 -1.42773,-0.083 -3.00472,-0.2089 -3.50442,-0.2798 -1.36016,-0.193 -3.34433,-0.4248 -4.80235,-0.5609 -0.71387,-0.067 -1.53156,-0.2244 -1.81711,-0.3506 -0.64094,-0.2832 -1.91185,-0.5231 -3.69957,-0.6984 -0.74979,-0.073 -1.29778,-0.2396 -1.2177,-0.3692 0.13465,-0.2178 -0.96076,-0.369 -2.02667,-0.2797 -0.24985,0.021 -0.45451,-0.048 -0.4548,-0.1536 -2.5e-4,-0.1053 -0.41798,-0.2214 -0.92823,-0.2579 -0.51021,-0.036 -1.15978,-0.1905 -1.44343,-0.3423 -0.28367,-0.1518 -0.85889,-0.2857 -1.27828,-0.2977 -0.41939,-0.012 -0.76251,-0.1029 -0.76251,-0.2022 0,-0.099 -0.32124,-0.1913 -0.71386,-0.2044 -0.39263,-0.013 -1.46423,-0.2004 -2.38132,-0.4163 -0.91709,-0.216 -1.76399,-0.333 -1.882,-0.26 -0.11801,0.073 -0.21455,0.01 -0.21455,-0.1423 0,-0.1512 -0.5023,-0.275 -1.11622,-0.275 -0.61392,0 -1.2272,-0.1067 -1.36283,-0.2372 -0.62109,-0.5975 -2.71268,-0.301 -2.71268,0.3845 0,0.2046 0.11681,0.3719 0.25959,0.3719 0.14277,0 0.25958,0.173 0.25958,0.3845 0,0.2114 0.29204,0.4577 0.64897,0.5473 0.35693,0.09 0.64896,0.2483 0.64896,0.3527 0,0.1045 0.49646,0.3388 1.10325,0.5207 1.0595,0.3176 1.58332,0.5068 2.85545,1.0316 0.32124,0.1326 1.22655,0.3831 2.0118,0.5569 0.78525,0.1738 1.49072,0.412 1.56772,0.5295 0.077,0.1175 0.54425,0.238 1.03834,0.2679 0.4941,0.03 1.02054,0.1449 1.16991,0.2557 0.14934,0.1108 0.49978,0.2015 0.77876,0.2015 1.60676,2e-4 2.47233,0.1034 2.59994,0.3098 0.0794,0.1285 0.6398,0.2336 1.24529,0.2336 0.60551,0 1.25567,0.1461 1.44486,0.3245 0.27516,0.2596 0.36775,0.2596 0.46292,0 0.0654,-0.1784 0.23295,-0.3245 0.37225,-0.3245 0.13932,0 0.19583,0.093 0.12558,0.2066 -0.0702,0.1137 0.98768,0.2319 2.35087,0.2628 1.36319,0.031 2.59862,0.1304 2.74541,0.2211 0.14678,0.091 0.9218,0.2026 1.72231,0.2487 0.80049,0.046 2.15633,0.1481 3.01297,0.2268 0.85664,0.079 2.55044,0.198 3.764,0.2651 1.21357,0.067 2.73215,0.2331 3.37463,0.3689 1.10363,0.2332 1.84003,0.3084 6.87904,0.7029 1.14219,0.089 2.25057,0.2548 2.46307,0.3674 0.21252,0.1127 0.44615,0.1093 0.51917,-0.01 0.073,-0.1168 0.89209,-0.2125 1.82012,-0.2125 z m 1.48125,-8.8095 c 0.17221,0.1284 0.45165,0.1478 0.62101,0.043 0.16935,-0.1047 0.78774,-0.2235 1.3742,-0.2639 1.68456,-0.1163 2.86814,-0.3086 6.18763,-1.0053 1.10345,-0.2316 2.53219,-0.4316 3.17496,-0.4445 0.64278,-0.013 1.11328,-0.1131 1.04558,-0.2227 -0.0677,-0.1096 0.13896,-0.1995 0.45924,-0.2 0.3203,0 0.9912,-0.084 1.49091,-0.1851 0.4997,-0.1013 1.37581,-0.202 1.9469,-0.2237 0.57109,-0.022 1.15516,-0.1117 1.29793,-0.2001 0.4523,-0.2798 3.34529,-1.0918 4.09031,-1.148 0.39361,-0.03 0.87161,-0.1834 1.06222,-0.3416 0.19059,-0.1582 0.42342,-0.2107 0.51736,-0.1168 0.094,0.094 0.17081,0.021 0.17081,-0.1623 0,-0.2053 0.19918,-0.2811 0.51917,-0.1974 0.28555,0.075 0.51917,0.03 0.51917,-0.1 0,-0.1294 0.2746,-0.2353 0.61024,-0.2353 0.8319,0 2.09982,-0.43 3.80274,-1.2897 0.78525,-0.3965 1.77816,-0.8025 2.20648,-0.9023 0.42832,-0.1 1.09167,-0.5216 1.47409,-0.9374 0.57078,-0.6204 0.69512,-1.0007 0.69421,-2.1229 0,-1.5102 -0.19243,-1.9592 -1.50181,-3.5256 -0.88285,-1.0562 -1.28573,-2.1247 -0.80108,-2.1247 0.1544,0 0.16483,-0.228 0.027,-0.5905 -0.36994,-0.973 -0.35938,-7.4399 0.013,-7.8884 0.2574,-0.3102 0.24715,-0.4332 -0.0518,-0.6225 -0.205,-0.1296 -0.25385,-0.2376 -0.10862,-0.2398 0.14628,0 0.22743,-0.4382 0.1819,-0.9774 -0.0452,-0.5354 -0.0671,-2.3752 -0.0487,-4.0885 0.0184,-1.7132 0.0257,-3.2318 0.0158,-3.3746 -0.15277,-2.252 -0.13712,-10.1615 0.0202,-10.2682 0.11708,-0.079 0.22203,-0.4298 0.23316,-0.7788 0.0182,-0.5653 0.0369,-4.2435 0.0305,-5.9559 -0.003,-0.357 0.0755,-0.7658 0.17073,-0.9086 0.0952,-0.1427 0.14218,-0.902 0.10433,-1.6873 -0.21307,-4.4208 -0.25642,-16.5131 -0.0605,-16.8792 0.31371,-0.5861 0.35745,-3.111 0.0674,-3.8877 -0.08,-0.2142 -0.11463,-0.9735 -0.077,-1.6873 0.0376,-0.7139 0.0526,-1.59 0.0333,-1.9469 -0.0195,-0.357 -0.0145,-0.9994 0.0109,-1.4278 0.0252,-0.4283 0.0564,-2.3266 0.0691,-4.2184 0.0127,-1.8919 0.0888,-3.4396 0.1691,-3.4395 0.0803,1e-4 0.15116,-0.6715 0.15739,-1.4925 0.006,-0.8209 0.0573,-3.7413 0.11354,-6.4897 0.0562,-2.7484 0.0325,-4.997 -0.0526,-4.997 -0.15243,0 -0.0777,-2.1155 0.1375,-3.8938 0.0605,-0.4997 0.14073,-1.9307 0.17829,-3.1799 0.0376,-1.2493 0.13802,-2.2714 0.22322,-2.2714 0.0852,0 0.18391,-1.1389 0.21937,-2.531 0.0669,-2.6271 0.11189,-3.0467 0.39642,-3.6991 0.0934,-0.2141 0.2064,-1.8552 0.25112,-3.6467 0.0447,-1.7916 0.16188,-3.3878 0.26037,-3.5472 0.0985,-0.1594 0.0323,-0.339 -0.14703,-0.3992 -0.26099,-0.088 -0.26003,-0.2346 0.005,-0.7361 0.21668,-0.4102 0.36264,-2.1053 0.42279,-4.9097 0.0505,-2.3557 0.11274,-4.2832 0.13828,-4.2832 0.0254,0 0.0936,-0.4498 0.15124,-0.9996 0.0576,-0.5498 0.20154,-1.1339 0.31981,-1.2979 0.11826,-0.1641 0.17909,-0.9992 0.13516,-1.8559 -0.0959,-1.8707 -0.0986,-1.5837 0.0387,-4.2182 0.0797,-1.5295 0.0244,-2.1428 -0.19347,-2.1456 -0.23303,0 -0.23321,-0.05 0,-0.1975 0.26699,-0.1699 0.45353,-3.8565 0.36576,-7.2292 -0.0294,-1.1278 -0.84511,-1.239 -4.34423,-0.5924 -1.54854,0.2861 -3.22435,0.5747 -3.72406,0.6413 -1.07305,0.143 -1.9469,0.314 -1.9469,0.3811 0,0.026 -0.56421,0.073 -1.2538,0.103 -0.68959,0.03 -1.34668,0.2055 -1.46018,0.3891 -0.14926,0.2415 -0.25668,0.2525 -0.38816,0.04 -0.21083,-0.3411 -1.86121,-0.3075 -2.58299,0.053 -0.27134,0.1354 -0.96553,0.2397 -1.54262,0.2317 -0.57708,-0.01 -1.17265,0.062 -1.32347,0.1551 -0.15085,0.093 -1.21899,0.1986 -2.37369,0.2343 -1.15472,0.036 -2.41057,0.1831 -2.79081,0.3276 -0.38025,0.1446 -0.69133,0.1606 -0.69133,0.036 0,-0.1251 -0.43806,-0.1781 -0.97345,-0.1179 -2.55522,0.2874 -7.19138,0.3282 -7.3542,0.065 -0.12242,-0.1981 -0.33349,-0.1934 -0.72489,0.016 -0.54467,0.2915 -9.11808,0.3098 -9.11891,0.02 -2.1e-4,-0.072 -0.7303,-0.1544 -1.62242,-0.1822 -5.38603,-0.1678 -8.53645,-0.33 -8.72997,-0.4496 -0.12172,-0.075 -0.85012,-0.1555 -1.61863,-0.1783 -0.76853,-0.023 -1.51412,-0.1264 -1.65689,-0.23 -0.14277,-0.1037 -1.01888,-0.2618 -1.9469,-0.3513 -0.92802,-0.09 -2.03775,-0.2129 -2.46607,-0.2741 -0.42832,-0.061 -1.9469,-0.2463 -3.37463,-0.4112 -3.06317,-0.3538 -2.98047,-0.3416 -5.97049,-0.8773 -1.28495,-0.2303 -2.74437,-0.5363 -3.24312,-0.6801 -0.49874,-0.1439 -1.28033,-0.2615 -1.73687,-0.2615 -0.45653,0 -0.90224,-0.1169 -0.99047,-0.2596 -0.0882,-0.1428 -0.65585,-0.2596 -1.26134,-0.2596 -0.60551,0 -1.24108,-0.1402 -1.41241,-0.3115 -0.17132,-0.1713 -0.3115,-0.2326 -0.3115,-0.1362 0,0.096 -0.29801,0.062 -0.66221,-0.077 -0.36422,-0.1385 -1.13094,-0.3107 -1.70379,-0.3827 -0.57288,-0.072 -1.26011,-0.2478 -1.52723,-0.3907 -0.26709,-0.143 -0.73382,-0.2599 -1.03718,-0.2599 -0.37214,0 -0.48815,-0.1056 -0.35662,-0.3245 0.13247,-0.2205 0.0542,-0.2103 -0.24424,0.032 -0.28622,0.2321 -0.43922,0.2547 -0.43922,0.065 0,-0.1603 -0.35203,-0.2914 -0.78229,-0.2914 -0.43024,0 -0.98511,-0.1071 -1.23304,-0.238 -0.5247,-0.2771 -2.92588,-0.9831 -4.15525,-1.2217 -0.467,-0.091 -0.91193,-0.2666 -0.98877,-0.3909 -0.0768,-0.1244 -0.41796,-0.2261 -0.75804,-0.2261 -0.34009,0 -0.69053,-0.1168 -0.77876,-0.2596 -0.0882,-0.1428 -0.44558,-0.2596 -0.79408,-0.2596 -0.34852,0 -0.63365,0.1168 -0.63365,0.2596 0,0.1428 -0.23363,0.2596 -0.51917,0.2596 -0.4128,0 -0.51917,0.1731 -0.51917,0.8446 0,14.4454 -0.22704,38.3499 -0.36639,38.5753 -0.10323,0.1671 -0.23248,2.6677 -0.28718,5.5569 -0.0547,2.8893 -0.16629,7.239 -0.24793,9.6662 -0.0817,2.4271 -0.20183,6.0483 -0.26701,8.0472 -0.11224,3.4406 -0.1673,4.1079 -0.49259,5.9704 -0.12917,0.7398 -0.50972,7.353 -0.47053,8.177 0.0359,0.7541 -0.47771,12.6093 -0.61291,14.1475 -0.0753,0.8566 -0.18679,2.5484 -0.24782,3.7595 -0.061,1.2111 -0.23724,2.8103 -0.39156,3.5537 -0.15435,0.7434 -0.22683,2.1918 -0.16108,3.2186 0.0657,1.0268 0.0221,2.1728 -0.0968,2.5466 -0.33406,1.0495 -0.48418,4.1978 -0.19155,4.0169 0.16149,-0.1 0.16152,0.018 1.3e-4,0.3306 -0.19759,0.3826 -0.49492,3.792 -0.6196,7.105 -0.008,0.2142 -0.11461,1.8496 -0.23677,3.6342 -0.12216,1.7847 -0.29131,5.1247 -0.37586,7.4222 -0.0845,2.2976 -0.21299,4.5754 -0.28541,5.0619 -0.0724,0.4866 -0.17507,1.7607 -0.2281,2.8315 -0.1828,3.6901 -0.36057,6.8843 -0.48948,8.7958 -0.0891,1.3206 -0.0303,2.0157 0.18888,2.2349 0.43888,0.4389 2.72669,1.4295 3.30137,1.4295 0.25896,0 0.54305,0.1168 0.63129,0.2596 0.0882,0.1428 0.49708,0.2596 0.90855,0.2596 0.41147,0 0.80877,0.098 0.88288,0.218 0.0741,0.12 0.74994,0.2399 1.50181,0.2665 0.75187,0.027 1.48079,0.1621 1.6198,0.3011 0.139,0.139 0.50193,0.2527 0.8065,0.2527 0.3046,0 0.63506,0.081 0.73438,0.1806 0.0993,0.099 0.32321,0.205 0.49752,0.2349 0.17434,0.03 0.66742,0.1225 1.09574,0.2059 0.42832,0.083 1.33625,0.2268 2.01761,0.3185 0.68139,0.092 1.30154,0.2683 1.37817,0.3923 0.0766,0.1239 0.33456,0.2253 0.57322,0.2253 0.23866,0 1.02025,0.221 1.73689,0.491 1.89885,0.7155 3.16595,1.0938 4.02972,1.2031 0.41908,0.053 0.96992,0.201 1.22408,0.3289 0.25416,0.1278 1.19218,0.2214 2.08451,0.208 0.8923,-0.014 1.62239,0.063 1.62242,0.1702 0,0.1071 0.46728,0.1947 1.03837,0.1947 0.57109,0 1.03834,0.092 1.03834,0.204 0,0.1122 0.20443,0.2227 0.45428,0.2457 2.84551,0.2614 4.80843,0.603 5.18036,0.9013 0.17221,0.1382 0.41423,0.1887 0.53779,0.1124 0.12356,-0.076 0.54516,0.027 0.93685,0.2306 0.39169,0.2032 0.99216,0.407 1.3344,0.4528 0.34221,0.046 0.70452,0.1656 0.80508,0.2662 0.10059,0.1006 0.46313,0.1829 0.80566,0.1829 0.34252,0 0.83241,0.1122 1.08865,0.2493 0.25626,0.1372 1.03707,0.294 1.73515,0.3486 0.69808,0.054 1.44447,0.1685 1.65863,0.2534 0.54132,0.2143 2.44456,0.4589 4.21398,0.5415 0.81855,0.038 1.55907,0.1403 1.64559,0.2268 0.0865,0.086 0.55471,0.093 1.04045,0.014 0.48577,-0.079 1.03028,-0.021 1.21007,0.1279 0.20182,0.1675 2.35429,0.2794 5.62591,0.2926 2.91448,0.012 5.32843,0.051 5.36438,0.087 0.0359,0.036 1.0389,-3e-4 2.22879,-0.081 1.18987,-0.081 2.30432,-0.041 2.47653,0.087 z m -16.82295,-31.853 c -0.13665,-0.1366 -2.11854,-0.3601 -3.42875,-0.3866 -0.58887,-0.012 -0.92389,-0.125 -0.82834,-0.2796 0.0883,-0.1429 -0.0954,-0.2595 -0.40885,-0.2595 -0.81341,0 -2.5764,-0.561 -2.5764,-0.8199 0,-0.1202 -0.17649,-0.2185 -0.39221,-0.2185 -0.49121,0 -2.8223,-1.0712 -2.93914,-1.3506 -0.0476,-0.1138 -0.25203,-0.2069 -0.45427,-0.2069 -0.20227,0 -0.36776,-0.1168 -0.36776,-0.2596 0,-0.1428 -0.12497,-0.2596 -0.27771,-0.2596 -0.26384,0 -2.26481,-1.2727 -3.09692,-1.9698 -0.21416,-0.1794 -1.26159,-1.153 -2.32761,-2.1635 -1.06601,-1.0104 -2.02973,-1.8372 -2.14159,-1.8372 -0.11185,0 -0.20336,-0.1323 -0.20336,-0.294 0,-0.1617 -0.21919,-0.4841 -0.48708,-0.7165 -0.43881,-0.3806 -2.57212,-3.7133 -3.72785,-5.8238 -0.82323,-1.5034 -1.49597,-3.1213 -1.49597,-3.5979 0,-0.2587 -0.11681,-0.4704 -0.25959,-0.4704 -0.14277,0 -0.25958,-0.2182 -0.25958,-0.4848 0,-0.2666 -0.35128,-1.5808 -0.78063,-2.9203 -0.42936,-1.3396 -0.91016,-2.9029 -1.06846,-3.474 -0.1583,-0.5711 -0.37754,-1.3303 -0.48719,-1.6873 -0.22076,-0.7185 -0.54534,-1.9372 -1.14083,-4.2832 -0.21743,-0.8566 -0.51461,-2.5285 -0.66037,-3.7154 -0.14575,-1.1868 -0.3326,-2.2672 -0.4152,-2.4009 -0.27384,-0.4431 -0.16554,-5.1593 0.13973,-6.0843 0.16502,-0.5 0.34071,-2.6904 0.39039,-4.8675 0.10848,-4.7519 0.3329,-7.6529 0.63581,-8.2189 0.12283,-0.2295 0.25818,-1.4675 0.30073,-2.751 0.0426,-1.2834 0.22805,-2.6256 0.41217,-2.9825 0.18413,-0.357 0.4068,-1.0287 0.49485,-1.4927 0.088,-0.464 0.2708,-0.8436 0.4061,-0.8436 0.13532,0 0.18199,-0.1036 0.10375,-0.2302 -0.0782,-0.1266 0.0257,-0.3696 0.23101,-0.5399 0.20528,-0.1704 0.51165,-0.7385 0.68084,-1.2625 0.16918,-0.524 0.6424,-1.4137 1.05162,-1.9773 0.40921,-0.5635 0.74402,-1.2092 0.74402,-1.4348 0,-0.2257 0.17265,-0.6568 0.3837,-0.9581 0.21102,-0.3013 0.46341,-1.2262 0.56086,-2.0553 0.0974,-0.8292 0.33292,-1.806 0.52328,-2.1708 0.19032,-0.3647 0.34678,-0.7949 0.34766,-0.9558 0,-0.161 0.17553,-0.4371 0.38813,-0.6135 0.21258,-0.1764 0.33069,-0.4111 0.26245,-0.5216 -0.0683,-0.1104 0.0499,-0.3451 0.26244,-0.5215 0.21257,-0.1764 0.38652,-0.5258 0.38652,-0.7764 0,-0.2506 0.17522,-0.601 0.38938,-0.7788 0.21416,-0.1777 0.39263,-0.4548 0.3966,-0.6158 0.004,-0.161 0.35441,-0.6334 0.77876,-1.0498 0.42434,-0.4165 0.77154,-0.8774 0.77154,-1.0244 0,-0.3097 1.33324,-2.3299 1.62242,-2.4584 0.10708,-0.048 0.19469,-0.2239 0.19469,-0.3919 0,-0.1679 0.23363,-0.4512 0.51917,-0.6295 0.28555,-0.1783 0.51917,-0.4815 0.51917,-0.6737 0,-0.1923 0.3283,-0.6294 0.72952,-0.9713 0.40124,-0.3419 1.07292,-1.0852 1.49262,-1.6516 0.41973,-0.5665 1.08837,-1.3258 1.4859,-1.6873 0.39753,-0.3616 1.54771,-1.4416 2.55594,-2.4001 1.00821,-0.9584 2.08472,-1.8188 2.39222,-1.9118 0.30754,-0.093 0.79276,-0.3783 1.0783,-0.6338 0.94739,-0.8479 3.75894,-2.365 5.06194,-2.7314 0.35693,-0.1004 0.80576,-0.3083 0.99741,-0.462 0.60234,-0.4831 3.72522,-1.4741 4.64546,-1.4741 0.48451,0 1.09083,-0.1123 1.34738,-0.2496 0.80586,-0.4313 9.75859,-0.4211 10.02588,0.011 0.081,0.131 0.46892,0.2382 0.86209,0.2382 0.39317,0 1.34998,0.3181 2.12625,0.707 0.77629,0.3888 1.52839,0.7122 1.67135,0.7188 0.14295,0.01 0.54861,0.2141 0.90141,0.4612 0.35283,0.2471 0.79073,0.4493 0.97311,0.4493 0.18239,0 0.33162,0.1293 0.33162,0.2874 0,0.158 0.17523,0.2201 0.38938,0.1379 0.23719,-0.091 0.38938,-5e-4 0.38938,0.2318 0,0.2097 0.12541,0.3812 0.2787,0.3812 0.28212,0 3.35552,3.027 3.35552,3.3049 0,0.083 0.29798,0.5412 0.66218,1.0187 0.3642,0.4775 0.58946,0.8682 0.50063,0.8682 -0.0889,0 0.043,0.2044 0.29303,0.4542 0.72105,0.7206 1.91878,2.72 1.91878,3.203 0,0.2424 0.17522,0.5079 0.38938,0.59 0.21416,0.082 0.38938,0.3283 0.38938,0.547 0,0.2186 0.11682,0.3975 0.25959,0.3975 0.14277,0 0.25958,0.2239 0.25958,0.4975 0,0.2737 0.12435,0.539 0.27633,0.5897 0.15199,0.051 0.34089,0.6153 0.41978,1.2547 0.0789,0.6394 0.28739,1.2793 0.46331,1.4221 0.1759,0.1428 0.33139,0.318 0.34551,0.3894 0.014,0.071 0.10635,0.6341 0.20489,1.2504 0.0986,0.6164 0.33825,1.2797 0.53262,1.4741 0.19438,0.1944 0.35343,0.5954 0.35343,0.8912 0,0.2957 0.11681,0.5377 0.25959,0.5377 0.14277,0 0.25958,0.2352 0.25958,0.5227 0,0.2874 0.11682,0.7547 0.25959,1.0383 0.14277,0.2836 0.37046,0.7382 0.50599,1.0102 0.1355,0.272 0.38683,1.4985 0.5585,2.7256 0.17166,1.2272 0.38229,2.2312 0.46803,2.2312 0.13872,0 0.24765,0.7828 0.29879,2.1472 0.009,0.2529 0.11816,0.3975 0.24157,0.3212 0.12338,-0.076 0.22711,0.5929 0.23051,1.487 0.007,1.9097 0.24835,4.5891 0.44101,4.9008 0.0743,0.1202 0.0125,0.4475 -0.13724,0.7274 -0.18021,0.3367 -0.18452,0.563 -0.0127,0.6692 0.26844,0.1659 0.18711,7.5419 -0.11879,10.7737 -0.0878,0.928 -0.19952,2.4466 -0.24819,3.3746 -0.0487,0.928 -0.17226,2.0962 -0.27467,2.5959 -0.10238,0.4997 -0.21629,1.3174 -0.25312,1.8171 -0.0368,0.4997 -0.14965,1.0996 -0.25074,1.3332 -0.10108,0.2335 -0.20561,0.8462 -0.23227,1.3616 -0.0267,0.5154 -0.14864,0.9376 -0.27099,0.9382 -0.12236,0 -0.15523,0.1764 -0.073,0.3906 0.0822,0.2141 0.0613,0.3894 -0.0464,0.3894 -0.1077,0 -0.21465,0.2044 -0.23768,0.4542 -0.10238,1.1117 -1.23319,5.9084 -1.63698,6.944 -0.50674,1.2995 -0.59783,1.6058 -0.69494,2.3363 -0.057,0.4283 -0.27207,0.9084 -0.47803,1.0669 -0.20595,0.1585 -0.37448,0.5966 -0.37448,0.9735 0,0.3769 -0.11681,0.6852 -0.25958,0.6852 -0.14277,0 -0.25959,0.2336 -0.25959,0.5192 0,0.2855 -0.11681,0.5192 -0.25959,0.5192 -0.14277,0 -0.25958,0.2319 -0.25958,0.5153 0,0.2835 -0.36174,1.2472 -0.80386,2.1416 -0.44211,0.8944 -0.95515,1.9767 -1.14006,2.405 -0.18493,0.4283 -0.54884,1.246 -0.80871,1.8171 -0.25987,0.5711 -0.47694,1.1302 -0.48237,1.2425 -0.005,0.1123 -0.18505,0.315 -0.39921,0.4503 -0.21481,0.1358 -0.2551,0.248 -0.0899,0.2501 0.41936,0.01 -1.13655,2.8029 -1.73806,3.1248 -0.28389,0.152 -0.427,0.4234 -0.34113,0.6472 0.0814,0.212 0.0166,0.3854 -0.14365,0.3854 -0.16038,0 -0.48416,0.4038 -0.71952,0.8974 -0.23537,0.4936 -0.52652,0.8366 -0.64697,0.7621 -0.12045,-0.074 -0.31901,0.135 -0.44122,0.4654 -0.12224,0.3304 -0.32568,0.5555 -0.4521,0.5001 -0.12642,-0.055 -0.35226,0.1387 -0.50188,0.4312 -0.14963,0.2926 -0.85082,0.9895 -1.5582,1.5486 -0.7074,0.5592 -1.63591,1.3872 -2.0634,1.8401 -0.42749,0.453 -0.89783,0.8235 -1.04525,0.8235 -0.14742,0 -0.43642,0.2336 -0.64222,0.5192 -0.20582,0.2855 -0.52364,0.5192 -0.70628,0.5192 -0.18265,0 -0.33206,0.1048 -0.33206,0.2329 0,0.2848 -4.84755,2.6867 -6.56074,3.2508 -1.24519,0.4101 -4.57742,1.1517 -6.02921,1.3419 -1.83165,0.24 -3.4293,0.3547 -3.53054,0.2535 z m 3.46561,-5.8788 c 0.24985,-0.01 0.45428,-0.1336 0.45428,-0.2829 0,-0.1601 0.26646,-0.2047 0.64896,-0.1088 0.37422,0.094 0.64897,0.051 0.64897,-0.1016 0,-0.1455 0.35517,-0.2646 0.78927,-0.2646 0.70821,0 2.32055,-0.8643 2.54208,-1.3628 0.0476,-0.1071 0.23937,-0.1947 0.42614,-0.1947 0.57672,0 0.71425,-1.2233 0.20445,-1.8187 -0.25164,-0.2939 -0.46585,-0.6182 -0.47606,-0.7207 -0.0297,-0.2991 -0.73356,-1.7315 -0.92059,-1.8735 -0.23654,-0.1797 -1.26736,-3.7037 -1.26736,-4.3328 0,-0.2821 -0.0809,-0.5937 -0.17973,-0.6926 -0.0989,-0.099 -0.21881,-0.4356 -0.26655,-0.7484 -0.11593,-0.7596 -0.78618,-1.7543 -1.18213,-1.7542 -0.17517,0 -1.22379,0.2794 -2.33028,0.6208 -1.10649,0.3414 -2.0118,0.581 -2.0118,0.5324 0,-0.049 -0.39548,0.077 -0.8788,0.2788 -0.48335,0.2019 -1.25176,0.4329 -1.70754,0.5132 -0.85173,0.15 -2.19296,0.89 -1.98682,1.0961 0.0636,0.064 -0.70501,0.8947 -1.70798,1.8469 -1.00299,0.9522 -1.97753,1.8772 -2.16565,2.0557 -0.18815,0.1785 -0.46723,0.3245 -0.6202,0.3245 -0.15298,0 -0.27813,0.1168 -0.27813,0.2596 0,0.1427 -0.12514,0.2595 -0.27812,0.2595 -0.36103,0 -1.01981,0.6611 -1.01981,1.0234 0,0.74 1.61102,2.586 2.27138,2.6027 0.17847,0 0.32449,0.125 0.32449,0.2677 0,0.1428 0.23363,0.2596 0.51917,0.2596 0.28555,0 0.52099,0.088 0.5232,0.1947 0.003,0.1071 0.6155,0.4727 1.36283,0.8124 0.74735,0.3397 1.56164,0.7193 1.80955,0.8436 0.24793,0.1243 0.8028,0.226 1.23304,0.226 0.43026,0 0.78229,0.098 0.78229,0.2181 0,0.12 0.96371,0.1762 2.14158,0.125 1.17788,-0.051 2.34602,-0.098 2.59587,-0.1044 z m 11.53387,-7.0528 c 1.05483,-0.8801 2.45608,-2.2714 2.28753,-2.2714 -0.1552,0 0.16206,-0.429 1.03993,-1.406 0.60328,-0.6715 1.68682,-2.6586 1.68841,-3.0964 0,-0.165 0.27516,-0.8401 0.61013,-1.5003 0.50887,-1.0029 0.80843,-1.739 1.0432,-2.5637 0.19684,-0.6914 1.02464,-2.0767 1.24098,-2.0767 0.15134,0 0.21122,-0.1666 0.13304,-0.3704 -0.0782,-0.2037 0.0261,-0.51 0.23181,-0.6807 0.91327,-0.7579 0.11284,-2.1285 -1.27255,-2.179 -0.45077,-0.016 -0.96558,-0.1209 -1.14405,-0.2323 -0.17846,-0.1113 -0.32448,-0.094 -0.32448,0.038 0,0.1324 -0.62784,0.2552 -1.39518,0.2729 -1.17141,0.027 -1.64998,0.2023 -2.98384,1.093 -0.87377,0.5835 -1.6769,1.2098 -1.78476,1.3918 -0.10786,0.1821 -0.4577,0.4683 -0.77749,0.6361 -0.31976,0.1679 -0.73735,0.623 -0.928,1.0114 -0.43763,0.8916 -0.53973,2.4294 -0.1762,2.6541 0.15204,0.094 0.28152,0.8623 0.28778,1.7073 0.006,0.8451 0.126,2.0037 0.26612,2.5748 0.14013,0.5711 0.26714,1.1844 0.28223,1.3629 0.0151,0.1784 0.10479,0.3244 0.19933,0.3244 0.0945,0 0.19633,0.6717 0.22618,1.4927 0.0535,1.4714 0.22366,2.4011 0.43948,2.4011 0.0607,0 0.42536,-0.2628 0.8104,-0.584 z m -28.12732,-3.764 c 0.44774,-0.2499 0.96797,-0.5977 1.1561,-0.7731 0.18814,-0.1753 0.48231,-0.4089 0.65374,-0.5191 0.1714,-0.1103 0.77406,-0.7845 1.33923,-1.4984 1.2239,-1.5459 1.61546,-2.0091 2.84341,-3.3638 0.51224,-0.5651 0.93137,-1.1687 0.93137,-1.3412 0,-0.1725 0.0924,-0.3526 0.20544,-0.4002 0.33987,-0.1431 1.61167,-1.9294 1.61167,-2.2636 0,-0.8143 -0.5779,-0.9847 -2.1262,-0.627 -0.82826,0.1914 -2.64534,0.4605 -4.03795,0.598 -1.3926,0.1376 -3.11607,0.3128 -3.82994,0.3893 -3.56171,0.382 -5.53649,1.1918 -4.86857,1.9966 0.1685,0.203 0.47473,1.0049 0.68056,1.782 0.53028,2.0021 0.85266,2.7565 1.59246,3.7264 0.35675,0.4678 0.64865,0.9354 0.64865,1.0392 0,0.2951 0.69575,0.9179 1.48608,1.3302 0.88488,0.4615 0.7405,0.4679 1.71395,-0.075 z m 18.12454,-9.778 c 0.92203,-0.3852 1.59441,-1.0212 1.8526,-1.7521 0.19258,-0.5454 -0.46145,-0.8241 -1.11405,-0.4749 -0.26581,0.1423 -0.71472,0.2587 -0.99754,0.2587 -0.51621,0 -1.85087,1.2015 -1.87429,1.6873 -0.007,0.1428 0.2572,0.3356 0.58687,0.4284 0.32965,0.093 0.61432,0.1804 0.63259,0.1947 0.0182,0.014 0.42946,-0.1397 0.91382,-0.3421 z m -24.09028,-5.0185 c 0.45036,-0.2498 0.87839,-0.5326 0.9512,-0.6283 0.0728,-0.096 0.45246,-0.2545 0.84366,-0.3527 0.3912,-0.098 0.71127,-0.2826 0.71127,-0.4099 0,-0.1273 0.16613,-0.2315 0.36918,-0.2315 0.33053,0 1.96421,-0.9795 5.36703,-3.2178 0.62856,-0.4135 1.49327,-1.0846 1.92159,-1.4915 3.669,-3.4851 5.22052,-4.8951 5.38642,-4.8952 0.10708,-1e-4 0.19469,-0.409 0.19469,-0.9087 0,-0.9143 -0.0132,-0.9246 -1.29793,-1.0119 -0.21416,-0.014 -0.50619,-0.099 -0.64897,-0.1883 -0.30371,-0.1893 -5.43818,-0.098 -7.13863,0.1269 -1.20889,0.16 -6.3234,0.4679 -8.82594,0.5314 -2.00759,0.051 -2.08614,0.1386 -1.95248,2.1765 0.17371,2.6486 0.63967,6.8274 0.78805,7.0675 0.0726,0.1175 0.19243,0.7775 0.26628,1.4666 0.19327,1.8034 0.57247,2.4212 1.48603,2.4212 0.41786,0 1.12819,-0.2044 1.57855,-0.4543 z m 22.75388,-3.0418 c 2.92497,-0.1331 12.8567,-0.4573 13.36871,-0.4363 0.14277,0.01 1.54454,0.086 3.11504,0.1782 3.16176,0.1856 4.18661,0.1779 4.87698,-0.037 0.66073,-0.2053 1.56533,-1.756 2.25568,-3.867 0.32684,-0.9994 0.70119,-1.9527 0.8319,-2.1185 0.1489,-0.1888 0.12564,-0.3705 -0.0623,-0.4867 -0.22475,-0.1389 -0.22171,-0.2337 0.0122,-0.3782 0.7921,-0.4895 0.16461,-2.8573 -0.75724,-2.8573 -0.15297,0 -0.2783,-0.088 -0.27851,-0.1947 -2.1e-4,-0.1071 -0.49667,-0.2284 -1.10324,-0.2696 -0.60658,-0.041 -1.14621,-0.2004 -1.19919,-0.3539 -0.0603,-0.1746 -0.18163,-0.1465 -0.32448,0.075 -0.17494,0.2713 -0.27571,0.2804 -0.43211,0.039 -0.19505,-0.301 -4.78784,-0.2707 -7.32405,0.048 -0.49971,0.063 -1.69124,0.1398 -2.64781,0.1711 -0.98345,0.032 -1.67488,0.1611 -1.59111,0.2967 0.0815,0.1318 -0.0842,0.1154 -0.36817,-0.037 -0.28402,-0.152 -0.57969,-0.2131 -0.65709,-0.1357 -0.0774,0.077 -1.12121,0.2301 -2.31962,0.3393 -2.238,0.204 -2.45366,0.3031 -4.14124,1.9029 -0.41417,0.3926 -0.80271,0.7139 -0.86346,0.7139 -0.11619,0 -1.71228,1.6865 -3.40863,3.6016 -0.55318,0.6245 -1.38544,1.5182 -1.84945,1.9858 -1.35073,1.3614 -1.03136,2.1828 0.79322,2.0402 0.59884,-0.047 2.43214,-0.1463 4.07403,-0.2211 z m -0.1767,-15.9502 c 0.66828,-0.3235 1.21505,-0.7359 1.21505,-0.9165 0,-0.1806 0.29203,-0.6434 0.64896,-1.0286 0.35693,-0.3851 0.64897,-0.765 0.64897,-0.8442 0,-0.079 0.35044,-0.5864 0.77876,-1.1272 0.42832,-0.5408 0.77876,-1.1124 0.77876,-1.2704 0,-0.1579 0.10895,-0.2871 0.24209,-0.2871 0.13314,0 0.32412,-0.2628 0.42437,-0.5841 0.10025,-0.3212 0.26296,-0.6425 0.36161,-0.7138 0.0986,-0.071 0.50624,-1.1227 0.9058,-2.3363 0.39958,-1.2136 0.84005,-2.5207 0.97885,-2.9047 0.21164,-0.5856 0.14887,-0.8098 -0.38923,-1.3901 -0.54051,-0.5829 -0.9227,-0.7134 -2.42617,-0.8282 -0.98155,-0.075 -1.90145,-0.2174 -2.04422,-0.3165 -0.44478,-0.3088 -4.02359,-0.3347 -4.02359,-0.029 0,0.1523 -0.20443,0.2777 -0.45428,0.2788 -0.24985,0 -2.03126,1.6493 -3.95869,3.6628 -1.92743,2.0134 -4.30029,4.4656 -5.27301,5.4493 -0.9727,0.9837 -1.70811,1.7886 -1.6342,1.7886 0.0739,0 -0.12318,0.2752 -0.43793,0.6116 -0.98788,1.0557 -1.48081,1.8144 -1.48081,2.2791 0,0.6192 0.482,0.7112 3.76401,0.7183 3.2263,0.01 6.36039,0.1988 6.56318,0.4016 0.35872,0.3587 3.67764,-0.064 4.81172,-0.6133 z m -23.76956,-1.7689 c 1.89926,-1.2396 2.60977,-1.8542 4.7084,-4.0727 0.48408,-0.5116 0.98054,-0.9303 1.10325,-0.9303 0.12273,0 0.22314,-0.1505 0.22314,-0.3344 0,-0.1839 0.56821,-0.9395 1.2627,-1.6793 0.69448,-0.7397 1.22502,-1.3826 1.17899,-1.4286 -0.0461,-0.046 0.26834,-0.4877 0.69858,-0.9815 2.10701,-2.4181 2.72374,-3.2674 2.64158,-3.6379 -0.11918,-0.5372 -1.48089,-1.3238 -1.96816,-1.1368 -0.2126,0.082 -0.46718,0.018 -0.56572,-0.1415 -0.13088,-0.2118 -0.27784,-0.208 -0.54542,0.014 -0.28157,0.2336 -0.36627,0.23 -0.36627,-0.016 0,-0.2198 -0.22281,-0.2625 -0.71387,-0.1369 -0.39262,0.1005 -1.69762,0.2366 -2.9,0.3025 -1.20235,0.066 -2.39201,0.2299 -2.64368,0.3646 -0.25167,0.1347 -0.72809,0.2475 -1.05872,0.2507 -1.35032,0.013 -2.06771,1.2413 -2.41057,4.1276 -0.092,0.7742 -0.28337,1.6247 -0.42526,1.8898 -0.38042,0.7109 -0.50336,2.0856 -0.21735,2.4303 0.36576,0.4407 -0.39948,2.0878 -1.60767,3.4604 -0.56359,0.6402 -0.95889,1.3231 -0.882,1.5235 0.0767,0.1997 0.13937,0.5326 0.13937,0.7397 0,0.4428 0.92203,0.8439 1.75281,0.7624 0.32158,-0.032 1.48971,-0.6481 2.59587,-1.3701 z m 38.35332,1.0757 c 1.85604,-0.096 5.06292,-0.158 7.12643,-0.1371 l 3.7518,0.038 0.59627,-0.6939 c 0.32794,-0.3817 0.61086,-0.7926 0.62872,-0.9131 0.2693,-1.8193 0.29053,-6.9013 0.0308,-7.3655 -0.14402,-0.2573 -0.18161,-0.7697 -0.0835,-1.1387 0.098,-0.3689 0.0325,-1.0796 -0.14563,-1.5793 -0.17816,-0.4997 -0.33051,-0.7447 -0.33858,-0.5444 -0.0101,0.2528 -0.15817,0.1987 -0.48371,-0.1766 -0.39001,-0.4497 -0.75096,-0.5366 -2.14159,-0.5158 -0.91987,0.014 -1.84097,0.1516 -2.04684,0.3064 -0.28272,0.2125 -0.32662,0.202 -0.17935,-0.043 0.10721,-0.1785 0.0781,-0.3245 -0.0647,-0.3245 -0.14277,0 -0.33177,0.1168 -0.42001,0.2596 -0.0882,0.1428 -0.27723,0.2596 -0.42001,0.2596 -0.14277,0 -0.20341,-0.091 -0.13477,-0.202 0.14609,-0.2364 -2.95592,-0.2629 -3.33901,-0.029 -0.14278,0.087 -0.58083,0.2356 -0.97345,0.3294 -0.39263,0.094 -0.71387,0.3001 -0.71387,0.4583 0,0.2737 -1.04361,2.5641 -2.58491,5.673 -0.38933,0.7852 -1.2341,2.2454 -1.87733,3.2448 -1.47372,2.2898 -1.6598,2.9459 -0.91369,3.2219 0.3048,0.1128 0.7338,0.1694 0.95328,0.1259 0.21948,-0.044 1.91764,-0.158 3.77369,-0.2543 z m 0.12979,-18.6734 c 2.78407,-0.074 5.35397,-0.1292 5.7109,-0.1227 1.33856,0.025 4.2939,-0.6342 4.59941,-1.0253 0.38011,-0.4866 0.43507,-1.5729 0.0796,-1.5729 -0.15988,0 -0.16598,-0.2293 -0.0166,-0.6223 0.13013,-0.3423 0.16224,-0.6967 0.0714,-0.7875 -0.0909,-0.091 -0.18389,-0.7412 -0.20668,-1.445 -0.0517,-1.5966 -0.67841,-5.1924 -0.90502,-5.1924 -0.0926,0 -0.17891,-0.3683 -0.19171,-0.8183 -0.0127,-0.4501 -0.14443,-0.8932 -0.29253,-0.9847 -0.14809,-0.092 -0.31872,-0.395 -0.37915,-0.6744 -0.30405,-1.4053 -0.49843,-1.6667 -1.35956,-1.8283 -0.48397,-0.091 -0.87994,-0.2689 -0.87994,-0.3958 0,-0.1269 -0.12372,-0.2307 -0.27491,-0.2307 -0.15121,0 -0.20271,0.1168 -0.11447,0.2596 0.0882,0.1428 0.0465,0.2596 -0.0929,0.2596 -0.13929,0 -0.29219,-0.1152 -0.3398,-0.256 -0.0476,-0.1408 -1.16705,-0.2824 -2.48769,-0.3147 -1.32065,-0.032 -2.40118,-0.1349 -2.40118,-0.2278 0,-0.093 -0.26283,-0.152 -0.58407,-0.1313 -0.32124,0.021 -1.02464,-0.038 -1.5631,-0.1314 -0.53849,-0.093 -1.04676,-0.06 -1.12951,0.074 -0.0828,0.1339 -0.31387,0.1807 -0.5136,0.1041 -0.1997,-0.077 -0.3631,-0.026 -0.3631,0.1121 0,0.1383 -0.14688,0.2514 -0.32638,0.2514 -0.30081,0 -1.40076,1.5613 -2.19465,3.1151 -0.18236,0.3569 -0.80137,1.3498 -1.37558,2.2065 -0.5742,0.8566 -1.11414,1.7619 -1.19983,2.0117 -0.0857,0.2499 -0.25904,0.4543 -0.38515,0.4543 -0.12613,0 -0.22932,0.1238 -0.22932,0.2752 0,0.2875 -1.42708,2.3066 -2.30959,3.2678 -0.28165,0.3067 -0.44738,0.6224 -0.36828,0.7015 0.0791,0.079 -0.0453,0.3329 -0.27648,0.5641 -0.23114,0.2311 -0.42028,0.5871 -0.42028,0.7911 0,0.204 -0.10432,0.3708 -0.23181,0.3708 -0.41635,0 -0.49703,0.66 -0.1403,1.1479 0.35631,0.4873 1.04546,0.6016 4.12613,0.6848 0.85113,0.023 1.78564,0.1336 2.07669,0.2457 0.29105,0.1122 0.8212,0.1577 1.17813,0.1012 0.35693,-0.057 2.92684,-0.1634 5.71091,-0.2374 z m -28.55452,-2.0512 c 0.78524,-0.012 2.05548,0.063 2.82277,0.1655 l 1.39504,0.1863 -0.12655,-1.3172 c -0.0696,-0.7245 -0.25429,-1.3961 -0.41038,-1.4926 -0.15609,-0.096 -0.45949,-0.5805 -0.67425,-1.0756 -0.21476,-0.4951 -0.39501,-0.7944 -0.40062,-0.6652 -0.006,0.1292 -0.22597,0.04 -0.48974,-0.1991 -0.54681,-0.4949 -1.35901,-0.4464 -2.03983,0.1217 -0.25621,0.2138 -0.90307,0.6746 -1.43751,1.0241 -0.53441,0.3495 -0.97246,0.7013 -0.97345,0.7817 0,0.08 -0.39987,0.3025 -0.88646,0.4934 -0.4866,0.1909 -1.01125,0.6248 -1.16591,0.9643 -0.15463,0.3394 -0.45674,0.6845 -0.67132,0.7668 -0.21457,0.082 -0.32087,0.2618 -0.23622,0.3988 0.0931,0.1507 0.8869,0.1738 2.01029,0.058 1.02103,-0.1049 2.49889,-0.1999 3.28414,-0.2113 z m 11.05882,-5.0383 c 0.8948,-0.8734 1.9205,-2.2625 1.9205,-2.6011 0,-0.1328 0.40615,-0.6924 0.90253,-1.2435 0.49639,-0.5512 0.90524,-1.1482 0.90856,-1.3267 0.003,-0.1784 0.11497,-0.3244 0.24811,-0.3244 0.13314,0 0.32371,-0.2629 0.42344,-0.5841 0.0997,-0.3212 0.40054,-0.8954 0.66843,-1.2759 0.38235,-0.543 0.43222,-0.836 0.23194,-1.3628 -0.33613,-0.8841 -0.59546,-0.848 -1.71423,0.2385 -0.5151,0.5002 -1.04372,0.8432 -1.1747,0.7623 -0.13099,-0.081 -0.30904,0.038 -0.39567,0.2632 -0.0866,0.2258 -0.29021,0.3849 -0.45243,0.3537 -0.41183,-0.079 -3.79936,1.6076 -3.79936,1.8918 0,0.1279 -0.23534,0.2324 -0.52299,0.2324 -0.30566,0 -0.72477,0.3318 -1.0086,0.7986 -0.52109,0.8568 -0.476,1.041 0.7025,2.8686 1.46059,2.2652 1.89319,2.4502 3.06197,1.3094 z m -13.60893,-4.1564 c 0.66764,-0.3797 2.12781,-1.2059 3.24484,-1.8359 1.117,-0.6301 2.68757,-1.5938 3.49014,-2.1416 0.80256,-0.5478 1.55163,-0.996 1.6646,-0.996 0.11294,0 0.76573,-0.3596 1.45062,-0.7991 1.10765,-0.7108 1.21084,-0.8542 0.93373,-1.298 -0.17133,-0.2743 -0.45866,-0.4988 -0.63848,-0.4988 -0.17981,0 -0.32692,-0.1009 -0.32692,-0.2242 0,-0.1233 -0.43805,-0.2351 -0.97345,-0.2483 -1.1868,-0.03 -1.8088,-0.1465 -2.04754,-0.3853 -0.27854,-0.2785 -1.36291,-0.2139 -1.99311,0.1188 -0.72167,0.3809 -4.07143,3.869 -4.07143,4.2396 0,0.1532 -0.23363,0.447 -0.51917,0.6528 -0.28555,0.2058 -0.51918,0.5178 -0.51918,0.6934 0,0.1755 -0.15694,0.4125 -0.34878,0.5267 -0.39758,0.2367 -1.24126,2.5546 -1.01293,2.783 0.21572,0.2157 0.32017,0.1789 1.66706,-0.5871 z m 34.38103,-10.5812 c 0.0497,-0.3256 -0.22776,-0.894 -0.68801,-1.4096 -0.42422,-0.4751 -0.77219,-0.9304 -0.77331,-1.0118 0,-0.081 -0.32199,-0.2966 -0.71308,-0.4782 -0.84722,-0.3936 -1.20417,-0.05 -1.64342,1.581 -0.39735,1.4757 0.0659,1.8836 2.1271,1.8728 1.43077,-0.01 1.61658,-0.068 1.69072,-0.5542 z m -11.03705,-2.5213 c 0.72798,-1.5013 0.98339,-2.3144 0.87047,-2.7711 -0.2226,-0.9002 -0.53153,-1.0237 -2.18123,-0.8716 -0.79301,0.073 -1.93202,0.1743 -2.53112,0.2248 -0.5991,0.051 -1.32151,0.2161 -1.60534,0.368 -0.28386,0.1519 -0.87421,0.2762 -1.31192,0.2762 -0.43769,0 -0.79582,0.1168 -0.79582,0.2596 0,0.1428 -0.22452,0.2596 -0.49892,0.2596 -0.90391,0 -3.08174,1.1372 -3.4849,1.8197 -0.55022,0.9314 -0.23963,1.2557 1.35475,1.4144 0.75615,0.075 1.46285,0.1913 1.5704,0.2578 0.10755,0.066 0.82779,0.1893 1.60056,0.273 0.77276,0.084 2.10589,0.24 2.96253,0.3472 3.16208,0.3957 2.89948,0.5162 4.05054,-1.8576 z m 3.5704,-28.6274 c 5.57263,-0.1399 8.6129,-0.2926 9.38198,-0.4712 0.35693,-0.083 1.6036,-0.1972 2.77039,-0.2538 1.16676,-0.057 2.22707,-0.1684 2.35619,-0.2482 0.12911,-0.08 1.12048,-0.1791 2.20298,-0.2207 1.0825,-0.042 1.91357,-0.164 1.84677,-0.2721 -0.0668,-0.108 0.27483,-0.1965 0.75917,-0.1965 0.48433,0 0.95878,-0.078 1.05433,-0.1737 0.15534,-0.1553 0.53008,-0.2214 2.37888,-0.4196 0.28555,-0.031 0.57758,-0.1173 0.64897,-0.1926 0.14378,-0.1518 2.48406,-0.6887 4.6413,-1.065 0.76809,-0.1339 1.6442,-0.3778 1.9469,-0.5421 0.30273,-0.1642 1.01768,-0.3817 1.58877,-0.4834 1.20924,-0.2153 4.61062,-1.1645 5.64601,-1.5757 0.39263,-0.1558 0.71386,-0.4513 0.71386,-0.6566 0,-0.2053 0.11524,-0.302 0.25609,-0.2149 0.32004,0.1978 0.0508,-0.4885 -0.63654,-1.6223 -0.28063,-0.4629 -0.60187,-0.8416 -0.71386,-0.8416 -0.11198,0 -0.20362,-0.2337 -0.20362,-0.5192 0,-0.2856 -0.0912,-0.5192 -0.20268,-0.5192 -0.17341,0 -0.84776,-1.3402 -0.93607,-1.8604 -0.0161,-0.095 -0.117,-0.2606 -0.22408,-0.3677 -0.10708,-0.1071 -0.19469,-0.4158 -0.19469,-0.6859 0,-0.2702 -0.11681,-0.4191 -0.25958,-0.3308 -0.14278,0.088 -0.25959,-0.073 -0.25959,-0.3588 0,-0.2855 -0.11681,-0.5913 -0.25959,-0.6796 -0.14277,-0.088 -0.25958,-0.3871 -0.25958,-0.6643 0,-0.2771 -0.11682,-0.5038 -0.25959,-0.5038 -0.14277,0 -0.25959,-0.1237 -0.25959,-0.2749 0,-0.1512 0.11682,-0.2027 0.25959,-0.1145 0.14277,0.088 0.25959,0.046 0.25959,-0.093 0,-0.1393 -0.11337,-0.2922 -0.25193,-0.3398 -0.13857,-0.048 -0.28459,-0.3786 -0.32449,-0.7355 -0.0399,-0.357 -0.18835,-0.7317 -0.32988,-0.8328 -0.14153,-0.1011 -0.26973,-0.3347 -0.28492,-0.5192 -0.0151,-0.1844 -0.0454,-0.5398 -0.0672,-0.7896 -0.0218,-0.2499 -0.19207,-0.4543 -0.37848,-0.4543 -0.18641,0 -0.34507,-0.2628 -0.35257,-0.5841 -0.0426,-1.8276 -0.11048,-2.2876 -0.31838,-2.1592 -0.1271,0.079 -0.30707,-0.262 -0.39992,-0.7569 -0.55681,-2.9681 -1.40826,-3.5331 -5.10677,-3.3886 -1.34154,0.053 -2.49756,0.1201 -2.56895,0.1504 -0.68982,0.2923 -25.82886,0.2885 -25.82886,0 0,-0.03 -0.93451,-0.1033 -2.07669,-0.1639 -1.14219,-0.061 -2.66238,-0.1429 -3.37819,-0.1829 -0.71581,-0.04 -1.42045,-0.1464 -1.56587,-0.2363 -0.1454,-0.09 -1.25355,-0.1879 -2.46252,-0.2178 -1.20897,-0.03 -2.6625,-0.1491 -3.23009,-0.2648 -0.71934,-0.1466 -1.09166,-0.1164 -1.22906,0.1 -0.13037,0.2051 -0.19846,0.213 -0.20108,0.023 -0.003,-0.1642 -0.75275,-0.3565 -1.75618,-0.45 -1.83242,-0.1707 -3.03989,-0.3346 -4.34808,-0.59 -0.42831,-0.084 -1.53805,-0.2393 -2.46607,-0.3458 -0.92802,-0.1066 -1.91089,-0.2902 -2.18416,-0.4079 -0.35278,-0.152 -0.44244,-0.1261 -0.30917,0.09 0.22831,0.3694 -0.15775,0.4042 -0.51548,0.046 -0.14148,-0.1415 -0.85713,-0.2833 -1.59039,-0.3152 -0.73325,-0.032 -1.28264,-0.1398 -1.22086,-0.2398 0.0618,-0.1 -0.61846,-0.2415 -1.51168,-0.3146 -2.20952,-0.1807 -3.17505,-0.3272 -6.93018,-1.0515 -1.77619,-0.3426 -3.38239,-0.5642 -3.56931,-0.4925 -0.18691,0.072 -0.33983,-2e-4 -0.33983,-0.16 0,-0.3158 -2.0565,-0.1636 -2.36086,0.1747 -0.43445,0.483 -1.48998,2.6483 -1.65318,3.3914 -0.0999,0.4547 -0.28889,0.7604 -0.42006,0.6793 -0.13114,-0.081 -0.23846,0.031 -0.23846,0.2486 0,0.3804 -0.76902,2.2223 -1.03972,2.4902 -0.0722,0.071 -0.51042,0.8964 -0.97392,1.8335 -0.46349,0.9371 -1.07614,1.9543 -1.36145,2.2605 -0.28529,0.3063 -0.51871,0.7212 -0.51871,0.922 0,0.2009 -0.20907,0.6438 -0.4646,0.9843 -0.25554,0.3405 -0.6106,0.9111 -0.78904,1.2681 -0.72869,1.4576 -2.33608,3.9006 -2.76922,4.2088 -0.14316,0.1019 -0.2632,0.2771 -0.2667,0.3894 -0.004,0.1123 -0.43099,0.8615 -0.94991,1.665 -1.26172,1.9535 -1.11409,3.0819 0.40325,3.0819 0.35872,0 0.71607,0.1033 0.79412,0.2297 0.0781,0.1263 0.46461,0.2908 0.859,0.3655 0.39437,0.075 1.473,0.3266 2.397,0.5596 0.92397,0.2329 1.85848,0.4597 2.07669,0.5039 0.21818,0.044 0.57195,0.149 0.78611,0.2327 0.21416,0.084 0.88584,0.2182 1.49262,0.2986 2.57621,0.3415 3.17993,0.473 3.17993,0.6927 0,0.1278 0.25453,0.2323 0.56564,0.2323 0.492,0 1.05398,0.1442 2.80899,0.7204 0.21416,0.07 0.79823,0.1733 1.29793,0.229 0.49971,0.056 1.08378,0.1661 1.29794,0.2455 0.40142,0.1489 2.64923,0.5884 4.02359,0.7867 1.14994,0.166 1.51489,0.2444 1.9469,0.4187 0.21416,0.086 0.79823,0.2259 1.29793,0.31 0.4997,0.084 1.15028,0.197 1.44572,0.2509 0.29543,0.054 1.17154,0.1397 1.9469,0.1908 0.77535,0.051 1.46814,0.1671 1.53953,0.2578 0.0714,0.091 0.94749,0.2407 1.9469,0.3332 0.9994,0.092 2.92683,0.285 4.28317,0.4278 1.35634,0.1428 3.63422,0.3746 5.06194,0.5152 1.42773,0.1405 3.12153,0.3092 3.76401,0.3749 0.64247,0.066 2.36535,0.1511 3.82861,0.19 1.46324,0.039 2.66058,0.1661 2.66077,0.2828 1.5e-4,0.1167 0.24653,0.1341 0.54749,0.038 0.30097,-0.095 2.37441,-0.2195 4.60766,-0.2755 z m 2.33753,-33.3707 c 12.19924,0.052 17.94376,-0.034 18.35243,-0.2717 0.134,-0.078 1.17814,-0.1595 2.32032,-0.1808 1.14218,-0.021 2.67465,-0.1583 3.40549,-0.3043 0.73084,-0.1461 1.43172,-0.2401 1.55752,-0.2089 0.34686,0.086 1.74455,-0.6249 2.10247,-1.0691 1.02882,-1.2772 -0.42409,-3.3069 -1.82765,-2.5533 -0.31091,0.1669 -0.85731,0.3299 -1.21424,0.3622 -1.23319,0.1115 -2.61072,0.3493 -2.83848,0.4901 -0.12571,0.078 -1.05709,0.1539 -2.06968,0.1693 -1.0126,0.015 -1.84109,0.1389 -1.84109,0.2744 0,0.1355 -0.14602,0.1537 -0.32449,0.04 -0.44007,-0.2795 -1.81316,-0.2968 -2.17762,-0.027 -0.1626,0.1201 -1.27233,0.1953 -2.46607,0.1671 -1.19376,-0.028 -3.10497,-0.04 -4.24715,-0.025 -4.8437,0.061 -10.40695,-0.084 -10.70794,-0.2789 -0.20103,-0.1301 -0.32599,-0.081 -0.32846,0.1298 -0.003,0.2406 -0.0597,0.2534 -0.19469,0.044 -0.12374,-0.1921 -1.26517,-0.3034 -3.25044,-0.317 -1.68285,-0.012 -3.49346,-0.1294 -4.02359,-0.262 -0.53013,-0.1326 -1.13909,-0.2444 -1.35325,-0.2485 -0.75581,-0.015 -2.70004,-0.3378 -2.94605,-0.4899 -0.13706,-0.085 -0.16585,-0.019 -0.064,0.1457 0.10187,0.1648 0.0615,0.2997 -0.0897,0.2997 -0.15119,0 -0.27491,-0.1168 -0.27491,-0.2596 0,-0.1428 -0.63557,-0.2596 -1.41241,-0.2596 -0.77681,0 -1.4846,-0.1168 -1.57283,-0.2596 -0.0882,-0.1427 -0.29956,-0.2578 -0.46959,-0.2556 -0.18576,0 -0.15376,0.1044 0.0802,0.2556 0.57828,0.3737 -0.30772,0.3226 -2.18715,-0.1262 -0.84599,-0.202 -1.63448,-0.3078 -1.75221,-0.235 -0.11772,0.073 -0.35477,0.045 -0.52678,-0.061 -0.172,-0.1063 -0.66846,-0.2306 -1.10324,-0.2762 -0.43478,-0.046 -0.96571,-0.1561 -1.17987,-0.2457 -0.21416,-0.09 -0.62301,-0.196 -0.90856,-0.2364 -0.28554,-0.04 -1.04483,-0.1554 -1.68731,-0.2555 -0.64247,-0.1 -1.81061,-0.2389 -2.59586,-0.3086 -0.78525,-0.07 -1.49073,-0.2276 -1.56773,-0.3509 -0.077,-0.1233 -0.54424,-0.2486 -1.03834,-0.2784 -0.4941,-0.03 -1.02054,-0.1449 -1.16991,-0.2557 -0.14934,-0.1109 -0.49978,-0.2018 -0.77876,-0.2021 -1.05306,0 -2.1656,-0.1679 -2.3497,-0.352 -0.105,-0.105 -0.58799,-0.1909 -1.07328,-0.1909 -0.4853,0 -1.0791,-0.1052 -1.31956,-0.2338 -0.24048,-0.1286 -1.1381,-0.2857 -1.99474,-0.3492 -0.85664,-0.063 -1.73274,-0.1791 -1.9469,-0.257 -0.21416,-0.078 -1.09026,-0.2826 -1.9469,-0.4548 -0.85663,-0.1722 -2.2461,-0.4735 -3.08768,-0.6694 -0.84158,-0.196 -1.63007,-0.2946 -1.75221,-0.2191 -0.12213,0.075 -0.22205,0.013 -0.22205,-0.1377 0,-0.1512 -0.27256,-0.2749 -0.60569,-0.2749 -0.33315,0 -0.68697,-0.081 -0.78629,-0.1805 -0.4813,-0.4813 -2.68643,-0.5276 -3.13368,-0.066 -0.69343,0.7161 -0.61771,2.5759 0.11269,2.7669 0.28555,0.075 0.51917,0.2389 0.51917,0.3651 0,0.1261 0.16419,0.2293 0.36485,0.2293 0.41311,0 2.53834,1.0565 2.77618,1.3801 0.0857,0.1165 0.31931,0.2449 0.51917,0.2852 0.33074,0.067 0.61234,0.1624 1.79112,0.6085 0.21416,0.081 0.79823,0.1971 1.29793,0.2579 0.49971,0.061 1.03755,0.217 1.19519,0.3473 0.15768,0.1302 0.77601,0.256 1.3741,0.2794 0.59809,0.023 1.14766,0.1401 1.2213,0.2592 0.0736,0.1191 0.45794,0.2166 0.85402,0.2166 0.3961,0 0.8078,0.088 0.91488,0.1947 0.10708,0.1071 0.5062,0.2183 0.88691,0.2472 0.38073,0.029 1.50993,0.2152 2.50934,0.4141 0.99941,0.1989 2.07994,0.3374 2.40118,0.3077 0.32124,-0.03 0.58407,0.032 0.58407,0.1378 0,0.1748 0.74732,0.2964 4.15338,0.6758 0.64248,0.072 1.34336,0.1994 1.55752,0.2842 0.21416,0.085 0.85664,0.1883 1.42773,0.23 0.99084,0.072 2.25199,0.1824 5.7109,0.4981 0.85664,0.078 2.43363,0.2527 3.50442,0.3878 1.0708,0.1352 2.8155,0.2665 3.87714,0.292 1.06163,0.025 2.25897,0.1704 2.66076,0.3221 0.51824,0.1956 0.94689,0.194 1.4751,-0.01 0.47818,-0.1805 0.901,-0.1936 1.18174,-0.036 0.29222,0.1635 0.56382,0.1395 0.8192,-0.072 0.21014,-0.1744 0.45714,-0.242 0.54885,-0.1503 0.0917,0.092 0.003,0.1886 -0.20095,0.2152 -0.20227,0.027 0.62516,0.1199 1.83873,0.2074 1.21357,0.088 2.42407,0.1121 2.69005,0.055 0.26594,-0.057 2.07656,-0.098 4.02359,-0.09 z m -3.65306,-10.313 c -0.0454,-0.2397 -0.38645,-0.4566 -0.79143,-0.5033 -0.3914,-0.045 -0.71163,-0.1912 -0.71163,-0.3245 0,-0.1333 -0.35044,-0.2423 -0.77876,-0.2423 -0.42832,0 -0.77873,-0.088 -0.77873,-0.1947 5e-5,-0.2352 -3.56028,-0.2254 -3.79609,0.01 -0.0913,0.091 -0.37835,0.052 -0.63786,-0.087 -0.53472,-0.2862 -2.38695,0.4453 -2.24044,0.8848 0.10591,0.3177 0.77082,0.4081 3.6027,0.4894 1.23742,0.036 2.339,0.1539 2.44798,0.2629 0.10897,0.1091 1.00045,0.1818 1.98109,0.1616 1.49275,-0.031 1.76996,-0.1052 1.70317,-0.4578 z m 20.88628,-0.5254 c 0.10708,-0.014 0.30621,-0.025 0.44252,-0.025 0.43946,0 0.59505,-1.7657 0.27363,-3.1055 -0.29979,-1.2498 -0.36204,-1.3172 -1.54,-1.667 -0.67515,-0.2005 -1.53989,-0.3048 -1.92161,-0.2318 -0.4095,0.078 -0.69406,0.016 -0.69406,-0.1507 0,-0.1718 -0.28578,-0.2262 -0.72596,-0.1382 -0.39927,0.08 -1.36298,-0.017 -2.14159,-0.2144 -0.7786,-0.1978 -1.9997,-0.3537 -2.71356,-0.3464 -1.27143,0.013 -1.29959,0.031 -1.37929,0.8569 -0.0519,0.5387 0.0341,0.8437 0.23797,0.8437 0.17561,0 0.24216,0.077 0.14788,0.1714 -0.32549,0.3255 0.73759,0.7884 1.90199,0.8282 0.64248,0.022 1.20708,0.1565 1.25466,0.2989 0.0476,0.1424 0.2884,0.259 0.53514,0.259 0.24671,0 0.69935,0.2336 1.00585,0.5192 0.30649,0.2855 0.62545,0.5191 0.70877,0.5191 0.0833,0 0.40945,0.2413 0.72472,0.5363 0.31526,0.2949 1.06967,0.6696 1.67646,0.8326 0.60678,0.163 1.10324,0.393 1.10324,0.5112 0,0.1182 0.20443,0.1055 0.45428,-0.028 0.24985,-0.1337 0.54188,-0.2547 0.64896,-0.2688 z M 162.85288,8.954 c 0.0917,-0.5913 -0.59129,-2.2065 -0.93301,-2.2065 -0.12439,0 -0.41095,-0.071 -0.63679,-0.1576 -0.54082,-0.2075 -0.55427,0.8688 -0.0266,2.1316 0.29715,0.7112 0.51196,0.9 0.94996,0.8353 0.32843,-0.049 0.59975,-0.3016 0.64647,-0.6028 z m 15.41189,0.2123 c 0.6897,-0.2851 1.03835,-0.3021 1.03835,-0.05 0,0.1536 0.17384,0.1527 0.46393,0 0.25517,-0.1366 1.56933,-0.3053 2.92035,-0.3748 1.35104,-0.07 2.45641,-0.1509 2.45641,-0.1807 0,-0.1012 3.62002,-0.2319 7.20353,-0.2599 2.16732,-0.017 3.56932,-0.1291 3.56932,-0.2854 0,-0.1416 0.10456,-0.1927 0.23238,-0.1138 0.38813,0.2399 0.55092,-0.5977 0.24614,-1.2666 -0.31709,-0.696 -1.55308,-1.3239 -2.15286,-1.0937 -0.21216,0.081 -0.44184,0.057 -0.51042,-0.054 -0.0686,-0.111 -1.19781,-0.2256 -2.50942,-0.2546 -1.31162,-0.029 -2.49227,-0.1193 -2.62367,-0.2005 -0.53665,-0.3317 -17.15761,-0.6687 -19.03019,-0.3859 -1.79598,0.2712 -1.94345,0.4653 -1.97592,2.6 -0.0158,1.0468 0.0895,1.9767 0.23428,2.0663 0.33214,0.2057 9.91182,0.074 10.43779,-0.1437 z m -22.98455,-1.211 c 0.35029,-1 -0.35909,-1.5594 -1.75096,-1.3808 -1.99965,0.2566 -2.90828,1.551 -1.18115,1.6826 0.44395,0.034 0.99575,0.1741 1.22624,0.3117 0.71612,0.4275 1.43131,0.1703 1.70587,-0.6135 z"
     id="path2987"
     inkscape:connector-curvature="0" />
</svg>
